<?xml version="1.0" encoding="utf-8"?>

<!DOCTYPE svg PUBLIC "-//W3C//DTD SVG 1.1//EN" "http://www.w3.org/Graphics/SVG/1.1/DTD/svg11.dtd">
<svg version="1.1" id="Layer_1" xmlns="http://www.w3.org/2000/svg" xmlns:xlink="http://www.w3.org/1999/xlink" x="0px" y="0px"
	 viewBox="0 0 1633 1706.36" enable-background="new 0 0 1633 1706.36" xml:space="preserve">
<g>
	
		<linearGradient id="SVGID_1_" gradientUnits="userSpaceOnUse" x1="199.384" y1="1590.6105" x2="256.166" y2="1590.6105" gradientTransform="matrix(1 0 0 -1 0 1706)">
		<stop  offset="0" style="stop-color:#DF2391"/>
		<stop  offset="0.0639" style="stop-color:#E350A6"/>
		<stop  offset="0.1338" style="stop-color:#E779B9"/>
		<stop  offset="0.2055" style="stop-color:#EA9BC9"/>
		<stop  offset="0.2783" style="stop-color:#EDB5D5"/>
		<stop  offset="0.3524" style="stop-color:#EFC8DE"/>
		<stop  offset="0.4289" style="stop-color:#F0D3E3"/>
		<stop  offset="0.5112" style="stop-color:#F0D7E5"/>
		<stop  offset="0.5679" style="stop-color:#EFD1E2"/>
		<stop  offset="0.6442" style="stop-color:#EEC0DA"/>
		<stop  offset="0.7316" style="stop-color:#EBA4CD"/>
		<stop  offset="0.8275" style="stop-color:#E77CBB"/>
		<stop  offset="0.9289" style="stop-color:#E34AA3"/>
		<stop  offset="1" style="stop-color:#DF2391"/>
	</linearGradient>
	<path fill="url(#SVGID_1_)" d="M214.869,165.242c-6.575-27.312,0.464-52.236,4.929-52.559
		c9.143,11.057,17.869,35.748,18.326,36.749c0.476,1.907,0.778,4.2,2.667,5.276c13.604-3.279,10.585-1.661,15.375-4.245
		c-12.928-38.286-37.522-84.904-41.136-84.926c-11.366,25.075-17.579,89.451-15.108,96.384
		C204.891,163.077,209.882,164.148,214.869,165.242z"/>
	
		<linearGradient id="SVGID_2_" gradientUnits="userSpaceOnUse" x1="75.3563" y1="1553.7892" x2="208.589" y2="1553.7892" gradientTransform="matrix(1 0 0 -1 0 1706)">
		<stop  offset="0" style="stop-color:#308C88"/>
		<stop  offset="0.0544" style="stop-color:#359B94"/>
		<stop  offset="0.1705" style="stop-color:#3EB5A8"/>
		<stop  offset="0.2897" style="stop-color:#45C8B6"/>
		<stop  offset="0.4126" style="stop-color:#49D3BF"/>
		<stop  offset="0.5449" style="stop-color:#4AD7C2"/>
		<stop  offset="0.6369" style="stop-color:#48D1BD"/>
		<stop  offset="0.7606" style="stop-color:#42C0B0"/>
		<stop  offset="0.9018" style="stop-color:#38A49A"/>
		<stop  offset="1" style="stop-color:#308C88"/>
	</linearGradient>
	<path fill="url(#SVGID_2_)" d="M162.177,202.898c2.325,0.165,4.151-1.533,5.583-3.147c16.969-18.585,35.355-28.1,40.829-32.126
		c-8.309-4.726-20.454,0.574-23.539,0.773c-2.262,0.222-4.462-0.556-6.707-0.685c0.08,1.382-0.267,2.751-0.156,4.138l-0.089-0.365
		c-0.045,0.96-0.094,1.92-0.138,2.885c-7.688,1.406,2.394-24.344-19.961-28.406c-5.018-1.142-10.445,0.115-14.579,3.142
		c0.04,2.507,0.102,5.027-0.009,7.534c0.031,1.302-1.738,2.369-2.667,1.196c-3.205-6.748,7.738-43.619-22.242-42.154
		c-15.296,1.108-11.863-9.62-24.97-13.534c-6.005-1.578-12.614-0.156-17.574,3.538c-0.573,0.311-0.653,0.947-0.578,1.533
		c2.071,0.062,12.735-1.263,16.73,9.032c4.02,10.661,9.793,19.99,21.437,17.757c0.951-1.902,1.565-3.974,2.649-5.809
		c0.809-0.329,1.942,0.076,2.294,0.858c-0.018,4.756-1.978,9.209-2.24,13.943c-0.832,28.303,6.428,26.429,27.011,26.5
		c4.344,0.325,16.705-1.645,13.179,2.427c-1.667,0.844-3.596,0.987-5.343,1.636c-8.122,0.041-7.032,25.419,11.068,29.238
		L162.177,202.898z"/>
	
		<linearGradient id="SVGID_3_" gradientUnits="userSpaceOnUse" x1="215.6369" y1="1564.775" x2="235.804" y2="1564.775" gradientTransform="matrix(1 0 0 -1 0 1706)">
		<stop  offset="0" style="stop-color:#1FF626"/>
		<stop  offset="0.4888" style="stop-color:#C80054"/>
		<stop  offset="0.9944" style="stop-color:#75F222"/>
	</linearGradient>
	<path fill="url(#SVGID_3_)" d="M217.251,126.466c-2.465,11.872-2.278,28.85,1.756,36.02c5.6-2.156,11.156-4.431,16.797-6.489
		c-2.472-10.613-9.423-27.62-16.077-36.033C218.398,121.888,217.82,124.226,217.251,126.466z"/>
	
		<linearGradient id="SVGID_4_" gradientUnits="userSpaceOnUse" x1="292.7624" y1="730.2155" x2="293.7457" y2="730.2155" gradientTransform="matrix(1 0 0 -1 0 1706)">
		<stop  offset="0" style="stop-color:#88A4C6"/>
		<stop  offset="0.017" style="stop-color:#83A0C3"/>
		<stop  offset="0.1702" style="stop-color:#597DAA"/>
		<stop  offset="0.309" style="stop-color:#3B6399"/>
		<stop  offset="0.4273" style="stop-color:#29548E"/>
		<stop  offset="0.5112" style="stop-color:#224E8A"/>
		<stop  offset="0.617" style="stop-color:#23528E"/>
		<stop  offset="0.7323" style="stop-color:#255F9C"/>
		<stop  offset="0.8519" style="stop-color:#2973B1"/>
		<stop  offset="0.9739" style="stop-color:#2F90D0"/>
		<stop  offset="1" style="stop-color:#3097D7"/>
	</linearGradient>
	<path fill="url(#SVGID_4_)" d="M293.345,974.398c-1.245,0.471-0.138,1.933,0.062,2.773
		C294.07,976.322,293.599,975.287,293.345,974.398z"/>
	
		<linearGradient id="SVGID_5_" gradientUnits="userSpaceOnUse" x1="293.751" y1="726.033" x2="297.906" y2="726.033" gradientTransform="matrix(1 0 0 -1 0 1706)">
		<stop  offset="0" style="stop-color:#2DEE9F"/>
		<stop  offset="0.184" style="stop-color:#2FD69A"/>
		<stop  offset="0.3752" style="stop-color:#30C496"/>
		<stop  offset="0.5112" style="stop-color:#31BD95"/>
		<stop  offset="0.6461" style="stop-color:#31C196"/>
		<stop  offset="0.7928" style="stop-color:#30CF99"/>
		<stop  offset="0.9447" style="stop-color:#2EE49D"/>
		<stop  offset="1" style="stop-color:#2DEE9F"/>
	</linearGradient>
	<path fill="url(#SVGID_5_)" d="M297.906,982.963c-0.631-2.365-1.987-4.618-4.04-5.992l-0.115,0.582
		C294.714,979.62,295.692,981.945,297.906,982.963z"/>
	
		<linearGradient id="SVGID_6_" gradientUnits="userSpaceOnUse" x1="72.1826" y1="1464.7454" x2="266.976" y2="1464.7454" gradientTransform="matrix(1 0 0 -1 0 1706)">
		<stop  offset="0" style="stop-color:#F70090"/>
		<stop  offset="0.2313" style="stop-color:#F468B9"/>
		<stop  offset="0.4237" style="stop-color:#F1B8D9"/>
		<stop  offset="0.5112" style="stop-color:#F0D7E5"/>
		<stop  offset="0.5642" style="stop-color:#F1C8DF"/>
		<stop  offset="0.6661" style="stop-color:#F4A1D1"/>
		<stop  offset="0.8063" style="stop-color:#F862B9"/>
		<stop  offset="0.978" style="stop-color:#FE0C99"/>
		<stop  offset="1" style="stop-color:#FF0095"/>
	</linearGradient>
	<path fill="url(#SVGID_6_)" d="M233.413,232.464l0.076-0.018c39.815-38.626,17.787,0.603,30.873-65.853
		c0.84-4.333,1.942-8.618,2.614-12.987c-7.24-0.436-14.188,1.795-21.175,3.293c-11.601,2.076-22.824,6.254-32.958,12.272
		l-0.089-0.022c-16.404,9.436-32.694,21.448-46.176,36.905l0.009,0.08c-47.705,54.344-20.318,79.329-64.653,105.549
		c-14.126,7.91-26.318,7.121-28.837,7.236c-0.142,0.093-0.427,0.28-0.573,0.369l-0.307-0.009c-1.116,3.022,25.06,16.035,57.59,5.849
		C170.493,313.264,199.46,268.847,233.413,232.464z"/>
	
		<linearGradient id="SVGID_7_" gradientUnits="userSpaceOnUse" x1="324.559" y1="1412.4813" x2="620.1537" y2="1412.4813" gradientTransform="matrix(1 0 0 -1 0 1706)">
		<stop  offset="0" style="stop-color:#3BA2FF"/>
		<stop  offset="0.0266" style="stop-color:#46B0E9"/>
		<stop  offset="0.0748" style="stop-color:#58C5C7"/>
		<stop  offset="0.124" style="stop-color:#66D5AC"/>
		<stop  offset="0.174" style="stop-color:#6FE199"/>
		<stop  offset="0.2253" style="stop-color:#75E88E"/>
		<stop  offset="0.28" style="stop-color:#77EA8A"/>
		<stop  offset="0.67" style="stop-color:#CBDA87"/>
		<stop  offset="0.89" style="stop-color:#CDC16C"/>
		<stop  offset="1" style="stop-color:#BE9F2F"/>
	</linearGradient>
	<path fill="url(#SVGID_7_)" d="M341.566,203.631l-0.058,0.044c4.134,0.604,8.187,1.653,12.241,2.658v0.067
		c9.406,2.448,17.67,6.461,20.93,7.854l0.022,0.093c89.949,44.425,94.736,167.059,101.202,235.371c0,0,17.014-13.135,37.545-27.344
		v-0.08c10.112-6.805,20.063-13.859,30.033-20.873l0.004-0.071c67.117-46.365,97.117-120.07,61.617-186.719l-0.124-0.027
		c-5.636-11.027-13.196-21.006-21.739-29.94l-0.076,0.053c-45.005-46.736-114.225-50.149-136.405-46.181
		c-17.662,0.727-44.946,6.643-69.022,17.775l0.013,0.084c-30.316,14.047-50.381,37.589-53.19,44.683
		C327.273,202.991,326.155,201.361,341.566,203.631z"/>
	
		<linearGradient id="SVGID_8_" gradientUnits="userSpaceOnUse" x1="952.5183" y1="930.0574" x2="1422.5492" y2="930.0574" gradientTransform="matrix(1 0 0 -1 0 1706)">
		<stop  offset="0" style="stop-color:#8A2240"/>
		<stop  offset="0.1151" style="stop-color:#A42858"/>
		<stop  offset="0.2758" style="stop-color:#C23074"/>
		<stop  offset="0.4135" style="stop-color:#D43485"/>
		<stop  offset="0.5112" style="stop-color:#DB368B"/>
		<stop  offset="0.6142" style="stop-color:#D73587"/>
		<stop  offset="0.7264" style="stop-color:#C9327B"/>
		<stop  offset="0.8428" style="stop-color:#B42C67"/>
		<stop  offset="0.9615" style="stop-color:#95254B"/>
		<stop  offset="1" style="stop-color:#8A2240"/>
	</linearGradient>
	<path fill="url(#SVGID_8_)" d="M955.603,741.378c8.726-17.914,19.059-31.421,24.095-38.149l0.093-0.004
		c12.578-14.951,21.634-25.026,36.318-38.34l0.102-0.013c15.689-14.136,29.659-23.237,38.051-28.775l0.102,0.018
		c70.226-44.336,160.047-63.272,222.993-8.503l-0.018,0.089c46.795,41.639,57.971,103.621,53.893,165.593l-0.085-0.387
		c-3.269,44.174-16.473,90.532-26.646,130.409l-0.08,0.053c-3.636,14.112-7.543,28.18-11.005,42.323l-0.08-0.173
		c-17.13,65.907-19.269,71.893-19.295,76.152c0,0,21.235-34.068,40.714-61.995l0.107,0.04
		c31.903-45.203,49.667-67.724,65.391-94.629l-0.018-0.093c60.597-100.28,52.358-208.237-0.902-284.205l-0.08,0.035
		c-44.18-63.357-126.665-100.094-199.547-88.477l0.231,0.102c-17.991,0.337-54.535,15.08-74.134,24.21l-0.013,0.138
		c-17.308,7.963-45.671,23.443-66.751,38.611v0.08c-61.353,43.573-77.607,90.99-86.521,166.069
		C952.718,743.431,955.358,743.12,955.603,741.378z"/>
	
		<linearGradient id="SVGID_9_" gradientUnits="userSpaceOnUse" x1="958.4249" y1="683.8431" x2="1525.7908" y2="683.8431" gradientTransform="matrix(1 0 0 -1 0 1706)">
		<stop  offset="0" style="stop-color:#B9BD17"/>
		<stop  offset="0.2" style="stop-color:#D5D410"/>
		<stop  offset="0.3821" style="stop-color:#E7E30B"/>
		<stop  offset="0.5112" style="stop-color:#EEE809"/>
		<stop  offset="0.6405" style="stop-color:#EAE40A"/>
		<stop  offset="0.7812" style="stop-color:#DCDA0E"/>
		<stop  offset="0.9269" style="stop-color:#C7C813"/>
		<stop  offset="1" style="stop-color:#B9BD17"/>
	</linearGradient>
	<path fill="url(#SVGID_9_)" d="M1439.772,1142.622c78.118,90.331,36.743,201.979-50.074,230.188l0.084,0.089
		c-66.8,21.832-139.668-7.622-180.145-64.466l0.004-0.142c-29.74-41.44-25.356-86.415-13.983-136.565l0.062,0.147
		c8.656-37.075,22.736-74.44,49.274-101.544l0.08,0.009c29.086-29.787,11.7,20.825,63.182-175.856
		c22.353-86.76,37.569-180.193-19.028-249.825c-32.212-38.522-79.25-52.047-128.004-45.376c-4.236,0.476-8.445,1.173-12.636,1.925
		l0.049,0.067c-30.35,5.252-64.517,20.495-94.491,39.451l0.018,0.071c-4.24,2.658-8.325,5.556-12.41,8.436l-0.022,0.098
		c-19.469,13.798-32.546,27.012-45.292,39.923l0.018,0.12c-16.038,17.273-29.696,37.735-38.033,54.853
		c8.595,3.458,13.399,5.006,22.873,9.534v0.08c3.92,1.809,7.663,3.974,11.587,5.774c0.364,0.391,1.071,0.738,1.533,0.173
		c12.12-7.917,19.958-11.276,29.708-15.161l0.173,0.044c23.263-8.949,51.282-9.951,75.93-4.978l0.026,0.036
		c34.348,6.436,60.714,25.651,81.899,51.443l-0.013,0.053c55.606,69.548,41.316,153.875-7.485,233.247l-0.004,0.102
		c-8.543,13.912-17.512,27.571-27.148,40.758l0.018,0.08c-34.77,44.486-13.546,186.572-2.267,213.339l-0.044,0.169
		c32.833,83.821,56.168,126.487,140.649,162.424c42.542,17.348,247.278,3.965,239.727-221.868l-0.062,0.329
		c-1.467-30.389-7.583-60.493-17.139-89.353c-1.85-5.72-22.833-23.041-27.7-26.548l0.005-0.04
		c-46.268-35.332-106.619-44.116-146.712-2.862c-1.471,1.485-3.173,2.982-3.894,4.978
		C1338.373,1104.5,1389.433,1085.272,1439.772,1142.622z"/>
	
		<linearGradient id="SVGID_10_" gradientUnits="userSpaceOnUse" x1="1190.9465" y1="488.1486" x2="1477.7285" y2="488.1486" gradientTransform="matrix(1 0 0 -1 0 1706)">
		<stop  offset="0" style="stop-color:#D1908B"/>
		<stop  offset="0.0624" style="stop-color:#CD867F"/>
		<stop  offset="0.2445" style="stop-color:#C16F61"/>
		<stop  offset="0.4005" style="stop-color:#BA604F"/>
		<stop  offset="0.5112" style="stop-color:#B85B48"/>
		<stop  offset="0.6122" style="stop-color:#BA5F4C"/>
		<stop  offset="0.7222" style="stop-color:#BE6A5A"/>
		<stop  offset="0.8364" style="stop-color:#C67C6F"/>
		<stop  offset="0.9529" style="stop-color:#D1958E"/>
		<stop  offset="1" style="stop-color:#D6A19C"/>
	</linearGradient>
	<path fill="url(#SVGID_10_)" d="M1193.014,1262.479c4.149,19.236,13.894,36.959,26.068,51.817l-0.018,0.075
		c2.436,2.991,4.925,5.947,7.596,8.734l-0.018,0.12c8.093,8.306,16.963,16.541,26.726,23.108l0.04,0.098
		c21.519,15.391,48.948,26.078,71.782,28.802l0.062,0.067c43.922,5.973,82.267-8.526,108.603-32.491l0.058,0.036
		c90.152-85.882,22.458-200.261-35.989-228.637c-34.129-16.164-66.283-6.179-72.871-1.645c-7.515,4.876-26.24,42.242-22.473,70.556
		c-0.222,1.461,0.582,13.378,6.307,26.873l0.071-0.044c3.375,8.004,11.005,19.8,19.935,25.326l0.076-0.027
		c7.799,5.159,12.577,4.336,14.068,4.867c0.271-0.173,0.564-0.329,0.871-0.471c-3.378-2.769-6.334-6.023-8.672-9.712l0.107-0.084
		c-8.677-13.88-6.048-33.294,8.498-44.363l-0.036-0.08c19.375-13.694,43.698-9.431,59.684,11.645h0.076
		c20.561,30.74,12.398,67.662-7.543,95.837l0.005,0.084c-5.663,7.938-12.148,15.317-19.566,21.659l0.018,0.084
		c-12.611,10.868-26.177,18.684-43.256,21.659l0.062,0.053c-19.203,3.625-36.066-0.597-49.608-10.236l-0.08,0.022
		c-11.036-7.818-19.908-18.419-26.517-30.162l-0.106-0.018c-9.92-18.423-11.775-27.24-14.108-33.527
		c0.409-0.711,0.271-1.125-0.422-1.24c0.032-0.243-2.825-12.72-2.876-12.961c-4.962-26.492-4.15-38.542-4.689-42.092
		c0.111-1.716,0.133-3.431,0.022-5.134l-0.315,0.258c0.009-4.476,0.031-8.947-0.013-13.414l0.391,0.027
		c-0.026-10.269,0.902-22.13,0.902-22.13c0.449-0.925,0.409-2.062,0.324-3.045c0.609-3.214,0.894-6.476,1.196-9.721l0.111,0.32
		c6.744-50.777,24.362-85.382,27.846-94.313c-1.24,0.627-2.409,1.364-3.587,2.084
		C1207.477,1101.171,1183.401,1207.437,1193.014,1262.479z"/>
	
		<linearGradient id="SVGID_11_" gradientUnits="userSpaceOnUse" x1="424.3856" y1="1229.0151" x2="716.9122" y2="1229.0151" gradientTransform="matrix(1 0 0 -1 0 1706)">
		<stop  offset="0.05" style="stop-color:#FFF200"/>
		<stop  offset="0.5337" style="stop-color:#0E58A8"/>
		<stop  offset="1" style="stop-color:#A93E89"/>
	</linearGradient>
	<path fill="url(#SVGID_11_)" d="M534.597,412.307l0.018,0.08c-5.378,3.618-10.645,7.405-16.037,11.001l0.013,0.08
		c-4.343,2.871-8.574,5.903-12.845,8.876l-0.004,0.076c-4.569,3.08-8.961,6.418-13.41,9.667v0.08
		c-4.436,3.227-8.689,6.698-12.93,10.17l0.018,0.075c-7.992,6.229-20.393,18.252-28.855,28.784l0.022,0.076
		c-2.44,2.782-4.534,5.849-6.68,8.863l0.004,0.075c-4.076,5.845-7.623,12.054-10.783,18.437l0.044,0.138
		c-13.039,24.557-10.849,53.446,1.845,59.208l-0.005,0.138c2.898,1.391,6.183,1.458,9.325,1.645l-0.342,0.147
		c0.36,0.031,1.084,0.084,1.449,0.116c0.039,1.234-1.528,24.749,5.116,41.172c-0.119,1.013,6.226,18.837,16.121,30.811
		c3.7-5.502,9.699-19.424,25.819-35.358c0.813-0.84,1.738-1.596,2.351-2.609c3.929-3.689,7.649-7.64,11.485-11.441l0.036,0.022
		c12.643-11.786,31.891-25.954,46.479-37.029l0.218,0.009c47.589-34.022,157.781-98.453,163.455-154.126l0.12,0.267
		c0-2.911,3.866-22.261-17.757-45.839l-0.102-0.013c-3.951-4.605-8.383-8.778-12.779-12.956l-0.124,0.013
		c-17.879-17.376-45.349-38.673-68-28.269C611.668,325.377,610.135,360.641,534.597,412.307z"/>
	
		<linearGradient id="SVGID_12_" gradientUnits="userSpaceOnUse" x1="558.2632" y1="918.2212" x2="827.3199" y2="918.2212" gradientTransform="matrix(1 0 0 -1 0 1706)">
		<stop  offset="0" style="stop-color:#9300AB"/>
		<stop  offset="1" style="stop-color:#94EC2F"/>
	</linearGradient>
	<path fill="url(#SVGID_12_)" d="M703.897,645.26c-5.498,3.649-10.898,7.454-16.432,11.05l0.036,0.062
		c-5.063,3.316-10.05,6.747-15.041,10.17l-0.027,0.089c-12.294,8.276-24.562,16.623-36.322,25.651l0.004,0.093
		c-18.931,14.651-35.51,33.532-47.679,51.528l0.022,0.098c-29.875,40.643-49.26,113.934-0.493,125.888l0.022,0.076
		c17.722,4.401,22.059-8.241,28.575-6.938c0.536,1.847-6.521,65.083,44.781,107.638c0.44,0.378,1.236,1.182,1.516,0.204
		c-2.026-7.657-8.178-15.551-5.058-45.403l0.094,0.2c3.48-22.366,12.051-38.131,24.864-56.662l0.125-0.004
		c4.338-6.285,9.356-12.063,14.192-17.961l0.098-0.018c9.078-10.938,19.06-20.757,22.481-24.642l0.084,0.022
		c4.445-4.609,8.938-9.187,13.254-13.903l0.107-0.018c4.16-4.236,8.236-8.543,12.325-12.85l0.107,0.027
		c3.867-4.347,8.152-8.32,11.956-12.716c1-0.65,25.427-25.747,35.562-39.292l0.129-0.018c75.635-93.389,9.704-165.587-44.71-137.129
		l-0.004,0.102c-17.344,8.653-14.125,14.063-44.567,34.567v0.089H703.897z"/>
	
		<linearGradient id="SVGID_13_" gradientUnits="userSpaceOnUse" x1="461.6139" y1="1079.4218" x2="771.4885" y2="1079.4218" gradientTransform="matrix(1 0 0 -1 0 1706)">
		<stop  offset="0" style="stop-color:#1FF626"/>
		<stop  offset="0.4888" style="stop-color:#C80054"/>
		<stop  offset="0.9944" style="stop-color:#75F222"/>
	</linearGradient>
	<path fill="url(#SVGID_13_)" d="M682.171,464.342c-30.107,28.519-55.217,45.362-90.699,69.293l0.013,0.062
		c-11.045,7.423-22.042,14.926-32.918,22.602v0.08c-9.094,6.32-17.912,13.041-26.62,19.881l-0.022,0.111
		c-25.681,19.822-32.637,29.057-37.331,34.238l0.013,0.093c-55.943,62.159-30.313,106.47,0.48,118.666l0.004,0.08
		c16.272,5.868,22.861-2.917,27.642,1.213c2.729,2.133,1.954,5.349,5.992,16.521c9.129,25.064,26.306,41.682,30.606,44.714
		c0.658,1,1.081-0.604,5.111-12.232l0.084,0.147c8.307-21.392,21.13-40.807,36.104-58.097l0.413,0.053
		c0.04-0.289,0.129-0.862,0.173-1.147c0,0,11.522-12.589,22.406-22.299l0.062,0.018c51.447-45.97,131.792-72.969,146.49-145.25
		c9.698-55.01-36.107-93.157-77.001-92.055c-2.178,0.035-4.436-0.147-6.511,0.626C684.936,461.995,683.451,463.168,682.171,464.342z
		"/>
	
		<linearGradient id="SVGID_14_" gradientUnits="userSpaceOnUse" x1="123.3763" y1="500.0533" x2="389.5099" y2="500.0533" gradientTransform="matrix(1 0 0 -1 0 1706)">
		<stop  offset="0" style="stop-color:#DF2391"/>
		<stop  offset="0.0639" style="stop-color:#E350A6"/>
		<stop  offset="0.1338" style="stop-color:#E779B9"/>
		<stop  offset="0.2055" style="stop-color:#EA9BC9"/>
		<stop  offset="0.2783" style="stop-color:#EDB5D5"/>
		<stop  offset="0.3524" style="stop-color:#EFC8DE"/>
		<stop  offset="0.4289" style="stop-color:#F0D3E3"/>
		<stop  offset="0.5112" style="stop-color:#F0D7E5"/>
		<stop  offset="0.5679" style="stop-color:#EFD1E2"/>
		<stop  offset="0.6442" style="stop-color:#EEC0DA"/>
		<stop  offset="0.7316" style="stop-color:#EBA4CD"/>
		<stop  offset="0.8275" style="stop-color:#E77CBB"/>
		<stop  offset="0.9289" style="stop-color:#E34AA3"/>
		<stop  offset="1" style="stop-color:#DF2391"/>
	</linearGradient>
	<path fill="url(#SVGID_14_)" d="M386.378,1430.259c2.338-3.422,3.347-7.645,3.094-11.756
		c-1.172-86.799,6.198-56.615-48.825-110.621l-0.102,0.009c-39.037-39.162-103.958-105.749-103.958-105.749
		c-1.614-1.676-3.316-3.325-4.436-5.387c0,0,89.372-86.214,103.669-103.865c-5.356-17.643-32.489-95.155-39.696-103.647l-0.178,0.08
		l0.173-0.102c-3.956-4.925-6.183-10.987-9.409-16.321c-27.972,64.052-94.317,131.122-130.302,178.594l-0.111-0.004
		c-5.596,7.298-11.223,14.597-16.334,22.25l-0.098,0.009c-1.192,1.831-13.055,19.956-13.979,22.993l0.129,0.28l-0.351,0.124
		c-6.846,13.987,3.078,30.604,11.312,44.181c14.327,22.599,34.564,39.926,56.275,55.688l0.182,0.004
		c20.521,15.608,60.383,36.326,103.265,70.996l-0.022,0.102c7.501,6.25,33.705,30.132,37.06,33.287h0.151
		c10.396,9.658,21.095,19.001,32.291,27.735l0.062-0.018c1,0.862,10.549,8.446,13.668,9.872c3.702-3.369,4.418-5.623,6.485-8.658
		L386.378,1430.259z"/>
	
		<linearGradient id="SVGID_15_" gradientUnits="userSpaceOnUse" x1="1049.951" y1="757.418" x2="1094.2814" y2="757.418" gradientTransform="matrix(1 0 0 -1 0 1706)">
		<stop  offset="0" style="stop-color:#938D3C"/>
		<stop  offset="0.5112" style="stop-color:#E1DC0D"/>
		<stop  offset="0.6921" style="stop-color:#BFB922"/>
		<stop  offset="0.8904" style="stop-color:#9F9935"/>
		<stop  offset="1" style="stop-color:#938D3C"/>
	</linearGradient>
	<path fill="url(#SVGID_15_)" d="M1054,1021.61c-0.856,4.914-3.566,15.919-4.049,20.668c2.713-0.769,11.717-13.24,13.241-15.579
		l0.102-0.018c2.285-3.342,4.605-6.667,6.645-10.165l0.08-0.009c7.111-11.529,14.262-25.93,18.077-38.985l0.102-0.08
		c5.799-18.512,7.173-35.115,5.298-54.288l-0.12,0.311c-0.849-8.663-3.182-17.121-6.067-25.313h-0.089
		c-1.698-4.769-3.827-9.378-6.156-13.868l-0.071,0.013c-1.658-3.316-3.698-6.423-5.765-9.49l-0.049,0.049
		c-4.22-6.284-13.433-16.418-20.188-19.97C1056.73,867.922,1074.235,920.116,1054,1021.61z"/>
	
		<linearGradient id="SVGID_16_" gradientUnits="userSpaceOnUse" x1="997.9429" y1="764.3981" x2="1213.1049" y2="764.3981" gradientTransform="matrix(1 0 0 -1 0 1706)">
		<stop  offset="0" style="stop-color:#B3B3C3"/>
		<stop  offset="0.0789" style="stop-color:#8EABC9"/>
		<stop  offset="0.1668" style="stop-color:#6CA4CE"/>
		<stop  offset="0.2567" style="stop-color:#529ED2"/>
		<stop  offset="0.3484" style="stop-color:#3F9AD5"/>
		<stop  offset="0.4431" style="stop-color:#3498D6"/>
		<stop  offset="0.5449" style="stop-color:#3097D7"/>
		<stop  offset="0.6094" style="stop-color:#3698D6"/>
		<stop  offset="0.6963" style="stop-color:#479CD3"/>
		<stop  offset="0.7959" style="stop-color:#63A2CF"/>
		<stop  offset="0.9041" style="stop-color:#8AAAC9"/>
		<stop  offset="1" style="stop-color:#B3B3C3"/>
	</linearGradient>
	<path fill="url(#SVGID_16_)" d="M1089.616,1123.314c18.148-14.803,36.28-33.826,52.315-56.964l0.102,0.036
		c14.896-20.827,34.505-50.922,45.616-73.463l0.089-0.022c53.912-109.41,14.6-197.458-49.763-234.758l-0.138,0.009
		c-25.684-15.209-53.823-19.711-83.739-16.543l0.049,0.138c-24.78,2.483-47.157,13.656-56.204,20.69
		c0.978,1.582,2.68,2.502,4.098,3.658c33.398,24.45,43.718,61.402,51.772,83.752c24.051,4.295,88.278,102.497-3.876,198.4
		c0.517,7.174,8.068,86.037,8.903,94.304c4.571-0.036,23.632-13.417,30.678-19.259L1089.616,1123.314z"/>
	
		<linearGradient id="SVGID_17_" gradientUnits="userSpaceOnUse" x1="286.8005" y1="1531.2371" x2="307.8845" y2="1531.2371" gradientTransform="matrix(1 0 0 -1 0 1706)">
		<stop  offset="0.05" style="stop-color:#00AB4E"/>
		<stop  offset="0.5" style="stop-color:#BD268F"/>
		<stop  offset="1" style="stop-color:#F26922"/>
	</linearGradient>
	<path fill="url(#SVGID_17_)" d="M297.248,146.961c-8.624,23.748-11.296,49.006-10.223,57.666
		c6.676-0.764,13.312-1.947,19.992-2.671c3.085-12.688-2.588-49.898-8.676-57.057C297.892,145.538,297.488,146.214,297.248,146.961z
		"/>
	
		<linearGradient id="SVGID_18_" gradientUnits="userSpaceOnUse" x1="1070.059" y1="376.4768" x2="1579.2507" y2="376.4768" gradientTransform="matrix(1 0 0 -1 0 1706)">
		<stop  offset="0" style="stop-color:#CBE9F5"/>
		<stop  offset="0.0514" style="stop-color:#B1E2F2"/>
		<stop  offset="0.1664" style="stop-color:#7BD3ED"/>
		<stop  offset="0.2738" style="stop-color:#51C7E9"/>
		<stop  offset="0.3705" style="stop-color:#33BEE6"/>
		<stop  offset="0.4528" style="stop-color:#21B9E5"/>
		<stop  offset="0.5112" style="stop-color:#1AB7E4"/>
		<stop  offset="0.579" style="stop-color:#1EB8E4"/>
		<stop  offset="0.6528" style="stop-color:#2CBCE6"/>
		<stop  offset="0.7295" style="stop-color:#41C2E8"/>
		<stop  offset="0.8081" style="stop-color:#60CBEB"/>
		<stop  offset="0.8883" style="stop-color:#87D6EE"/>
		<stop  offset="0.9687" style="stop-color:#B6E3F3"/>
		<stop  offset="1" style="stop-color:#CBE9F5"/>
	</linearGradient>
	<path fill="url(#SVGID_18_)" d="M1569.83,1236.259c-10.78-43.663-46.293-92.689-55.377-100.153
		c0.657,10.757,35.274,99.995-0.68,190.999l-0.08,0.013c-15.139,37.861-39.593,67.286-71.058,87.939v0.084
		c-27.148,17.579-58.395,28.864-90.571,32.313l0.231,0.107c-131.307,10.935-234.058-83.109-267.72-152.143l-0.071,0.044
		c-11.403-25.2-12.089-34.076-14.445-34.949c0.307,2.445,0.356,4.947,0.853,7.369c-0.12,1,5.416,73.921,12.574,101.442l-0.044,0.196
		c11.111,47.25,34.724,86.201,77.907,115.421l-0.009,0.071c7.943,5.44,16.268,10.321,24.908,14.57l-0.022,0.107
		c148.469,72.845,449.71-28.307,383.71-263.702L1569.83,1236.259z"/>
	
		<linearGradient id="SVGID_19_" gradientUnits="userSpaceOnUse" x1="383.387" y1="265.887" x2="389.1609" y2="265.887" gradientTransform="matrix(1 0 0 -1 0 1706)">
		<stop  offset="0" style="stop-color:#FFF33B"/>
		<stop  offset="0.0645" style="stop-color:#EBE054"/>
		<stop  offset="0.1334" style="stop-color:#DDD267"/>
		<stop  offset="0.2044" style="stop-color:#D4CA72"/>
		<stop  offset="0.28" style="stop-color:#D1C776"/>
		<stop  offset="0.67" style="stop-color:#9FA391"/>
		<stop  offset="0.89" style="stop-color:#6A7FA4"/>
		<stop  offset="1" style="stop-color:#3367B1"/>
	</linearGradient>
	<path fill="url(#SVGID_19_)" d="M388.094,1434.406c-1.422,2.409-3.138,4.636-4.707,6.956c1.467,1.938,3.058,4.356,5.756,4.458
		C388.962,1437.848,389.703,1435.737,388.094,1434.406z"/>
	
		<linearGradient id="SVGID_20_" gradientUnits="userSpaceOnUse" x1="1059.4994" y1="446.4459" x2="1260.089" y2="446.4459" gradientTransform="matrix(1 0 0 -1 0 1706)">
		<stop  offset="0" style="stop-color:#7E8733"/>
		<stop  offset="0.1444" style="stop-color:#A0AB51"/>
		<stop  offset="0.2932" style="stop-color:#BCC969"/>
		<stop  offset="0.4207" style="stop-color:#CDDB79"/>
		<stop  offset="0.5112" style="stop-color:#D3E27E"/>
		<stop  offset="0.6135" style="stop-color:#CFDE7A"/>
		<stop  offset="0.725" style="stop-color:#C3D06E"/>
		<stop  offset="0.8406" style="stop-color:#AFBB5A"/>
		<stop  offset="0.9586" style="stop-color:#939C3E"/>
		<stop  offset="1" style="stop-color:#889032"/>
	</linearGradient>
	<path fill="url(#SVGID_20_)" d="M1114.76,1335.284c2.927,3.332,14.3,18.518,33.255,35.029c2.445,4.27,32.002,25.598,37.069,28.891
		v0.089c5.676,3.627,11.307,7.36,17.206,10.623l0.035,0.089c8.014,4.738,16.294,9.045,24.815,12.792l0.031,0.111
		c4.102,1.813,8.209,3.64,12.423,5.196l0.009,0.084c6.747,2.551,13.517,5.085,20.486,6.983c-0.591-2.089-2.12-1.67-15.028-9.352
		h-0.106c-19.242-12.485-35.715-25.218-51.834-45.816l-0.094-0.005c-6.383-8.378-12.454-17.01-17.726-26.14l-0.102-0.018
		c-8.547-15.037-15.752-30.793-22.49-46.71l-0.089-0.018c-11.294-28.179-15.938-40.242-18.152-54.421l-0.071,0.084
		c-8.05-56.351-18.96-105.424,0.036-167.66c-0.222-0.293-0.671-0.88-0.893-1.178c-4.516,5.605-9.156,11.112-14.014,16.419
		l0.018,0.093c-1,0.906-12.95,14.328-26.655,25.228l-0.004,0.093c-9.728,7.382-15.967,12.453-33.269,21.597
		c-0.296,1.752-0.452-2.342,5.089,56.879c4.308,54.426,23.274,98.906,50.07,130.911L1114.76,1335.284z"/>
	
		<linearGradient id="SVGID_21_" gradientUnits="userSpaceOnUse" x1="56.4103" y1="869.1139" x2="1060.0631" y2="869.1139" gradientTransform="matrix(1 0 0 -1 0 1706)">
		<stop  offset="0" style="stop-color:#DF2391"/>
		<stop  offset="0.0639" style="stop-color:#E350A6"/>
		<stop  offset="0.1338" style="stop-color:#E779B9"/>
		<stop  offset="0.2055" style="stop-color:#EA9BC9"/>
		<stop  offset="0.2783" style="stop-color:#EDB5D5"/>
		<stop  offset="0.3524" style="stop-color:#EFC8DE"/>
		<stop  offset="0.4289" style="stop-color:#F0D3E3"/>
		<stop  offset="0.5112" style="stop-color:#F0D7E5"/>
		<stop  offset="0.5679" style="stop-color:#EFD1E2"/>
		<stop  offset="0.6442" style="stop-color:#EEC0DA"/>
		<stop  offset="0.7316" style="stop-color:#EBA4CD"/>
		<stop  offset="0.8275" style="stop-color:#E77CBB"/>
		<stop  offset="0.9289" style="stop-color:#E34AA3"/>
		<stop  offset="1" style="stop-color:#DF2391"/>
	</linearGradient>
	<path fill="url(#SVGID_21_)" d="M1027.278,798.021l-0.058,0.013c-15.614-23.808-39.553-40.256-67.076-48.857l-0.147,0.04
		c-39.973-15.171-130.23-19.458-149.485-18.823c-10.011,14.489-17.713,25.046-47.012,55.328l0.018,0.12
		c-17.535,18.37-34.749,37.056-52.092,55.617l0.005,0.115c-82.368,86.316-40.571,131.379-39.109,139.587
		c-2.675,0.261-1.77,1.676-9.507-4.463l-0.049,0.031c-34.23-27.087-48.986-64.231-50.168-107.967
		c-41.865,19.049-68.057-21.348-54.395-68.302c0.863-4.912-2.413-6.6-4.729-8.969c-15.041-14.708-26.855-33.336-31.189-54.097
		c-0.325-1.276-0.782-2.773-2.116-3.311c-6.081-1.473-17.686,6.809-38.127-7.552c-16.302-11.274-24.802-30.489-24.153-49.434
		c0.655-21.74,9.156-27.524,5.587-33.007c-29.515-47.548-19.36-62.373-22.357-70.858c-4.852-1.647-11.962-0.582-17.668-13.561
		c-5.319-12.136-2.076-29.175,2.027-41.723c9.631-28.198,28.939-47.713,46.767-64.435c-2.913-82.309-17.625-182.696-85.899-228.188
		c-45.67-30.273-91.907-17.478-101.607-16.512c-6.448-7.953,8.025-72.518,14.179-71.84c2.878,1.621,13.251,28.758,12.659,57.435
		c0.231,2.396-1.058,5.152,0.6,7.25c7.223-0.335,6.457,0.314,7.529-1.085c7.267-9.949,7.75-9.876,7.983-12.347
		c-0.676-33.707-14.211-111.439-20.055-127.719c-1.076,1.222-1.827,2.68-2.511,4.151c-25.181,53.788-39.902,91.642-43.763,151.375
		c-36.469,14.26-71.847,97.476-134.267,113.759c-3.813,0.916-2.942,0.88-30.135,35.993c-3.267,4.289-6.712,8.449-9.89,12.805
		l-0.164,0.035c-16.055,20.286-18.274,21.808-21.561,27.024l-0.124,0.009c-3.649,5.449-7.214,11.254-8.383,17.81l-0.12-0.151
		c-0.181,3.168-2.171,12.021,6.965,21.459c8,8.136,19.607,13.163,31.744,17.072l-0.004,0.071c4.374,1.342,8.805,2.507,13.241,3.609
		l0.262-0.076c14.916,4.087,33.355-13.932,40.643-28.518l-0.031-0.218c1.859-3.634,6.168-15.056,5.298-18.619
		c-2.271-2.227-5.107-3.84-7.209-6.245l-0.076,0.013c-0.022-0.311-0.071-0.929-0.093-1.24c0.142-0.227,0.431-0.684,0.578-0.911
		c1.111-0.009,2.467-0.307,3.271,0.693c6.312,6.594,12.971,2.878,14.263,2.689c1.48-0.191,2.769,2.2,1.213,3.018
		c-2.485,1.191-5.178,1.871-7.734,2.894c-1.028,6.524-3.445,14.504-6.183,19.979l-0.075-0.009c-2.138,4.654-5.16,8.823-8.285,12.85
		l-0.124-0.009c-5.067,6.058-11.387,11.045-18.37,14.73c0.035,0.52,0.049,1.044,0.053,1.573c10.596,0.066,21.295,0.676,31.807-0.88
		c1.329,0.171,19.046-1.955,39.398-7.57l-0.058-0.08c22.221-4.267,71.027-28.391,77.263-29.167
		c10.552-1.815,20.008,10.092,23.161,17.752c8.251,17.636,6.821,35.185,6.578,45.35c-5.825,205.514-70.09,324.177-25.264,442.563
		l0.08,0.005c32.926,94.468,123.331,123.792,223.597,128.897l-0.284,0.071c6.782,0.364,13.57,0.715,20.361,0.742l0.115,0.209
		c75.841-0.352,145.108-11.448,219.499-47.341c1.396-0.693,3.005-1.213,4.542-0.613c0.089,0.324,0.276,0.969,0.365,1.293
		c-0.318,27.442-1.308,2.345,0.236,45.803c6.957,86.688,55.758,157.801,87.743,182.772c18.301,18.845,44.415,40.25,47.754,78.614
		l0.089-0.049c2.17,43.349-22.361,97.244-36.331,213.045l-0.062-0.324c-1.751,14.134-3.48,28.273-4.858,42.452l-0.142-0.062
		c-0.836,10.875-2.862,23.702-2.694,29.753c8.224,2.925,50.114,1.738,57.159,1.271c16.997-0.703,36.771-3.462,36.771-3.462
		s0.792-22.762,5.6-91.571c13.565-153.883,42.791-249.121,44.99-260.671l0.16-0.142
		C1020.72,1118.106,1107.099,921.189,1027.278,798.021z"/>
	
		<linearGradient id="SVGID_22_" gradientUnits="userSpaceOnUse" x1="178.2613" y1="1395.3013" x2="264.907" y2="1395.3013" gradientTransform="matrix(1 0 0 -1 0 1706)">
		<stop  offset="0" style="stop-color:#40DFB5"/>
		<stop  offset="0.16" style="stop-color:#3FDBB2"/>
		<stop  offset="0.3164" style="stop-color:#3BCFA9"/>
		<stop  offset="0.4708" style="stop-color:#36BC9A"/>
		<stop  offset="0.4888" style="stop-color:#35B998"/>
		<stop  offset="1" style="stop-color:#85D5D9"/>
	</linearGradient>
	<path fill="url(#SVGID_22_)" d="M225.59,317.785c-18.048,3.15-34.67-7.745-43.225,14.77c-0.462,1.062-1.098,2.502-2.449,2.538
		c-4.267-2.134-0.516-21.112,13.996-25.242c11.542-3.419,43.592,4.444,60.497-15.019c5.268-5.851,5.793-11.117,10.498-7.143
		C260.16,304.574,236.805,315.57,225.59,317.785z"/>
	
		<linearGradient id="SVGID_23_" gradientUnits="userSpaceOnUse" x1="302.048" y1="395.5027" x2="479.6384" y2="395.5027" gradientTransform="matrix(1 0 0 -1 0 1706)">
		<stop  offset="0" style="stop-color:#DF2391"/>
		<stop  offset="0.0639" style="stop-color:#E350A6"/>
		<stop  offset="0.1338" style="stop-color:#E779B9"/>
		<stop  offset="0.2055" style="stop-color:#EA9BC9"/>
		<stop  offset="0.2783" style="stop-color:#EDB5D5"/>
		<stop  offset="0.3524" style="stop-color:#EFC8DE"/>
		<stop  offset="0.4289" style="stop-color:#F0D3E3"/>
		<stop  offset="0.5112" style="stop-color:#F0D7E5"/>
		<stop  offset="0.5679" style="stop-color:#EFD1E2"/>
		<stop  offset="0.6442" style="stop-color:#EEC0DA"/>
		<stop  offset="0.7316" style="stop-color:#EBA4CD"/>
		<stop  offset="0.8275" style="stop-color:#E77CBB"/>
		<stop  offset="0.9289" style="stop-color:#E34AA3"/>
		<stop  offset="1" style="stop-color:#DF2391"/>
	</linearGradient>
	<path fill="url(#SVGID_23_)" d="M474.482,1066.137c-4.665-0.885-28.378-4.597-29.38-4.725l-0.293,0.182l-0.156-0.324
		c-25.258-6.05-67.569-12.218-104.465-36.807l-0.004-0.08c-13.601-9.045-25.691-20.348-35.638-33.304
		c-0.68-0.734-1.405-1.747-2.498-1.725c0.536,4.723,95.899,208.899,91.099,442.505c0.107,72.644-12.072,166.613-13.192,179.714
		l-0.147,0.058c-0.013,0.898-0.009,1.818-0.013,2.747c2.916,2.434,15.727,7.879,22.979,10.134l0.076,0.111
		c3.68,1.08,7.334,2.289,11.103,3.045l0.053,0.075c9.129,2.27,21.874,3.838,27.744,3.685l0.022,0.2
		c2.292-0.091,14.381,0.437,22.308-1.196l0.04-0.115c0.356-0.107,1.071-0.32,1.431-0.422c0.141-25.821-4.667-72.554,2.027-184.27
		c3.268-58.933,4.669-79.25,4.743-84.183l0.249-0.458c1.246-45.278,10.355-120.108,5.805-243.643
		C478.056,1108.756,475.99,1071.338,474.482,1066.137z"/>
	
		<linearGradient id="SVGID_24_" gradientUnits="userSpaceOnUse" x1="803.1794" y1="94.8367" x2="834.8201" y2="94.8367" gradientTransform="matrix(1 0 0 -1 0 1706)">
		<stop  offset="0" style="stop-color:#09D3EE"/>
		<stop  offset="0.0389" style="stop-color:#0BCCE8"/>
		<stop  offset="0.2306" style="stop-color:#11AED1"/>
		<stop  offset="0.3948" style="stop-color:#169CC2"/>
		<stop  offset="0.5112" style="stop-color:#1795BD"/>
		<stop  offset="0.6301" style="stop-color:#1699C1"/>
		<stop  offset="0.7594" style="stop-color:#13A7CB"/>
		<stop  offset="0.8933" style="stop-color:#0EBCDC"/>
		<stop  offset="1" style="stop-color:#09D3EE"/>
	</linearGradient>
	<path fill="url(#SVGID_24_)" d="M833.488,1611.004c-0.809-0.169-1.587-0.489-2.409-0.453c-3.924-1.152-1.438,1.168-12.73-2.969
		l-0.018-0.093c-1.271-0.373-2.396-1.165-3.667-1.453c-2.773-1.876-6.018-2.805-9.085-3.991c-0.236,0.604-0.476,1.2-0.662,1.858
		l-0.107,0.004c-0.101,0.316-0.415,1.235-0.436,1.551c-3.562,7.125,0.849,10.027,13.139,13.645c1.449,0.284,2.88,0.924,4.4,0.729
		c3.818,0.742,7.778,0.449,11.614-0.044c0.329-2.76,0.689-5.543,1.293-8.245c-0.333-0.125-0.996-0.378-1.324-0.507L833.488,1611.004
		z"/>
	
		<linearGradient id="SVGID_25_" gradientUnits="userSpaceOnUse" x1="377.28" y1="72.1519" x2="466.553" y2="72.1519" gradientTransform="matrix(1 0 0 -1 0 1706)">
		<stop  offset="0" style="stop-color:#51F321"/>
		<stop  offset="1" style="stop-color:#C80054"/>
	</linearGradient>
	<path fill="url(#SVGID_25_)" d="M379.449,1619.134c-1.449,4.685-1.409,9.667-2.169,14.45c20.151,8.883,68.346,16.554,89.273,14.699
		c-0.025-1.213-0.448-11.5-1.431-13.845C436.912,1636.293,415.238,1636.23,379.449,1619.134z"/>
	
		<linearGradient id="SVGID_26_" gradientUnits="userSpaceOnUse" x1="837.8168" y1="83.0069" x2="932.6901" y2="83.0069" gradientTransform="matrix(1 0 0 -1 0 1706)">
		<stop  offset="0" style="stop-color:#37FBF7"/>
		<stop  offset="0.5056" style="stop-color:#EDE71C"/>
		<stop  offset="1" style="stop-color:#2DF520"/>
	</linearGradient>
	<path fill="url(#SVGID_26_)" d="M881.606,1616.796c-7.908-0.253-36.192,0.611-40.243-0.733c-6.891-2.341-3.177,12.659,6.298,13.921
		c4.246,1.2,14.661,1.182,15.663,1.138c0.774,0.429,64.463,1.861,68.431,1.56c0.538-1.545,1.736-11.066,0.124-19.419
		C927.992,1613.316,905.105,1617.008,881.606,1616.796z"/>
	
		<linearGradient id="SVGID_27_" gradientUnits="userSpaceOnUse" x1="673.601" y1="391.0576" x2="879.9309" y2="391.0576" gradientTransform="matrix(1 0 0 -1 0 1706)">
		<stop  offset="0" style="stop-color:#DF2391"/>
		<stop  offset="0.0639" style="stop-color:#E350A6"/>
		<stop  offset="0.1338" style="stop-color:#E779B9"/>
		<stop  offset="0.2055" style="stop-color:#EA9BC9"/>
		<stop  offset="0.2783" style="stop-color:#EDB5D5"/>
		<stop  offset="0.3524" style="stop-color:#EFC8DE"/>
		<stop  offset="0.4289" style="stop-color:#F0D3E3"/>
		<stop  offset="0.5112" style="stop-color:#F0D7E5"/>
		<stop  offset="0.5679" style="stop-color:#EFD1E2"/>
		<stop  offset="0.6442" style="stop-color:#EEC0DA"/>
		<stop  offset="0.7316" style="stop-color:#EBA4CD"/>
		<stop  offset="0.8275" style="stop-color:#E77CBB"/>
		<stop  offset="0.9289" style="stop-color:#E34AA3"/>
		<stop  offset="1" style="stop-color:#DF2391"/>
	</linearGradient>
	<path fill="url(#SVGID_27_)" d="M862.134,1427.494l0.231,0.2c15.095-71.266,34.063-106.791-8.365-155.179l0.018-0.076
		c-4.694-5.48-9.974-10.405-14.93-15.628l-0.009-0.115c-11.521-11.503-23.273-22.837-33.567-35.482l-0.062,0.004
		c-50.164-62.292-62.115-125.558-62.115-198.422c-1.871,0.613-3.694,1.351-5.463,2.213c-24.025,11.339-64.271,24.988-64.271,24.988
		c1.525,7.218,2.782,14.521,4.974,21.579l-0.053,0.218c19.145,67.82,67.914,120.729,104.874,166.478l-0.031,0.045
		c9.427,11.698,18.526,23.655,27.744,35.522l-0.027,0.049c36.703,47.525,33.862,54.087,27.299,82.877l0.04,0.409l-0.204-0.027
		c-15.307,56.075-30.41,154.587-33.496,237.194c7.957,8.058,20.17,12.392,30.571,12.748c0,0,8.926-95.047,27.064-179.381
		L862.134,1427.494z"/>
	<path d="M1458.796,1085.769c-136.093-70.584-203.672,109.011-130.635,153.259c11.157,6.543,27.455,6.191,27.54,0.614
		c-3.423-1.049-7.103-1.689-10.023-3.885c-8.142-5.454-14.156-19.818-10.236-32.424c4.657-15.684,22.915-24.437,38.758-21.432
		c23.442,4.072,48.982,36.551,31.184,84.757c-34.626,92.818-162.763,105.228-166.869-62.422
		c-5.672-212.636,184.495-267.162,187.639-464.008c-5.216-79.108-28.488-146.167-97.642-194.377
		c-99.036-69.009-208.108-38.395-302.691,34.976c-74.419,57.148-69.781,134.296-77.565,160.237c0,0-33.982-9.13-87.086-12.179
		c-15.486-0.885-30.993-1.4-46.483-2.227c-1.918-0.977-0.614-1.332,3.596-9.725c39.504-75.942-17.855-133.671-64.947-112.541
		c-1.862,0.693-3.485,2.151-5.578,2.053c66.547-92.834-6.78-150.812-54.132-149.05c-1.027-0.009-2.813,0.196-2.96-1.205
		c27.244-31.696,41.948-58.752,18.597-93.455c-7.071-10.607-26.829-30.912-50.328-45.723c-20.942-12.367-34.06-8.25-38.869-7.676
		c-0.818-1.685,0.116-3.458,0.36-5.165c19.668-91.434-51.135-166.573-149.543-170.114c-93.447-2.796-135.253,48.294-139.645,50.195
		c-3.128-44.199-9.958-85.106-20.21-125.946c-0.716-2.694-1.419-6.37-4.058-4.863c-0.791,0.787-1.302,1.787-1.827,2.756
		c-29.021,61.174-37.434,93.166-37.434,93.166c-2.262,0.378-4.565,1.053-6.863,0.862c-1.818-1.631-2.125-4.24-2.938-6.427
		c-11.718-32.785-37.496-85.08-43.927-85.543c-1.622,1.182-1.707,3.258-2.311,5c-17.431,51.51-15.239,92.079-16.53,99.296
		c-18.094,4.429-14.257,2.958-20.357-8.454c-8.552-17.173-29.235-10.814-30.673-10.698c-0.175-18.471-6.441-32.703-24.802-31.46
		c-9.935,0.909-12.835-6.239-15.517-8.663c-19.279-18.031-44.955,10.895-36.46,12.183c2.152-0.895,8.898-7.465,16.303-3.165
		c11.575,6.365,0.887,20.807,28.589,26.326c4.079,38.63-0.163,31.804,31.451,35.233c-0.413,4.934-1.751,9.934-0.618,14.868
		c2.757,12.739,11.393,14.99,17.779,18.286c-36.216,47.979-27.863,64.386-39.34,82.472c-7.757,12.62-23.201,23.196-39.874,25.566
		c-12.097,1.735-17.363-2.722-22.793-3.347c-3.806,4.204,16.402,17.633,35.296,20.17c7.583,1.147,15.245,0.511,22.868,0.578
		c-1.934,7.907-59.443,69.511-63.991,89.117c-0.2,1.311-1.258,2.187-2.107,3.111v5.169c2.289,1.996,2.271,5.178,3.431,7.783
		c8.958,22.804,72.973,61.323,200.853,4.645c4.631-1.983,18.368-9.168,22.97-7.076c28.65,11.678,25.54,49.468,18.299,129.884
		c-12.06,138.092-46.918,220.272-34.242,317.417c6.894,54.275,26.983,78.09,20.441,89.468
		c-39.188,85.257-127.473,162.058-157.397,217.783c-6.51,12.667-8.22,18.031-1.52,35.02
		c29.941,70.381,114.712,96.099,178.767,154.126c52.861,46.602,19.56,19.855,85.308,71.969
		c6.694,4.171-14.536,184.416-14.556,185.417c3.206,2.646,38.117,14.421,89.993,16.899c11.05,0,6.867,3.701,5.174-47.243
		c-4.434-104.72,9.813-241.271,14.388-377.66c2.738-90.695-3.729-161.064-3.729-161.064s32.378,2.152,44.319,2.493
		c100.712-1.611,133.08-17.095,146.321-18.935c24.44,132.766,179.081,235.513,167.98,289.268
		c-0.203,1.019-39.703,174.434-36.305,257.137c0.262,4.987-2.685,9.672-1.551,14.681c2.035,12.949,32.572,8.948,36.754,15.237
		c5.324,10.632,11.29,7.254,94.806,9.872c1.569,0.022,3.063-0.569,4.56-0.987c2.466-29.141-2.446-190.52,58.693-405.796
		c0.001-0.004,51.87-173.082,51.87-173.083c1.818,11.955,2.085,21.98,7.863,79.57c19.139,192.228,17.472,232.81,41.745,280.632
		c108.466,213.388,539.203,94.669,481.396-166.402C1560.545,1175.513,1510.008,1112.328,1458.796,1085.769z M1333.979,1100.997
		c40.093-41.253,100.445-32.47,146.712,2.862l-0.005,0.04c4.866,3.508,25.85,20.828,27.7,26.548
		c9.556,28.86,15.672,58.964,17.139,89.353l0.062-0.329c7.551,225.833-197.185,239.215-239.727,221.868
		c-84.481-35.937-107.816-78.603-140.649-162.424l0.044-0.169c-11.279-26.767-32.503-168.853,2.267-213.339l-0.018-0.08
		c9.636-13.188,18.606-26.846,27.148-40.758l0.004-0.102c48.801-79.371,63.091-163.698,7.485-233.247l0.013-0.053
		c-21.185-25.792-47.551-45.008-81.899-51.443l-0.026-0.036c-24.647-4.973-52.667-3.971-75.93,4.978l-0.173-0.044
		c-9.75,3.885-17.589,7.244-29.708,15.161c-0.462,0.564-1.169,0.218-1.533-0.173c-3.925-1.8-7.667-3.965-11.587-5.774v-0.08
		c-9.474-4.528-14.278-6.076-22.873-9.534c8.338-17.117,21.995-37.579,38.033-54.853l-0.018-0.12
		c12.746-12.911,25.823-26.125,45.292-39.923l0.022-0.098c4.085-2.88,8.169-5.778,12.41-8.436l-0.018-0.071
		c29.973-18.956,64.14-34.199,94.491-39.451l-0.049-0.067c4.191-0.751,8.401-1.449,12.636-1.925
		c48.754-6.671,95.792,6.854,128.004,45.376c56.597,69.633,41.38,163.065,19.028,249.825
		c-51.482,196.681-34.096,146.069-63.182,175.856l-0.08-0.009c-26.539,27.104-40.618,64.47-49.274,101.544l-0.062-0.147
		c-11.373,50.15-15.757,95.124,13.983,136.565l-0.004,0.142c40.477,56.844,113.345,86.298,180.145,64.466l-0.084-0.089
		c86.818-28.209,128.193-139.857,50.074-230.188c-50.34-57.35-101.4-38.122-109.687-36.647
		C1330.805,1103.979,1332.507,1102.482,1333.979,1100.997z M1237.497,1153.374l-0.111-0.32c-0.302,3.245-0.587,6.507-1.196,9.721
		c0.084,0.982,0.125,2.12-0.324,3.045c0,0-0.929,11.861-0.902,22.13l-0.391-0.027c0.044,4.467,0.022,8.938,0.013,13.414l0.315-0.258
		c0.111,1.702,0.089,3.418-0.022,5.134c0.539,3.55-0.273,15.6,4.689,42.092c0.051,0.24,2.908,12.717,2.876,12.961
		c0.693,0.116,0.831,0.529,0.422,1.24c2.333,6.287,4.188,15.104,14.108,33.527l0.106,0.018
		c6.609,11.743,15.481,22.344,26.517,30.162l0.08-0.022c13.542,9.639,30.405,13.862,49.608,10.236l-0.062-0.053
		c17.079-2.975,30.645-10.791,43.256-21.659l-0.018-0.084c7.418-6.343,13.903-13.721,19.566-21.659l-0.005-0.084
		c19.941-28.175,28.104-65.098,7.543-95.837h-0.076c-15.986-21.076-40.309-25.339-59.684-11.645l0.036,0.08
		c-14.547,11.069-17.175,30.483-8.498,44.363l-0.107,0.084c2.338,3.689,5.294,6.943,8.672,9.712c-0.307,0.142-0.6,0.298-0.871,0.471
		c-1.491-0.531-6.268,0.292-14.068-4.867l-0.076,0.027c-8.93-5.526-16.56-17.322-19.935-25.326l-0.071,0.044
		c-5.725-13.495-6.529-25.412-6.307-26.873c-3.768-28.314,14.958-65.68,22.473-70.556c6.589-4.534,38.742-14.519,72.871,1.645
		c58.447,28.376,126.141,142.756,35.989,228.637l-0.058-0.036c-26.336,23.965-64.681,38.464-108.603,32.491l-0.062-0.067
		c-22.834-2.723-50.263-13.41-71.782-28.802l-0.04-0.098c-9.763-6.568-18.634-14.802-26.726-23.108l0.018-0.12
		c-2.671-2.787-5.16-5.743-7.596-8.734l0.018-0.075c-12.175-14.858-21.919-32.581-26.068-51.817
		c-9.612-55.042,14.464-161.307,68.742-201.333c1.178-0.72,2.347-1.458,3.587-2.084
		C1261.859,1067.992,1244.24,1102.597,1237.497,1153.374z M1039.039,575.487v-0.08c21.08-15.169,49.443-30.648,66.751-38.611
		l0.013-0.138c19.599-9.131,56.143-23.874,74.134-24.21l-0.231-0.102c72.882-11.617,155.367,25.12,199.547,88.477l0.08-0.035
		c53.26,75.968,61.499,183.925,0.902,284.205l0.018,0.093c-15.724,26.905-33.488,49.425-65.391,94.629l-0.107-0.04
		c-19.479,27.927-40.714,61.995-40.714,61.995c0.025-4.259,2.164-10.245,19.295-76.152l0.08,0.173
		c3.462-14.143,7.369-28.211,11.005-42.323l0.08-0.053c10.173-39.876,23.377-86.235,26.646-130.409l0.085,0.387
		c4.078-61.972-7.098-123.954-53.893-165.593l0.018-0.089c-62.946-54.769-152.767-35.834-222.993,8.503l-0.102-0.018
		c-8.393,5.538-22.362,14.64-38.051,28.775l-0.102,0.013c-14.684,13.314-23.74,23.389-36.318,38.34l-0.093,0.004
		c-5.036,6.728-15.369,20.235-24.095,38.149c-0.244,1.742-2.885,2.053-3.085,0.178C961.432,666.477,977.686,619.06,1039.039,575.487
		z M748.464,610.605l0.004-0.102c54.413-28.458,120.344,43.74,44.71,137.129l-0.129,0.018
		c-10.135,13.545-34.562,38.641-35.562,39.292c-3.805,4.396-8.089,8.37-11.956,12.716l-0.107-0.027
		c-4.089,4.307-8.165,8.614-12.325,12.85l-0.107,0.018c-4.316,4.716-8.809,9.294-13.254,13.903l-0.084-0.022
		c-3.421,3.885-13.404,13.704-22.481,24.642l-0.098,0.018c-4.836,5.898-9.854,11.676-14.192,17.961l-0.125,0.004
		c-12.813,18.531-21.384,34.295-24.864,56.662l-0.094-0.2c-3.12,29.852,3.032,37.745,5.058,45.403
		c-0.28,0.978-1.075,0.173-1.516-0.204c-51.301-42.556-44.245-105.792-44.781-107.638c-6.516-1.303-10.853,11.34-28.575,6.938
		l-0.022-0.076c-48.767-11.954-29.381-85.245,0.493-125.888l-0.022-0.098c12.168-17.996,28.748-36.877,47.679-51.528l-0.004-0.093
		c11.761-9.027,24.028-17.375,36.322-25.651l0.027-0.089c4.991-3.422,9.978-6.854,15.041-10.17l-0.036-0.062
		c5.534-3.596,10.934-7.4,16.432-11.05v-0.089C734.339,624.668,731.121,619.258,748.464,610.605z M693.176,461.035
		c40.894-1.102,86.699,37.044,77.001,92.055c-14.698,72.281-95.043,99.279-146.49,145.25l-0.062-0.018
		c-10.884,9.711-22.406,22.299-22.406,22.299c-0.044,0.284-0.133,0.858-0.173,1.147l-0.413-0.053
		c-14.974,17.29-27.797,36.705-36.104,58.097l-0.084-0.147c-4.03,11.628-4.454,13.232-5.111,12.232
		c-4.3-3.032-21.477-19.65-30.606-44.714c-4.038-11.172-3.262-14.388-5.992-16.521c-4.781-4.13-11.369,4.654-27.642-1.213
		l-0.004-0.08c-30.793-12.196-56.423-56.506-0.48-118.666l-0.013-0.093c4.695-5.181,11.65-14.416,37.331-34.238l0.022-0.111
		c8.707-6.84,17.526-13.561,26.62-19.881v-0.08c10.876-7.676,21.873-15.179,32.918-22.602l-0.013-0.062
		c35.482-23.932,60.592-40.775,90.699-69.293c1.28-1.173,2.765-2.347,4.494-2.68C688.74,460.888,690.998,461.07,693.176,461.035z
		 M685.883,342.96l0.124-0.013c4.396,4.178,8.827,8.352,12.779,12.956l0.102,0.013c21.622,23.578,17.757,42.928,17.757,45.839
		l-0.12-0.267c-5.674,55.673-115.867,120.104-163.455,154.126l-0.218-0.009c-14.588,11.075-33.836,25.243-46.479,37.029
		l-0.036-0.022c-3.836,3.8-7.556,7.752-11.485,11.441c-0.613,1.014-1.538,1.769-2.351,2.609
		c-16.121,15.934-22.119,29.855-25.819,35.358c-9.896-11.974-16.24-29.798-16.121-30.811c-6.644-16.422-5.077-39.937-5.116-41.172
		c-0.365-0.031-1.089-0.084-1.449-0.116l0.342-0.147c-3.142-0.187-6.427-0.253-9.325-1.645l0.005-0.138
		c-12.694-5.763-14.884-34.651-1.845-59.208l-0.044-0.138c3.16-6.383,6.707-12.592,10.783-18.437l-0.004-0.075
		c2.147-3.014,4.24-6.081,6.68-8.863l-0.022-0.076c8.463-10.532,20.863-22.555,28.855-28.784l-0.018-0.075
		c4.24-3.471,8.494-6.943,12.93-10.17v-0.08c4.449-3.249,8.841-6.587,13.41-9.667l0.004-0.076c4.271-2.974,8.503-6.005,12.845-8.876
		l-0.013-0.08c5.391-3.596,10.658-7.383,16.037-11.001l-0.018-0.08c75.538-51.666,77.071-86.93,83.286-97.615
		C640.534,304.287,668.004,325.584,685.883,342.96z M377.751,156.397l-0.013-0.084c24.077-11.132,51.36-17.048,69.022-17.775
		c22.18-3.968,91.399-0.555,136.405,46.181l0.076-0.053c8.543,8.934,16.103,18.913,21.739,29.94l0.124,0.027
		c35.499,66.649,5.5,140.354-61.617,186.719l-0.004,0.071c-9.969,7.014-19.921,14.068-30.033,20.873v0.08
		c-20.531,14.208-37.545,27.344-37.545,27.344c-6.466-68.312-11.253-190.946-101.202-235.371l-0.022-0.093
		c-3.26-1.393-11.524-5.406-20.93-7.854v-0.067c-4.054-1.005-8.107-2.053-12.241-2.658l0.058-0.044
		c-15.411-2.27-14.294-0.64-17.006-2.551C327.37,193.986,347.435,170.444,377.751,156.397z M215.029,65.538
		c3.614,0.022,28.208,46.64,41.136,84.926c-4.789,2.583-1.77,0.966-15.375,4.245c-1.889-1.075-2.191-3.369-2.667-5.276
		c-0.457-1.001-9.183-25.692-18.326-36.749c-4.465,0.323-11.504,25.248-4.929,52.559c-4.987-1.094-9.979-2.165-14.948-3.32
		C197.45,154.989,203.663,90.613,215.029,65.538z M235.804,155.997c-5.64,2.058-11.196,4.333-16.797,6.489
		c-4.034-7.17-4.221-24.148-1.756-36.02c0.569-2.24,1.147-4.578,2.476-6.503C226.381,128.376,233.331,145.384,235.804,155.997z
		 M151.096,173.562c1.747-0.649,3.676-0.791,5.343-1.636c3.527-4.072-8.834-2.101-13.179-2.427
		c-20.582-0.07-27.843,1.804-27.011-26.5c0.262-4.734,2.222-9.187,2.24-13.943c-0.351-0.782-1.485-1.187-2.294-0.858
		c-1.084,1.836-1.698,3.907-2.649,5.809c-11.644,2.234-17.417-7.096-21.437-17.757c-3.995-10.295-14.659-8.969-16.73-9.032
		c-0.076-0.587,0.004-1.222,0.578-1.533c4.96-3.693,11.57-5.116,17.574-3.538c13.108,3.915,9.674,14.642,24.97,13.534
		c29.979-1.465,19.036,35.406,22.242,42.154c0.929,1.174,2.698,0.107,2.667-1.196c0.111-2.507,0.049-5.027,0.009-7.534
		c4.134-3.027,9.561-4.285,14.579-3.142c22.355,4.063,12.273,29.812,19.961,28.406c0.044-0.964,0.093-1.925,0.138-2.885l0.089,0.365
		c-0.111-1.387,0.236-2.756,0.156-4.138c2.245,0.129,4.445,0.907,6.707,0.685c3.086-0.199,15.23-5.5,23.539-0.773
		c-5.475,4.026-23.86,13.542-40.829,32.126c-1.431,1.614-3.258,3.312-5.583,3.147l-0.013-0.098
		C144.063,198.982,142.974,173.603,151.096,173.562z M72.215,319.279l0.307,0.009c0.147-0.089,0.431-0.276,0.573-0.369
		c2.519-0.115,14.711,0.674,28.837-7.236c44.335-26.22,16.948-51.205,64.653-105.549l-0.009-0.08
		c13.483-15.457,29.772-27.469,46.176-36.905l0.089,0.022c10.134-6.018,21.357-10.196,32.958-12.272
		c6.987-1.498,13.934-3.729,21.175-3.293c-0.671,4.369-1.773,8.654-2.614,12.987c-13.086,66.456,8.942,27.227-30.873,65.853
		l-0.076,0.018c-33.952,36.383-62.92,80.8-103.607,92.664C97.275,335.313,71.099,322.301,72.215,319.279z M379.907,1438.993
		c-3.119-1.426-12.667-9.01-13.668-9.872l-0.062,0.018c-11.196-8.734-21.895-18.077-32.291-27.735h-0.151
		c-3.355-3.155-29.56-27.037-37.06-33.287l0.022-0.102c-42.881-34.67-82.744-55.388-103.265-70.996l-0.182-0.004
		c-21.711-15.762-41.948-33.089-56.275-55.688c-8.234-13.577-18.158-30.194-11.312-44.181l0.351-0.124l-0.129-0.28
		c0.923-3.037,12.787-21.162,13.979-22.993l0.098-0.009c5.112-7.654,10.739-14.952,16.334-22.25l0.111,0.004
		c35.985-47.472,102.33-114.542,130.302-178.594c3.227,5.334,5.454,11.396,9.409,16.321l-0.173,0.102l0.178-0.08
		c7.207,8.492,34.34,86.004,39.696,103.647c-14.297,17.65-103.669,103.865-103.669,103.865c1.12,2.062,2.822,3.711,4.436,5.387
		c0,0,64.921,66.587,103.958,105.749l0.102-0.009c55.023,54.005,47.653,23.822,48.825,110.621c0.253,4.111-0.756,8.334-3.094,11.756
		l0.013,0.076C384.325,1433.37,383.609,1435.624,379.907,1438.993z M293.345,974.398c0.253,0.889,0.724,1.924,0.062,2.773
		C293.208,976.331,292.101,974.869,293.345,974.398z M293.75,977.553l0.115-0.582c2.053,1.374,3.409,3.627,4.04,5.992
		C295.692,981.945,294.714,979.62,293.75,977.553z M301.688,988.341c0.127,0.12,0.19,0.18,0.19,0.18
		S301.815,988.461,301.688,988.341z M335.988,1098.681c2.697-3.683,40.71,119.026,50.345,244.385
		c-7.33,2.513-148.104-144.942-149.05-145.943C269.778,1165.781,293.023,1143.36,335.988,1098.681z M383.387,1441.362
		c1.569-2.32,3.285-4.547,4.707-6.956c1.609,1.332,0.868,3.442,1.049,11.414C386.445,1445.718,384.854,1443.3,383.387,1441.362z
		 M377.28,1633.583c0.76-4.782,0.72-9.765,2.169-14.45c35.789,17.097,57.463,17.159,85.672,15.303
		c0.984,2.345,1.406,12.633,1.431,13.845C445.626,1650.137,397.43,1642.466,377.28,1633.583z M472.571,1360.983l-0.249,0.458
		c-0.073,4.933-1.475,25.251-4.743,84.183c-6.694,111.716-1.886,158.449-2.027,184.27c-0.36,0.102-1.076,0.316-1.431,0.422
		l-0.04,0.115c-7.927,1.632-20.016,1.105-22.308,1.196l-0.022-0.2c-5.87,0.153-18.615-1.415-27.744-3.685l-0.053-0.075
		c-3.769-0.756-7.423-1.965-11.103-3.045l-0.076-0.111c-7.252-2.255-20.063-7.7-22.979-10.134c0.004-0.929,0-1.849,0.013-2.747
		l0.147-0.058c1.12-13.101,13.299-107.071,13.192-179.714c4.8-233.605-90.563-437.782-91.099-442.505
		c1.093-0.022,1.818,0.991,2.498,1.725c9.947,12.956,22.037,24.259,35.638,33.304l0.004,0.08
		c36.896,24.589,79.207,30.757,104.465,36.807l0.156,0.324l0.293-0.182c1.002,0.127,24.715,3.84,29.38,4.725
		c1.508,5.201,3.574,42.619,3.894,51.203C482.925,1240.875,473.816,1315.705,472.571,1360.983z M833.528,1619.787
		c-3.836,0.493-7.796,0.787-11.614,0.044c-1.52,0.196-2.951-0.444-4.4-0.729c-12.29-3.618-16.701-6.521-13.139-13.645
		c0.02-0.316,0.335-1.236,0.436-1.551l0.107-0.004c0.187-0.658,0.427-1.253,0.662-1.858c3.067,1.187,6.312,2.116,9.085,3.991
		c1.271,0.289,2.396,1.08,3.667,1.453l0.018,0.093c11.291,4.137,8.806,1.817,12.73,2.969c0.822-0.036,1.6,0.284,2.409,0.453
		l0.009,0.031c0.329,0.129,0.991,0.382,1.324,0.507C834.217,1614.244,833.857,1617.027,833.528,1619.787z M835.292,1607.088
		c-10.401-0.356-22.614-4.69-30.571-12.748c3.085-82.607,18.189-181.118,33.496-237.194l0.204,0.027l-0.04-0.409
		c6.562-28.79,9.404-35.352-27.299-82.877l0.027-0.049c-9.218-11.867-18.317-23.824-27.744-35.522l0.031-0.045
		c-36.959-45.748-85.728-98.658-104.874-166.478l0.053-0.218c-2.191-7.058-3.449-14.361-4.974-21.579
		c0,0,40.246-13.649,64.271-24.988c1.769-0.862,3.591-1.6,5.463-2.213c0,72.864,11.951,136.13,62.115,198.422l0.062-0.004
		c10.294,12.645,22.046,23.979,33.567,35.482l0.009,0.115c4.956,5.223,10.236,10.147,14.93,15.628l-0.018,0.076
		c42.428,48.388,23.46,83.913,8.365,155.179l-0.231-0.2l0.222,0.213C844.219,1512.042,835.292,1607.088,835.292,1607.088z
		 M931.757,1632.681c-3.969,0.301-67.657-1.131-68.431-1.56c-1.002,0.045-11.417,0.062-15.663-1.138
		c-9.476-1.262-13.189-16.262-6.298-13.921c4.051,1.345,32.335,0.48,40.243,0.733c23.499,0.213,46.385-3.479,50.274-3.534
		C933.493,1621.615,932.295,1631.136,931.757,1632.681z M983.64,1256.785l-0.16,0.142c-2.199,11.549-31.425,106.788-44.99,260.671
		c-4.809,68.808-5.6,91.571-5.6,91.571s-19.775,2.759-36.771,3.462c-7.045,0.467-48.936,1.654-57.159-1.271
		c-0.168-6.051,1.858-18.879,2.694-29.753l0.142,0.062c1.378-14.179,3.107-28.318,4.858-42.452l0.062,0.324
		c13.971-115.802,38.501-169.696,36.331-213.045l-0.089,0.049c-3.339-38.365-29.454-59.769-47.754-78.614
		c-31.985-24.971-80.786-96.084-87.743-182.772c-1.543-43.458-0.554-18.361-0.236-45.803c-0.089-0.324-0.276-0.969-0.365-1.293
		c-1.538-0.6-3.147-0.08-4.542,0.613c-74.391,35.893-143.658,46.989-219.499,47.341l-0.115-0.209
		c-6.792-0.027-13.579-0.378-20.361-0.742l0.284-0.071c-100.266-5.105-190.671-34.429-223.597-128.897l-0.08-0.005
		c-44.826-118.386,19.439-237.049,25.264-442.563c0.242-10.165,1.672-27.713-6.578-45.35c-3.153-7.66-12.609-19.568-23.161-17.752
		c-6.236,0.775-55.042,24.899-77.263,29.167l0.058,0.08c-20.353,5.614-38.069,7.741-39.398,7.57
		c-10.512,1.556-21.21,0.947-31.807,0.88c-0.004-0.529-0.018-1.053-0.053-1.573c6.983-3.685,13.303-8.672,18.37-14.73l0.124,0.009
		c3.125-4.027,6.147-8.196,8.285-12.85l0.075,0.009c2.738-5.476,5.155-13.455,6.183-19.979c2.556-1.022,5.249-1.702,7.734-2.894
		c1.556-0.818,0.267-3.209-1.213-3.018c-1.292,0.188-7.951,3.905-14.263-2.689c-0.804-1-2.16-0.702-3.271-0.693
		c-0.147,0.227-0.436,0.685-0.578,0.911c0.022,0.311,0.071,0.929,0.093,1.24l0.076-0.013c2.102,2.405,4.938,4.018,7.209,6.245
		c0.87,3.563-3.439,14.985-5.298,18.619l0.031,0.218c-7.288,14.585-25.726,32.604-40.643,28.518l-0.262,0.076
		c-4.436-1.103-8.867-2.267-13.241-3.609l0.004-0.071c-12.137-3.91-23.745-8.936-31.744-17.072
		c-9.136-9.438-7.146-18.291-6.965-21.459l0.12,0.151c1.169-6.556,4.734-12.361,8.383-17.81l0.124-0.009
		c3.288-5.216,5.507-6.738,21.561-27.024l0.164-0.035c3.178-4.356,6.623-8.516,9.89-12.805
		c27.193-35.113,26.322-35.078,30.135-35.993c62.419-16.282,97.798-99.498,134.267-113.759
		c3.861-59.732,18.582-97.587,43.763-151.375c0.684-1.471,1.436-2.929,2.511-4.151c5.844,16.28,19.379,94.013,20.055,127.719
		c-0.233,2.471-0.716,2.398-7.983,12.347c-1.072,1.399-0.307,0.75-7.529,1.085c-1.658-2.098-0.369-4.854-0.6-7.25
		c0.592-28.677-9.78-55.814-12.659-57.435c-6.154-0.677-20.627,63.887-14.179,71.84c9.699-0.966,55.937-13.761,101.607,16.512
		c68.273,45.492,82.986,145.88,85.899,228.188c-17.828,16.723-37.136,36.237-46.767,64.435c-4.103,12.548-7.346,29.587-2.027,41.723
		c5.706,12.979,12.816,11.914,17.668,13.561c2.997,8.485-7.158,23.31,22.357,70.858c3.569,5.483-4.932,11.266-5.587,33.007
		c-0.649,18.946,7.851,38.16,24.153,49.434c20.441,14.361,32.046,6.079,38.127,7.552c1.333,0.538,1.791,2.036,2.116,3.311
		c4.334,20.761,16.148,39.389,31.189,54.097c2.316,2.37,5.593,4.058,4.729,8.969c-13.662,46.954,12.53,87.352,54.395,68.302
		c1.182,43.736,15.938,80.88,50.168,107.967l0.049-0.031c7.737,6.138,6.833,4.723,9.507,4.463
		c-1.461-8.208-43.259-53.271,39.109-139.587l-0.005-0.115c17.343-18.561,34.558-37.247,52.092-55.617l-0.018-0.12
		c29.299-30.282,37-40.84,47.012-55.328c19.255-0.635,109.512,3.653,149.485,18.823l0.147-0.04
		c27.522,8.601,51.462,25.049,67.076,48.857l0.058-0.013C1107.099,921.189,1020.72,1118.106,983.64,1256.785z M307.017,201.955
		c-6.68,0.725-13.316,1.907-19.992,2.671c-1.073-8.66,1.599-33.918,10.223-57.666c0.24-0.747,0.644-1.422,1.093-2.063
		C304.43,152.057,310.103,189.267,307.017,201.955z M1054.991,854.887c6.755,3.552,15.968,13.686,20.188,19.97l0.049-0.049
		c2.067,3.067,4.107,6.174,5.765,9.49l0.071-0.013c2.329,4.489,4.458,9.098,6.156,13.868h0.089
		c2.885,8.192,5.218,16.65,6.067,25.313l0.12-0.311c1.875,19.173,0.501,35.776-5.298,54.288l-0.102,0.08
		c-3.814,13.055-10.965,27.456-18.077,38.985l-0.08,0.009c-2.04,3.498-4.36,6.823-6.645,10.165l-0.102,0.018
		c-1.524,2.339-10.528,14.81-13.241,15.579c0.484-4.749,3.194-15.754,4.049-20.668
		C1074.235,920.116,1056.73,867.922,1054.991,854.887z M1049.938,1048.247c92.154-95.903,27.927-194.105,3.876-198.4
		c-8.054-22.351-18.375-59.302-51.772-83.752c-1.418-1.156-3.12-2.076-4.098-3.658c9.046-7.034,31.423-18.207,56.204-20.69
		l-0.049-0.138c29.916-3.168,58.055,1.334,83.739,16.543l0.138-0.009c64.363,37.3,103.675,125.348,49.763,234.758l-0.089,0.022
		c-11.111,22.541-30.72,52.636-45.616,73.463l-0.102-0.036c-16.035,23.137-34.167,42.16-52.315,56.964l-0.098-0.022
		c-7.046,5.842-26.107,19.223-30.678,19.259C1058.005,1134.283,1050.455,1055.421,1049.938,1048.247z M1059.614,1147.369
		c17.302-9.144,23.541-14.215,33.269-21.597l0.004-0.093c13.705-10.901,25.655-24.322,26.655-25.228l-0.018-0.093
		c4.858-5.307,9.498-10.814,14.014-16.419c0.222,0.298,0.671,0.885,0.893,1.178c-18.996,62.236-8.086,111.309-0.036,167.66
		l0.071-0.084c2.214,14.179,6.858,26.243,18.152,54.421l0.089,0.018c6.738,15.917,13.943,31.673,22.49,46.71l0.102,0.018
		c5.271,9.13,11.343,17.761,17.726,26.14l0.094,0.005c16.12,20.598,32.593,33.332,51.834,45.816h0.106
		c12.908,7.682,14.437,7.262,15.028,9.352c-6.969-1.898-13.739-4.431-20.486-6.983l-0.009-0.084
		c-4.214-1.556-8.321-3.382-12.423-5.196l-0.031-0.111c-8.521-3.747-16.801-8.054-24.815-12.792l-0.035-0.089
		c-5.898-3.262-11.53-6.996-17.206-10.623v-0.089c-5.067-3.293-34.624-24.621-37.069-28.891
		c-18.955-16.511-30.328-31.698-33.255-35.029l0.013-0.125c-26.796-32.005-45.762-76.485-50.07-130.911
		C1059.162,1145.027,1059.318,1149.121,1059.614,1147.369z M1186.227,1499.69l0.022-0.107c-8.64-4.249-16.966-9.13-24.908-14.57
		l0.009-0.071c-43.183-29.22-66.797-68.171-77.907-115.421l0.044-0.196c-7.158-27.521-12.694-100.442-12.574-101.442
		c-0.498-2.422-0.547-4.925-0.853-7.369c2.356,0.873,3.042,9.748,14.445,34.949l0.071-0.044
		c33.662,69.034,136.413,163.078,267.72,152.143l-0.231-0.107c32.176-3.449,63.422-14.734,90.571-32.313v-0.084
		c31.465-20.653,55.919-50.078,71.058-87.939l0.08-0.013c35.955-91.004,1.337-180.242,0.68-190.999
		c9.083,7.465,44.597,56.49,55.377,100.153l0.107-0.271C1635.937,1471.383,1334.695,1572.535,1186.227,1499.69z"/>
	<path d="M254.41,294.833c-16.905,19.463-48.955,11.599-60.497,15.019c-14.513,4.129-18.264,23.108-13.996,25.242
		c1.351-0.035,1.987-1.476,2.449-2.538c8.555-22.514,25.177-11.62,43.225-14.77c11.215-2.216,34.57-13.212,39.318-30.095
		C260.202,283.716,259.678,288.981,254.41,294.833z"/>
</g>
</svg>
