<?xml version="1.0" encoding="UTF-8" standalone="no"?>
<!-- Created with Inkscape (http://www.inkscape.org/) -->

<svg
   xmlns:dc="http://purl.org/dc/elements/1.1/"
   xmlns:cc="http://creativecommons.org/ns#"
   xmlns:rdf="http://www.w3.org/1999/02/22-rdf-syntax-ns#"
   xmlns:svg="http://www.w3.org/2000/svg"
   xmlns="http://www.w3.org/2000/svg"
   xmlns:sodipodi="http://sodipodi.sourceforge.net/DTD/sodipodi-0.dtd"
   xmlns:inkscape="http://www.inkscape.org/namespaces/inkscape"
   id="svg2"
   version="1.1"
   inkscape:version="0.48+devel r9772"
   width="744.09448"
   height="1052.3622"
   sodipodi:docname="donna con palloncini 10.svg">
  <metadata
     id="metadata8">
    <rdf:RDF>
      <cc:Work
         rdf:about="">
        <dc:format>image/svg+xml</dc:format>
        <dc:type
           rdf:resource="http://purl.org/dc/dcmitype/StillImage" />
        <dc:title />
      </cc:Work>
    </rdf:RDF>
  </metadata>
  <defs
     id="defs6" />
  <sodipodi:namedview
     pagecolor="#ffffff"
     bordercolor="#666666"
     borderopacity="1"
     objecttolerance="10"
     gridtolerance="10"
     guidetolerance="10"
     inkscape:pageopacity="0"
     inkscape:pageshadow="2"
     inkscape:window-width="1440"
     inkscape:window-height="851"
     id="namedview4"
     showgrid="false"
     inkscape:zoom="0.66136926"
     inkscape:cx="561.80508"
     inkscape:cy="526.18109"
     inkscape:window-x="0"
     inkscape:window-y="1"
     inkscape:window-maximized="1"
     inkscape:current-layer="svg2" />
  <g
     id="g3072"
     transform="translate(-49.999999,2.3085936e-6)">
    <path
       style="fill:#ff0000"
       d="m 113.95625,526.1811 0,-474.694522 308.09099,0 308.09099,0 0,474.694522 0,474.6945 -308.09099,0 -308.09099,0 0,-474.6945 z m 260.39143,424.85551 c 1.10141,-1.32713 0.9404,-5.61906 -0.90984,-24.25354 -0.45719,-4.60462 -1.05939,-16.09524 -1.33821,-25.53471 -0.50333,-17.04045 -0.11548,-23.51965 2.75639,-46.04618 0.67509,-5.29531 1.56167,-12.4534 1.97019,-15.90687 1.45272,-12.28113 5.1835,-40.31819 7.12982,-53.58104 0.2365,-1.61162 1.18783,-8.2046 2.11406,-14.65107 2.75161,-19.15084 5.85505,-36.34228 8.0101,-44.3718 4.96434,-18.49671 4.83098,-16.91587 3.77679,-44.76712 -0.53206,-14.0569 -1.19843,-27.91263 -1.48083,-30.79052 -0.4866,-4.95885 -0.62782,-5.23147 -2.70015,-5.21254 -1.20268,0.011 -3.69366,0.39381 -5.53551,0.85073 -6.00763,1.49036 -25.89064,4.98219 -28.46493,4.99898 -4.99745,0.0326 -5.02527,0.32502 -1.36157,14.31341 4.35194,16.61613 6.80339,28.85068 6.80339,33.95381 0,3.98597 -0.85967,6.51174 -8.71043,25.59165 -3.95204,9.60472 -6.76255,20.71369 -8.07066,31.90047 -1.148,9.81743 -0.71677,38.8347 0.7921,53.30011 0.45629,4.37439 1.25869,13.03945 1.78312,19.25569 0.52443,6.21624 1.2981,14.06089 1.71927,17.43256 0.42117,3.37167 0.76575,12.31524 0.76575,19.8746 0,15.31123 -0.95696,19.50671 -5.83353,25.57485 -3.44627,4.28849 -3.30956,7.55157 0.82634,19.72502 1.85067,5.44718 4.52993,14.2359 5.95392,19.53054 3.2344,12.02593 5.18433,16.2168 8.54806,18.37168 3.24737,2.08037 9.8839,2.33597 11.45636,0.44129 z m 45.71375,-1.70103 c 2.44323,-1.52028 2.71958,-3.94976 2.80348,-24.64552 0.12417,-30.62784 1.09282,-39.67735 7.57232,-70.74368 9.98806,-47.8883 12.76192,-63.28556 14.18903,-78.76079 1.01786,-11.03751 0.44215,-18.79336 -2.57431,-34.68032 -1.18501,-6.24118 -1.80565,-14.01097 -2.13999,-26.79052 -0.44502,-17.01065 -0.30204,-19.46081 2.60163,-44.58243 1.6899,-14.6204 2.84006,-26.95869 2.55593,-27.41842 -0.65609,-1.06158 -8.4993,-1.08312 -13.17312,-0.0362 -1.96357,0.43985 -8.98665,1.3543 -15.60684,2.03212 -6.62018,0.67782 -12.37248,1.56818 -12.78287,1.97857 -0.43678,0.43678 0.3017,11.56735 1.78095,26.843 1.38992,14.35325 2.52714,27.75037 2.52714,29.7714 0,2.02103 0.76082,7.9585 1.69071,13.19438 3.3161,18.67171 3.47579,21.4591 2.07419,36.20636 -1.05132,11.0619 -1.26744,23.84952 -1.10743,65.52823 0.20639,53.7622 0.21396,53.59221 -3.4273,76.90033 -3.86712,24.75386 -6.50209,49.19694 -5.60736,52.01598 0.73927,2.32927 3.76334,3.94766 8.4702,4.5332 4.81533,0.59894 7.62733,0.2263 10.15364,-1.34572 z M 350.46632,535.90192 c 1.38138,-0.9485 4.46267,-3.17208 6.8473,-4.94129 4.04357,-3.00001 4.54384,-3.15928 7.42456,-2.36388 1.69887,0.46909 3.80009,1.49654 4.66938,2.28323 2.2233,2.01206 3.01142,0.73564 1.31694,-2.1329 -2.76421,-4.67942 -1.07007,-4.65751 4.03943,0.0522 2.33849,2.15554 3.74872,2.98539 3.74872,2.20592 0,-1.26608 -2.98388,-5.60412 -4.57451,-6.65054 -0.47702,-0.31383 -1.6208,-1.14952 -2.54173,-1.85709 -1.63573,-1.25677 -1.62394,-1.28711 0.51009,-1.31313 1.26548,-0.0154 3.73094,1.20269 5.86042,2.89547 5.54723,4.40962 6.71875,3.55064 2.6342,-1.93144 -3.32309,-4.46009 -3.25822,-4.42549 -10.46981,-5.58497 -3.69217,-0.59363 -4.20966,-2.57509 -0.99201,-3.79844 1.18113,-0.44906 4.94855,-0.81648 8.37204,-0.81648 3.42349,0 6.22453,-0.35136 6.22453,-0.78078 0,-1.80155 -11.14893,-3.00074 -16.04521,-1.72585 -1.996,0.51972 -5.01993,1.30493 -6.71985,1.74493 -1.69992,0.44 -6.188,3.24019 -9.97351,6.22267 -7.06901,5.56942 -8.11981,6.01774 -10.77467,4.5969 -1.42875,-0.76464 -36.50173,-43.28524 -38.77425,-47.00781 -0.89432,-1.46499 -0.60176,-2.02689 2.47375,-4.75098 1.91842,-1.69921 11.08677,-9.87083 20.3741,-18.15915 18.95679,-16.91766 20.17872,-17.79261 22.12728,-15.84406 0.72193,0.72193 1.31546,1.75661 1.31895,2.2993 0.0253,3.92577 1.78971,15.2571 2.4838,15.95119 0.5824,0.5824 1.7911,-0.0515 3.78724,-1.98625 1.61251,-1.56289 2.93185,-3.13111 2.93185,-3.48491 0,-0.35381 1.69743,-3.43918 3.77206,-6.85638 2.07463,-3.4172 4.31965,-7.85729 4.98891,-9.86684 3.57548,-10.7359 4.58946,-14.1824 7.10955,-24.16523 2.01698,-7.98993 2.38491,-9.76574 2.90545,-14.02316 l 0.53739,-4.39532 -13.72489,0 -13.72487,0 -3.40615,2.72091 c -3.52481,2.8157 -14.66998,14.54494 -24.87582,26.17944 -3.22323,3.67445 -10.78361,12.14356 -16.80083,18.82026 -16.95824,18.81681 -27.99926,31.93393 -29.74534,35.33851 -2.75224,5.3664 -2.19238,7.87065 2.74481,12.27757 2.38582,2.12957 10.39158,9.34727 17.79058,16.03933 21.43586,19.38775 40.48318,35.13464 42.49859,35.13464 0.64746,0 1.5351,0.34484 1.97254,0.76631 2.17453,2.09516 7.80383,1.56885 11.67899,-1.09194 z m 94.25916,-20.39517 c 1.43109,-3.10812 5.14866,-11.67899 8.26125,-19.04638 3.11259,-7.3674 8.35004,-19.28139 11.63879,-26.47555 3.28874,-7.19416 5.97954,-13.47386 5.97954,-13.95488 0,-2.66001 8.53028,-5.09555 22.32994,-6.37558 4.96363,-0.46042 12.83262,-4.11016 12.83262,-5.95194 0,-1.42817 -1.78244,-1.57404 -5.65665,-0.46294 -1.67441,0.48022 -2.71539,0.48022 -2.71539,0 0,-0.42831 0.3414,-0.77876 0.75867,-0.77876 0.87337,0 6.77616,-7.98092 6.77616,-9.16177 0,-2.17296 -2.0659,-1.42278 -5.86312,2.12908 -4.33359,4.05356 -6.1568,4.52194 -3.84034,0.98657 1.58882,-2.42483 3.20815,-10.41602 2.53835,-12.52637 -0.82183,-2.58937 -1.85178,-1.69952 -3.3275,2.87492 -1.71168,5.30585 -3.40804,8.16274 -4.84684,8.16274 -0.72006,0 -0.96108,-0.91929 -0.73922,-2.81963 0.87763,-7.51755 -7.47725,-13.10341 -11.16981,-7.46785 -0.81825,1.24882 -3.90286,4.84207 -6.85468,7.985 -5.07405,5.40256 -6.04169,7.06508 -11.32938,19.46516 -2.02485,4.74845 -11.43339,20.69534 -14.07739,23.8603 l -1.74849,2.09301 0.49642,-2.09301 c 1.61228,-6.79766 1.66545,-6.54347 -0.78806,-3.76741 -1.22089,1.38138 -2.7433,3.70102 -3.38315,5.15474 -0.63984,1.45372 -3.06483,5.12399 -5.38885,8.15614 -2.32403,3.03216 -4.54992,6.36366 -4.94644,7.40332 -0.39652,1.03967 -2.53059,4.29582 -4.74238,7.23591 l -4.02144,5.34562 2.27705,4.3491 c 1.99734,3.81488 2.86494,4.58953 7.0629,6.30631 2.63223,1.07646 5.68434,2.64753 6.78247,3.49124 3.55361,2.7303 4.87798,2.02263 7.70497,-4.11709 z m 32.20449,-80.79016 c 1.03018,-3.36136 5.66115,-9.90682 6.45061,-9.11736 0.41353,0.41353 0.95425,2.26073 1.20161,4.10487 0.55475,4.13602 -1.71124,6.8962 -5.66151,6.8962 -2.27606,0 -2.5024,-0.21417 -1.99071,-1.88371 z m -24.2428,18.62778 c 6.02877,-15.96418 5.84253,-23.68876 -0.72025,-29.87393 -4.2831,-4.03665 -18.95818,-13.80759 -19.8811,-13.2372 -1.04283,0.64451 -0.39005,3.37811 2.60861,10.9238 1.29076,3.24799 2.51319,7.20377 2.71651,8.79064 0.38165,2.97852 1.58431,6.88806 3.46299,11.25724 1.27319,2.96102 1.89828,5.04837 2.41716,8.07161 0.84658,4.93247 4.29683,15.69839 4.85068,15.1357 0.32633,-0.33155 2.37176,-5.31208 4.5454,-11.06786 z m -34.80523,-6.33353 c 0.44907,-1.18112 0.81649,-3.79379 0.81649,-5.80592 0,-2.01213 0.37546,-4.64595 0.83434,-5.85293 0.4589,-1.20698 1.22394,-5.63353 1.70009,-9.83679 0.47615,-4.20326 1.18794,-8.04371 1.58175,-8.53435 0.39382,-0.49062 0.96012,-3.87207 1.25844,-7.51433 0.52014,-6.35036 0.45255,-6.71607 -1.64604,-8.90652 -2.99329,-3.12432 -3.31841,-7.21699 -1.32691,-16.70354 0.91832,-4.37439 1.35917,-8.2709 0.97968,-8.6589 -0.37948,-0.388 -1.45375,-0.2967 -2.38725,0.20289 -0.9335,0.49959 -5.40067,1.32681 -9.92703,1.83826 -12.15137,1.373 -17.00167,3.04019 -19.25297,6.61775 -2.33696,3.71369 -3.96892,5.55552 -5.32218,6.0066 -1.53484,0.51162 2.41237,10.48247 9.2221,23.29553 1.34596,2.53254 2.47184,5.16974 2.50196,5.86043 0.0301,0.69069 1.40973,3.70462 3.06583,6.69763 1.6561,2.993 4.42002,8.8325 6.14205,12.97666 2.61831,6.30109 3.59581,7.77451 5.96984,8.99864 3.81976,1.96957 4.82708,1.85107 5.78981,-0.68111 z m 2.58703,-77.06385 c 3.51538,-1.88382 5.00197,-3.33807 6.7488,-6.60202 1.23217,-2.30231 2.3624,-5.24249 2.51161,-6.53372 0.2545,-2.20239 -0.10026,-2.49331 -5.73104,-4.69966 -3.30129,-1.29357 -8.33605,-3.91033 -11.18835,-5.81503 -2.85231,-1.9047 -5.49417,-3.46308 -5.87081,-3.46308 -0.37663,0 -1.49363,1.1359 -2.48221,2.52424 -4.0762,5.7245 -12.69748,6.69966 -18.70699,2.11598 -1.70329,-1.29915 -3.29334,-2.16566 -3.53345,-1.92555 -0.76966,0.76967 0.65668,4.9397 1.84567,5.39595 0.63145,0.24231 1.14808,0.96536 1.14808,1.60679 0,0.64142 0.34602,1.16623 0.76894,1.16623 0.42292,0 1.57437,2.42031 2.55878,5.37847 0.98442,2.95815 2.33372,5.82984 2.99847,6.38153 0.66476,0.5517 1.21507,1.42788 1.22293,1.94707 0.0214,1.41862 9.03427,5.05176 13.79957,5.56273 5.40023,0.57905 8.36623,-0.0692 13.91,-3.03993 z m -15.10978,-8.18666 c -4.19038,-1.51427 -5.1672,-3.54639 -2.68419,-5.58405 4.33069,-3.55392 15.6139,-0.56118 12.41742,3.29358 -0.84156,1.01486 -5.87633,3.59413 -6.62285,3.39281 -0.12991,-0.035 -1.52958,-0.53108 -3.11038,-1.10234 z m -27.62871,-18.1191 c 3.33273,-1.78363 1.25539,-5.48101 -3.94974,-7.03 -1.24636,-0.37089 -2.52735,0.088 -4.15593,1.48886 -2.11936,1.82301 -2.25462,2.24364 -1.35576,4.21641 0.8399,1.84341 1.54182,2.19138 4.42026,2.19138 1.88199,0 4.15052,-0.38999 5.04117,-0.86665 z m -28.75902,-3.02079 c 0.81701,-2.45105 -7.54841,-8.55814 -10.28459,-7.50817 -0.65847,0.25267 -1.19721,1.21868 -1.19721,2.14667 0,1.20811 1.36707,2.39222 4.81392,4.16965 4.86769,2.51012 6.15193,2.73967 6.66788,1.19185 z m 13.63431,-5.3218 c 3.90328,-3.90328 0.6549,-10.61826 -5.53845,-11.44896 -2.94516,-0.39504 -3.64084,-0.17909 -4.81262,1.49385 -2.1125,3.01601 -1.67233,5.63398 1.47671,8.78303 3.27979,3.27978 6.35986,3.68658 8.87436,1.17208 z m 35.13758,-1.46511 c -0.0137,-0.34534 -1.49553,-2.32324 -3.29286,-4.39532 -3.64999,-4.20794 -4.78291,-3.99487 -5.60216,1.05361 -0.45532,2.80581 -0.33017,3.02553 1.9141,3.36042 4.24373,0.63325 7.00656,0.62585 6.98092,-0.0187 z m -68.62573,-5.6927 c 0,-2.60708 -5.66269,-8.74906 -8.06634,-8.74906 -1.86039,0 -1.34164,1.21288 2.27707,5.32395 2.92021,3.31754 5.78927,5.01496 5.78927,3.42511 z m 50.60336,-1.40051 c 2.12703,-3.03677 1.65583,-7.12479 -1.14394,-9.92456 -4.42097,-4.42098 -10.11084,-2.22838 -10.11084,3.89621 0,6.17802 8.10807,10.52091 11.25478,6.02835 z M 344.01463,322.538 c 2.51789,-5.2796 -4.81186,-12.54467 -9.53444,-9.45031 -4.87023,3.1911 -0.39402,12.59871 5.71399,12.00904 2.00837,-0.19389 3.01377,-0.86725 3.82045,-2.55873 z m 17.18107,-7.469 c 4.65879,-2.48129 5.33102,-7.79195 1.47447,-11.6485 -4.74406,-4.74407 -11.0762,-2.39664 -11.24838,4.16994 -0.08,3.05164 0.31298,3.95197 2.62795,6.02038 2.97215,2.65563 4.3643,2.9397 7.14596,1.45818 z m -36.24259,-4.49076 c 2.7092,-2.88381 2.68107,-7.30556 -0.0634,-9.9604 -3.18682,-3.08277 -5.30174,-3.35761 -7.99701,-1.03924 -3.43385,2.95367 -3.28663,7.46085 0.3498,10.71 3.31278,2.95997 5.13753,3.02851 7.71057,0.28964 z m 55.23394,-6.47726 c 0,-1.18418 -3.04971,-9.80529 -3.69793,-10.4535 -0.22873,-0.22874 -0.99723,-0.19279 -1.70778,0.0799 -2.12253,0.81449 -1.62083,5.88937 0.87551,8.8561 2.21806,2.63601 4.5302,3.41052 4.5302,1.51752 z m -35.54118,-3.66854 c 2.46719,-2.66214 2.60883,-5.65362 0.43638,-9.2164 -3.01298,-4.94129 -9.7835,-4.28093 -11.85055,1.15583 -2.86197,7.52755 6.06542,13.83196 11.41417,8.06057 z m -34.78393,-5.88226 c 0,-3.12149 -2.32378,-6.97215 -4.20752,-6.97215 -0.90911,0 -1.6437,0.28255 -1.63244,0.6279 0.0641,1.96678 1.87662,8.25949 2.64606,9.1866 1.26345,1.52238 3.1939,-0.19558 3.1939,-2.84235 z m 57.83837,-3.69967 c 2.76853,-2.96373 2.59947,-3.66064 -2.38317,-9.82442 -2.48063,-3.06867 -3.26277,-3.54328 -5.12185,-3.108 -5.91844,1.38573 -7.88527,8.70223 -3.51434,13.07315 3.45094,3.45094 7.71511,3.39648 11.01936,-0.14073 z m -41.3776,-1.9962 c 2.40711,-1.686 3.2053,-6.42626 1.60363,-9.52354 -3.18771,-6.16435 -11.36677,-3.71208 -11.36677,3.40803 0,5.76714 5.41654,9.15999 9.76314,6.11551 z m 21.67005,-10.86608 c 3.14088,-3.14087 2.87025,-7.99382 -0.60904,-10.92144 -2.08577,-1.75507 -3.2215,-2.1341 -5.23253,-1.74631 -8.05133,1.55256 -6.97887,14.72271 1.1989,14.72271 1.63118,0 3.34732,-0.7596 4.64267,-2.05496 z m -35.35985,-3.97378 c 1.35864,-1.82792 1.53415,-2.77259 0.91572,-4.9289 -1.44869,-5.05131 -7.49105,-4.59086 -9.00448,0.68617 -1.72798,6.0251 4.38197,9.2299 8.08876,4.24273 z m 17.54553,-7.99442 c 2.35193,-2.60981 2.55513,-5.50431 0.5641,-8.0355 -1.39733,-1.77642 -2.40715,-2.25281 -4.35986,-2.05677 -4.49923,0.45168 -7.54797,6.99035 -4.80203,10.29899 1.45578,1.7541 6.94977,1.62201 8.59779,-0.20672 z m 150.85188,-7.84953 c 1.21114,-1.43936 2.06113,-3.0398 1.88889,-3.55655 -0.29716,-0.89146 -8.85538,-2.58751 -9.55024,-1.89264 -0.64291,0.6429 3.44755,8.0662 4.44472,8.0662 0.55801,0 2.00549,-1.17766 3.21663,-2.61701 z m -166.14516,-1.56901 c 2.03512,-2.03513 2.30624,-7.34493 0.41214,-8.07177 -3.38282,-1.2981 -7.79102,5.65198 -5.40691,8.52466 1.3921,1.67737 3.01132,1.53055 4.99477,-0.45289 z m 35.9065,0.2093 c 1.70013,-1.40995 1.71883,-1.62171 0.49655,-5.62407 -1.66413,-5.44921 -2.15975,-5.84796 -5.7826,-4.65231 -7.34166,2.42296 -6.31252,11.6282 1.30985,11.71603 1.21525,0.014 3.00455,-0.63384 3.9762,-1.43965 z m -16.71117,-8.26026 c 4.61259,-2.72473 5.35229,-7.33632 1.33834,-8.34376 -3.34143,-0.83865 -8.81282,2.81936 -8.81282,5.89199 0,3.74792 3.39503,4.86156 7.47448,2.45177 z m 164.86331,-8.23139 c 2.60194,-1.58789 5.86103,-3.15446 7.24242,-3.48125 1.38139,-0.32679 3.26509,-1.06901 4.18602,-1.64939 3.01171,-1.898 9.08723,-3.13069 15.81269,-3.20831 4.98043,-0.0575 6.75582,-0.38487 7.22336,-1.33202 1.34943,-2.73365 2.57681,-7.56828 2.11224,-8.31999 -0.27021,-0.43719 -2.27985,0.31692 -4.46588,1.67583 -2.29247,1.42508 -7.68728,3.40908 -12.7471,4.68787 -7.96039,2.01189 -10.24511,2.21734 -24.67939,2.21922 -11.16239,0.002 -18.65367,-0.43815 -25.11611,-1.47389 -16.10083,-2.58048 -32.47634,-8.78443 -34.83889,-13.19888 -1.31313,-2.45361 -2.38756,-0.45563 -2.40386,4.47019 -0.0147,4.45778 0.54541,5.03523 6.26621,6.4597 5.87297,1.46236 13.99527,5.37956 20.0037,9.64735 4.90991,3.4875 5.4772,3.67074 14.32166,4.62606 5.06508,0.54708 11.09295,1.10002 13.39526,1.22874 2.30231,0.12873 5.25945,0.30196 6.57143,0.38495 1.45478,0.092 4.23111,-0.97546 7.11624,-2.73618 z m -176.17962,-1.36317 c 2.35911,-2.80365 2.73033,-4.12178 1.16078,-4.12178 -1.13062,0 -6.52819,4.98125 -6.52819,6.02466 0,1.64384 3.39615,0.43982 5.36741,-1.90288 z m 26.29264,-4.68512 c -0.32717,-2.76371 -2.02462,-3.4801 -2.75952,-1.16465 -0.65328,2.05833 0.043,3.4024 1.76243,3.4024 0.87584,0 1.18094,-0.68474 0.99709,-2.23775 z m -8.58897,-4.81004 c 0.89308,-0.65304 1.3594,-1.45175 1.03625,-1.7749 -0.84399,-0.84399 -5.94995,0.25617 -7.84571,1.69048 -1.49578,1.13169 -1.36839,1.22043 1.78755,1.24516 1.86895,0.0146 4.12881,-0.50769 5.02191,-1.16074 z m 159.93816,-9.69956 c 17.73972,-1.35333 31.75675,-5.88349 33.85141,-10.94042 1.00884,-2.43556 0.42854,-8.77015 -0.87736,-9.57724 -0.38874,-0.24025 -2.07957,0.49476 -3.7574,1.63338 -7.97835,5.41425 -20.17371,8.00461 -37.6689,8.00108 -22.38589,-0.004 -42.50188,-5.24726 -51.94463,-13.5381 -3.36826,-2.95737 -3.8649,-2.71281 -5.39616,2.65728 -1.21689,4.26759 -1.05924,5.37316 1.03883,7.28545 7.70152,7.01953 27.82856,13.26528 47.51132,14.74356 2.07208,0.15563 4.33253,0.34786 5.02322,0.42718 0.69069,0.0794 6.18955,-0.23215 12.21967,-0.69217 z M 350.88492,205.12756 c 0,-0.22248 -1.97789,-1.40133 -4.39532,-2.61966 -7.5233,-3.79162 -13.34276,-8.01714 -20.61742,-14.97036 -18.71861,-17.89149 -28.1561,-37.88315 -28.06315,-59.44682 0.0447,-10.36661 1.70963,-18.65689 5.46442,-27.20912 2.02192,-4.605261 2.1193,-5.121297 0.63351,-3.356804 -2.42569,2.880714 -5.26258,8.659984 -7.41011,15.095724 -3.60851,10.81403 -3.12841,31.11491 0.94724,40.05333 0.97348,2.13499 2.4769,5.52932 3.34092,7.54296 2.61371,6.09141 10.2273,17.10064 16.21777,23.45085 8.56643,9.08087 18.01532,15.81488 27.88985,19.87645 4.84227,1.99171 5.99229,2.2956 5.99229,1.58345 z m 5.86043,-2.96727 c 0,-0.36033 -1.65721,-1.62633 -3.68267,-2.81333 -4.96892,-2.91198 -16.4553,-13.80539 -22.31938,-21.16717 -17.38465,-21.82474 -25.91336,-47.68512 -22.96138,-69.62247 1.01868,-7.57017 3.31147,-14.764673 6.12304,-19.213399 1.89494,-2.998329 2.03639,-1.656871 0.43441,4.119533 -1.7847,6.435244 -2.01913,25.214156 -0.41137,32.952856 2.71662,13.07604 10.13661,30.48244 18.4083,43.18366 8.85666,13.59943 23.60161,29.20751 26.53055,28.08357 2.5842,-0.99166 2.27154,-3.04184 -1.00746,-6.6063 -7.12254,-7.7426 -15.71777,-20.40141 -22.92592,-33.76464 -15.25657,-28.28421 -21.05536,-61.22481 -13.20271,-74.999235 0.99034,-1.737163 1.16561,-1.01096 1.65257,6.847383 1.13305,18.284382 5.05739,31.996922 16.41231,57.348452 6.88032,15.36133 23.1751,43.11599 25.31341,43.11599 1.17952,0 5.03156,-3.47468 5.03156,-4.53866 0,-0.58757 -4.09864,-9.50784 -9.10808,-19.82282 -9.7486,-20.0734 -15.4587,-32.85056 -21.85062,-48.89384 -5.44453,-13.66539 -11.73869,-32.452199 -11.73869,-35.037614 0,-4.120501 -2.65273,-3.699279 -9.66354,1.53446 -6.42496,4.796384 -9.27398,8.79583 -11.94382,16.766703 -5.74863,17.162621 -5.67071,28.700721 0.33635,49.805991 1.21829,4.28038 9.54948,19.34542 14.20208,25.68119 5.38512,7.33333 15.17281,17.25407 21.10914,21.39609 7.76097,5.41516 13.08613,8.10447 14.20656,7.1746 0.58044,-0.48172 1.05536,-1.17068 1.05536,-1.531 z m 149.48229,-3.3846 c 9.36086,-1.30197 16.34483,-3.69726 20.00475,-6.86101 l 3.19645,-2.76311 -1.80118,-3.53061 c -1.92799,-3.77915 -2.67918,-4.20217 -4.20261,-2.36656 -3.03766,3.66016 -18.49634,7.2103 -31.37166,7.20463 -16.34488,-0.008 -38.66577,-5.81664 -43.16143,-11.23358 -0.60304,-0.72661 -1.58806,-1.32111 -2.18895,-1.32111 -1.45121,0 -4.56288,4.02279 -4.56288,5.89891 0,4.91574 17.81206,12.781 33.90675,14.97218 7.4757,1.01777 22.86421,1.0179 30.18076,2.6e-4 z m -6.32045,-15.8587 c 10.58507,-1.08966 15.4171,-2.38714 18.49434,-4.96603 2.93121,-2.45651 2.6935,-4.44267 -0.74752,-6.2456 -1.90485,-0.99805 -2.5583,-0.9068 -5.78258,0.80757 -5.86831,3.12022 -11.98902,3.98665 -24.52229,3.47129 -12.68256,-0.52149 -20.52858,-2.44583 -26.59176,-6.52197 l -3.56865,-2.39913 -2.53146,2.28109 c -2.41223,2.17368 -2.46813,2.37054 -1.18698,4.18024 2.75382,3.88995 12.01335,7.10161 26.76261,9.2826 6.98653,1.03311 10.51506,1.05283 19.67429,0.10994 z m -118.19397,-5.04062 c 3.19142,-1.94572 3.19053,-1.9782 -0.38789,-14.2045 -9.54521,-32.6129 -25.24764,-63.52894 -40.60507,-79.946076 -2.8265,-3.02153 -4.92348,-5.709294 -4.65996,-5.972809 1.15098,-1.150982 9.93164,4.836269 16.11529,10.988501 7.69242,7.65333 14.17825,17.056404 20.50052,29.721384 4.9075,9.83087 5.19165,9.81172 6.20861,-0.4186 0.57693,-5.8036 0.55088,-5.90913 -2.68534,-10.88365 -7.56965,-11.635513 -16.82162,-21.190409 -25.60652,-26.444885 -2.60214,-1.556407 -4.73116,-3.118554 -4.73116,-3.471437 0,-1.378869 2.94613,-0.500313 9.15587,2.73035 8.24007,4.286958 16.20293,10.852232 22.26999,18.36131 2.61938,3.241942 4.92662,5.894452 5.12722,5.894452 0.20059,0 0.8758,-1.2155 1.50045,-2.70111 1.07485,-2.556325 1.00263,-2.852706 -1.34739,-5.529229 -4.46199,-5.081926 -11.88767,-11.12997 -18.27015,-14.880613 -6.66409,-3.916126 -6.10436,-4.875223 1.0831,-1.855877 5.15471,2.165425 15.16531,8.851208 18.56314,12.397776 2.74941,2.869765 4.18153,3.172048 5.01014,1.057507 1.13899,-2.9066 -11.07223,-11.644291 -21.74368,-15.558606 -8.72305,-3.19964 -21.22856,-4.048179 -31.87143,-2.162577 -7.46175,1.322001 -7.78724,1.695864 -4.79159,5.503572 7.88316,10.02013 27.82922,51.481767 40.4604,84.104607 6.57776,16.9885 5.92809,16.18317 10.70545,13.27051 z m 122.96911,-8.2113 c 2.77516,-1.48522 4.40615,-3.4175 3.93062,-4.65671 -0.23779,-0.61967 -1.92619,-1.80029 -3.752,-2.62361 -3.26277,-1.47131 -3.34793,-1.4666 -4.9706,0.27513 -2.1003,2.25441 -6.33903,3.04651 -12.84977,2.40125 -7.46068,-0.73939 -11.53135,-2.08226 -12.02412,-3.96661 -0.23137,-0.88477 -0.89583,-1.60867 -1.47659,-1.60867 -1.63121,0 -6.93958,2.37824 -7.5642,3.38889 -1.43608,2.32362 5.16351,6.00183 13.44371,7.4927 5.52562,0.9949 22.99931,0.5091 25.26295,-0.70237 z"
       id="path3101"
       inkscape:connector-curvature="0" />
    <path
       style="fill:#800000"
       d="m 403.97417,978.37684 c -25.00656,-1.72146 -49.73544,-5.77729 -60.91963,-9.99144 -9.66595,-3.64209 -12.45186,-8.53797 -7.317,-12.8587 1.37891,-1.16028 3.26262,-2.34936 4.18602,-2.64246 2.08314,-0.66114 2.13151,-3.2764 0.44118,-23.85537 -0.83217,-10.13125 -0.93458,-14.90465 -0.33232,-15.48827 2.22875,-2.15965 11.11789,13.2228 11.12375,19.24932 0.002,1.84185 -0.31914,6.31076 -0.71317,9.93092 l -0.71642,6.58209 2.5928,-0.56955 c 2.45665,-0.53949 2.69396,-0.35799 4.51929,3.4579 2.42357,5.06659 5.52896,7.13993 15.45657,10.32005 8.30001,2.65871 12.00464,3.1339 12.00464,1.5397 0,-0.53414 -1.90753,-4.50968 -4.23896,-8.83451 -2.33143,-4.32474 -4.11689,-8.49703 -3.9677,-9.27178 0.32685,-1.69718 3.52777,-2.33195 15.9508,-3.16312 l 8.99994,-0.6022 0.0184,4.09593 c 0.0216,4.81736 2.05156,9.69725 5.81863,13.98775 3.21695,3.66386 5.00701,3.83875 8.9,0.86944 4.77861,-3.64485 6.47168,-6.75615 7.43047,-13.65471 l 0.87782,-6.31587 25.94221,0.0932 c 52.05881,0.18695 92.18691,6.9544 97.49162,16.4416 1.1583,2.07157 1.1583,2.53304 0,4.60462 -3.52901,6.31143 -23.44444,11.60791 -56.06113,14.90934 -15.40298,1.55913 -71.01259,2.3003 -87.48779,1.16614 z M 305.53338,707.18583 c -23.89481,-1.89463 -38.88615,-6.05731 -43.00805,-11.94214 -0.71192,-1.01641 -1.2944,-3.16301 -1.2944,-4.77022 0,-2.44137 0.73113,-3.61608 4.44342,-7.13924 4.30183,-4.08268 6.35523,-7.14727 4.78895,-7.14727 -0.41883,0 -0.99435,0.37674 -1.27894,0.8372 -0.28458,0.46047 -1.43704,0.83721 -2.56102,0.83721 -2.71441,0 -2.62266,-1.46937 0.81019,-12.97666 2.22858,-7.47044 3.04374,-9.20924 4.31735,-9.20924 2.43682,0 3.82037,3.57323 3.48477,8.99994 -0.16373,2.64766 -0.14471,4.81392 0.0423,4.81392 0.18699,0 1.29787,-0.75348 2.46863,-1.67441 2.85517,-2.24587 5.38847,-2.10927 7.76329,0.4186 1.08145,1.15116 2.44799,2.09301 3.03675,2.09301 1.83997,0 5.33528,-1.89793 5.33528,-2.89701 0,-2.07127 4.62986,-7.92775 7.57657,-9.5839 5.03968,-2.83246 10.33868,-2.22477 14.63867,1.67875 1.48502,1.3481 2.11329,1.42097 4.89372,0.56763 2.45751,-0.75423 3.83721,-1.99083 6.00879,-5.38556 5.2168,-8.15517 12.94814,-9.94001 19.6673,-4.54035 2.17323,1.74646 4.12903,2.57917 6.05774,2.57917 l 2.84831,0 3.43691,13.18595 c 6.55912,25.16454 8.38985,38.09276 5.70922,40.31749 -1.47843,1.22699 -46.53297,1.94037 -59.18572,0.93713 z m 94.30558,-4.12614 c -0.20247,-0.32759 -0.76433,-10.55795 -1.24859,-22.73412 -0.48427,-12.17617 -1.10948,-24.79569 -1.38938,-28.04339 -0.48532,-5.63156 -0.38689,-6.08567 2.12662,-9.80996 5.7716,-8.55191 13.28026,-11.89542 22.22074,-9.89463 5.09381,1.13995 12.39968,5.56909 12.81855,7.77118 0.31068,1.63335 0.32756,1.62996 -17.31332,3.47854 -6.62018,0.69373 -12.3698,1.59443 -12.77694,2.00156 -0.42884,0.42885 0.36838,12.27484 1.89519,28.16043 1.52105,15.8257 2.32162,27.70697 1.8933,28.09841 -1.00507,0.9185 -7.76554,1.7173 -8.22617,0.97198 z m 40.55358,-7.16636 c 0,-0.67305 1.3497,-12.99364 2.99935,-27.3791 2.80805,-24.48719 2.90837,-26.2219 1.57291,-27.19841 -1.84424,-1.34854 -1.14447,-4.28508 1.87673,-7.87556 2.95547,-3.51237 6.62758,-4.97391 12.49694,-4.97391 5.72729,0 10.70108,2.55097 13.77439,7.06465 1.35199,1.98562 2.89895,3.13831 4.66094,3.47301 4.3028,0.81733 5.61508,0.12696 7.56478,-3.97965 2.29036,-4.82416 4.68188,-6.55801 9.04554,-6.55801 4.39995,0 8.89192,3.03695 11.77921,7.96374 1.92492,3.28463 2.5603,3.75711 5.05248,3.75711 1.90748,0 2.85066,-0.39425 2.85066,-1.19157 0,-0.65537 0.97534,-2.35071 2.16743,-3.76742 4.03853,-4.79952 11.02272,-2.55779 15.40759,4.94542 1.71373,2.93246 2.91618,3.9617 5.49532,4.70376 3.77999,1.08756 4.55738,0.86052 4.55738,-1.33099 0,-1.99722 2.22646,-4.25328 3.65609,-3.70468 0.6028,0.23132 2.71429,3.56828 4.69217,7.41547 4.39284,8.54449 4.20282,10.07424 -1.98178,15.95418 -11.08575,10.53967 -42.35223,21.49598 -88.25854,30.92729 -16.09683,3.30704 -19.40959,3.60652 -19.40959,1.75467 z m -159.025,-32.21762 c -4.26886,-4.56983 -4.4569,-12.25679 -0.49125,-20.08261 4.24442,-8.37598 11.84238,-11.24029 16.37119,-6.17168 4.37348,4.89478 3.95612,15.24844 -0.88402,21.93006 -2.98311,4.11806 -5.54192,5.87443 -9.49223,6.51548 -2.60986,0.42352 -3.32835,0.13745 -5.50369,-2.19125 z m 30.27664,-11.72917 c -4.46148,-2.0605 -6.83322,-6.6858 -6.86027,-13.37873 -0.0373,-9.2326 5.55023,-15.94083 13.85109,-16.6292 4.36629,-0.36208 4.6643,-0.25159 7.81259,2.8967 4.24079,4.2408 5.66721,9.11861 4.34616,14.86226 -2.45842,10.68864 -10.87339,16.07125 -19.14957,12.24897 z m 48.37679,-1.29188 c 0,-1.89844 5.92196,-8.06233 8.97305,-9.33964 4.31416,-1.80607 10.05219,-1.42198 14.08771,0.94299 3.57244,2.09359 5.12305,4.18432 3.73813,5.04025 -0.88537,0.54719 -23.18089,4.601 -25.33378,4.60623 -0.80581,0.002 -1.46511,-0.56046 -1.46511,-1.24983 z M 343.69264,642.584 c -3.63665,-3.19302 -4.44268,-4.62341 -5.35393,-9.50106 -0.91631,-4.90478 0.22967,-10.8609 2.85213,-14.82371 8.3285,-12.58521 24.80186,-6.43056 24.89685,9.30178 0.0636,10.53987 -6.06135,17.64941 -15.20525,17.64941 -3.51193,0 -4.68761,-0.42948 -7.1898,-2.62642 z m 190.08232,-4.15349 c -4.25307,-3.73423 -8.88627,-13.51709 -9.0118,-19.0281 -0.11491,-5.04496 0.71207,-6.24578 4.03693,-5.86188 2.03581,0.23506 3.13524,1.54462 7.61081,9.06539 5.61462,9.43483 6.74842,14.32214 3.96768,17.10288 -1.90594,1.90594 -3.2799,1.63999 -6.60362,-1.27829 z m -257.47436,-0.2805 c 0,-2.39256 7.85912,-21.58151 9.02175,-22.02765 2.8724,-1.10224 3.56086,5.29742 1.31721,12.24444 -0.76003,2.35332 -2.6731,5.78726 -4.25125,7.63098 -2.84142,3.31956 -6.08771,4.46724 -6.08771,2.15223 z m 106.7078,-1.14916 c -8.57141,-5.38752 -11.05069,-16.01811 -5.81814,-24.94679 2.5388,-4.33212 5.62092,-6.63768 10.68353,-7.99172 9.84783,-2.63389 19.86861,6.30251 19.85495,17.70638 -0.006,4.76513 -3.54441,11.281 -7.57528,13.9485 -4.67923,3.09657 -13.24091,3.73757 -17.14506,1.28363 z m 46.90155,-3.84095 c -5.18329,-1.62419 -7.83683,-3.74385 -10.50047,-8.38781 -6.50564,-11.34237 0.34908,-23.93347 13.02962,-23.93347 7.45013,0 13.37988,3.97936 16.84179,11.30225 2.37692,5.02786 2.49108,8.87379 0.40006,13.47809 -1.9698,4.33736 -5.44427,6.82404 -11.00945,7.87945 -5.12046,0.97108 -4.50661,0.99479 -8.76155,-0.33851 z m 75.36588,-2.03623 c -4.02944,-1.87515 -9.21167,-7.42361 -11.36715,-12.17046 -2.1458,-4.72554 -2.11047,-11.39148 0.0751,-14.16999 2.37476,-3.01901 5.82522,-3.56834 10.20424,-1.62456 10.36164,4.59936 17.37471,20.69967 11.55286,26.52256 -2.86582,2.86633 -6.36803,3.34906 -10.46505,1.44245 z m -35.17812,-1.31241 c -3.05219,-1.32993 -7.71968,-6.47863 -9.29842,-10.25707 -1.71526,-4.10522 -1.46049,-11.47813 0.53155,-15.38285 1.79796,-3.52429 5.26785,-5.84433 8.74085,-5.84433 2.80692,0 2.70691,-0.38586 -0.92705,-3.57651 -5.81792,-5.10821 -7.78543,-13.40122 -4.46968,-18.83956 1.9977,-3.27653 5.04286,-4.5986 9.74006,-4.22868 l 3.46456,0.27283 -3.09609,-2.64991 c -6.41662,-5.49193 -7.54966,-13.51861 -2.26668,-16.05768 3.13708,-1.50773 6.97792,-0.68379 11.16443,2.395 3.91894,2.88203 6.10632,6.88949 6.10632,11.1873 0,3.71745 -2.69479,5.76186 -7.50731,5.69544 l -3.31409,-0.0457 2.94841,2.58874 c 4.10285,3.60234 6.19858,8.08645 6.19858,13.26269 0,3.77743 -0.34772,4.65081 -2.84649,7.14958 -2.01289,2.01289 -3.60654,2.8465 -5.44183,2.8465 -3.31866,0 -3.26967,0.7177 0.24012,3.51817 6.46518,5.15857 9.12634,16.23585 5.57348,23.20004 -2.59403,5.08471 -9.76334,7.2834 -15.54072,4.76603 z m -173.903,-5.13324 c -5.10422,-2.84488 -6.20342,-9.85974 -2.65939,-16.97167 4.71528,-9.46235 15.2695,-11.92523 19.12803,-4.46365 5.24121,10.13537 -7.34667,26.51954 -16.46864,21.43532 z m 32.43112,-7.68353 c -4.57191,-1.21371 -8.79876,-7.08114 -8.78597,-12.1961 0.0163,-6.54373 4.44113,-13.00774 10.48377,-15.31545 11.70696,-4.47094 19.99594,7.56399 13.70404,19.89714 -2.67573,5.24485 -10.2403,8.98465 -15.40184,7.61441 z m 194.57212,-8.19377 c -4.12917,-2.24476 -9.13148,-10.28634 -9.13148,-14.67954 0,-4.45546 2.5053,-2.67585 8.15847,5.79528 6.53467,9.79203 6.78105,12.04171 0.97301,8.88426 z m -163.59558,-0.7255 c -9.04272,-4.1861 -10.57179,-15.86763 -3.07996,-23.52987 l 2.73968,-2.80201 -3.41703,-0.5773 c -1.87936,-0.31752 -4.52737,-1.5116 -5.88446,-2.65352 -7.42975,-6.25172 -3.33367,-18.79524 6.5714,-20.12379 9.79834,-1.31423 16.18899,9.29635 10.57502,17.55804 l -2.12319,3.12455 2.82872,0 c 4.51339,0 9.83233,3.31174 12.04786,7.50137 2.4481,4.62942 2.42226,7.72712 -0.10984,13.16554 -2.61896,5.62496 -7.21413,8.80973 -13.29166,9.21205 -2.5461,0.16855 -5.38475,-0.19373 -6.85654,-0.87506 z m 45.20901,-5.13646 c -0.46047,-0.1536 -1.86634,-0.50604 -3.12416,-0.7832 -3.06824,-0.67608 -8.16226,-5.26057 -9.55861,-8.6025 -2.30687,-5.52113 -1.28873,-10.66248 3.10171,-15.66293 l 2.67057,-3.04161 -2.25038,0.85559 c -3.4526,1.31268 -9.77033,1.01603 -13.00835,-0.6108 -3.92438,-1.97168 -6.71431,-6.31734 -6.71431,-10.45839 0,-12.34496 17.53842,-15.72287 24.95598,-4.80653 2.44603,3.59979 2.15077,8.89949 -0.7115,12.77092 -1.70153,2.30143 -1.73237,2.49495 -0.30232,1.89658 0.8759,-0.36651 3.56617,-0.85186 5.97839,-1.07856 11.15676,-1.04856 20.30589,9.33836 17.0133,19.31502 -2.1255,6.44033 -12.22347,12.15015 -18.05032,10.20641 z m 97.76106,-3.01683 c -6.77985,-3.35596 -12.6142,-12.43061 -11.57014,-17.99593 0.82001,-4.37109 4.00616,-5.38507 10.08751,-3.21036 1.11342,0.39815 0.5092,-0.63404 -1.80346,-3.08089 -4.10578,-4.34399 -7.82438,-9.7293 -7.82438,-11.33132 0,-1.67586 2.96249,-1.3861 4.2932,0.41991 0.63174,0.8574 3.50326,4.46113 6.38114,8.00829 5.43824,6.70294 6.08885,8.0141 3.97672,8.0141 -1.7504,0 -1.63424,0.32694 1.64049,4.61708 2.61523,3.42613 4.62148,8.23994 4.63387,11.11854 0.006,1.40399 -3.78171,5.19468 -5.1898,5.19381 -0.59651,-3.6e-4 -2.67782,-0.78931 -4.62515,-1.75323 z m -64.66661,-1.19981 c -5.94797,-2.67487 -9.23415,-7.82448 -9.23415,-14.47041 0,-13.75843 18.6334,-17.86145 26.58028,-5.85289 1.84226,2.78382 2.30325,4.44389 2.30325,8.29411 0,5.16982 -1.3966,7.90282 -5.66813,11.09199 -2.93913,2.19438 -10.11596,2.67546 -13.98125,0.9372 z m -137.78298,-6.63609 c -1.13022,-1.13022 -2.05496,-2.50989 -2.05496,-3.06593 0,-1.97192 7.80859,-14.29542 9.5652,-15.09579 4.35899,-1.98609 9.60651,3.75833 8.34098,9.13078 -2.19458,9.31644 -10.71269,14.16947 -15.85122,9.03094 z m 22.31666,-8.46055 c -6.43447,-5.41424 -2.60919,-16.7732 6.20546,-18.42685 3.99205,-0.74891 6.88232,0.13385 9.71598,2.96752 2.80278,2.80278 3.25825,7.66262 1.10789,11.82097 -3.01176,5.82411 -12.11922,7.76994 -17.02933,3.63836 z m 94.88841,-11.59219 c -6.94667,-3.02578 -9.56052,-12.09751 -4.77241,-16.56334 3.38893,-3.16083 5.51037,-4.02635 9.86883,-4.02635 l 3.90918,0 -2.59833,-2.95935 c -5.87851,-6.69525 -1.06789,-15.45913 8.48574,-15.45913 l 2.60305,0 -1.88931,-2.01108 c -4.97771,-5.29853 0.87654,-8.65462 10.6331,-6.09567 6.99795,1.83542 11.05723,4.80275 11.05723,8.08284 0,1.96879 0.43709,2.49848 2.42133,2.93429 3.95126,0.86784 9.60114,4.9452 11.34328,8.18612 2.17644,4.04886 0.91868,7.32198 -2.8136,7.32198 -2.98359,0 -3.87386,1.08954 -2.09595,2.56507 3.30718,2.74473 4.79211,9.74245 2.84098,13.38817 -2.18474,4.08223 -9.49459,5.29677 -14.99384,2.49127 -10.3108,-5.26018 -8.40295,-20.11892 2.58325,-20.11892 l 2.71742,0 -2.57538,-2.72091 c -3.49798,-3.69564 -4.59067,-6.05781 -3.96161,-8.56416 0.45958,-1.83115 0.25469,-2.11019 -1.5495,-2.11019 -1.14352,0 -3.33285,-0.25074 -4.86517,-0.55721 l -2.78606,-0.55721 1.78632,2.27093 c 5.22403,6.64128 1.82783,13.43193 -7.60249,15.20108 l -3.16769,0.59426 2.04782,2.19843 c 5.81931,6.24728 5.06848,13.73408 -1.65924,16.5451 -3.44988,1.44145 -11.62007,1.42179 -14.96695,-0.036 z m -104.18775,-6.98513 c 0.003,-1.89545 9.77937,-14.44176 11.25293,-14.44176 3.51692,0 1.67235,8.1992 -2.86546,12.737 -2.31269,2.31269 -3.87568,3.16987 -5.77997,3.16987 -1.92867,0 -2.60943,-0.3825 -2.6075,-1.46511 z m 19.91135,-3.18386 c -1.45001,-0.78701 -2.62709,-2.41845 -3.25358,-4.50948 -1.38591,-4.62579 0.9016,-8.92307 6.20187,-11.65067 11.7873,-6.06596 20.81515,8.17014 9.862,15.55146 -3.32451,2.24039 -9.2824,2.52347 -12.81029,0.60869 z m 28.90659,-6.19301 c -11.76011,-7.17065 1.59019,-23.22136 14.2986,-17.19082 3.00552,1.42621 5.53314,5.11543 5.52843,8.06908 -0.0125,7.84106 -12.503,13.58751 -19.82703,9.12174 z m 33.64402,-3.72747 c -10.73946,-4.74052 -7.63908,-16.94363 4.72363,-18.5922 l 3.88642,-0.51827 -2.00271,-2.95116 c -2.43478,-3.58784 -2.47245,-4.40614 -0.32831,-7.13197 0.92093,-1.17076 1.67374,-2.25761 1.67291,-2.41521 -8.2e-4,-0.15761 -3.61305,-0.28655 -8.02718,-0.28655 -7.69155,0 -8.10702,-0.0946 -9.97883,-2.27212 -1.91565,-2.22851 -2.05101,-2.25489 -7.0527,-1.37385 -5.92328,1.04336 -10.93955,0.38493 -10.93955,-1.43591 0,-1.88132 3.6276,-2.87156 10.51955,-2.87156 3.42348,0 6.22452,-0.35136 6.22452,-0.78078 0,-1.01887 -1.82425,-1.50155 -7.95343,-2.10443 -4.6898,-0.46129 -8.33613,0.19168 -18.52222,3.31693 -1.57913,0.4845 -1.84012,0.13232 -2.33182,-3.14654 -0.74018,-4.93591 -0.15331,-6.10501 4.09759,-8.16284 8.00886,-3.87702 22.12019,-4.17845 40.19815,-0.85867 8.7263,1.60247 21.24931,4.5921 21.71451,5.18393 0.11818,0.15035 1.24304,2.19379 2.49969,4.54097 1.98534,3.70825 2.90743,4.51904 7.03519,6.18595 2.6127,1.05509 5.31549,2.45418 6.00618,3.1091 1.11199,1.0544 1.06406,1.33298 -0.4186,2.43274 -3.11755,2.31243 -13.14059,-0.56331 -16.6978,-4.79082 -1.79921,-2.13824 -2.65577,-2.44909 -7.24367,-2.62876 -5.03422,-0.19715 -5.22376,-0.12901 -5.83741,2.09854 l -0.63425,2.30231 4.81914,0 c 12.20325,0 18.49118,9.809 9.25687,14.44047 -1.60521,0.80509 -4.33135,1.46439 -6.05808,1.46511 -1.72673,7.1e-4 -3.13952,0.17026 -3.13952,0.37676 0,0.20651 0.94186,1.39175 2.09301,2.63386 3.01821,3.25671 2.92251,8.46181 -0.2093,11.38281 -1.26627,1.18104 -3.12521,2.57012 -4.13098,3.08684 -2.46847,1.26821 -10.14446,1.13216 -13.241,-0.23468 z m 79.45068,-2.88927 c -4.53819,-3.32052 -6.48448,-5.69634 -5.90456,-7.20761 0.77507,-2.0198 1.75955,-1.58524 6.75798,2.98303 6.68786,6.11234 6.04896,9.27496 -0.85342,4.22458 z m -142.29588,-6.90906 c -0.84054,-1.36001 4.21695,-6.12054 5.84046,-5.49754 2.15821,0.82819 1.53018,2.97778 -1.39022,4.75838 -3.14381,1.91681 -3.66854,2.00397 -4.45024,0.73916 z m 18.2641,-2.97721 c -1.66313,-0.67108 -1.21675,-2.64763 0.83721,-3.70704 1.03604,-0.53439 3.84284,-2.4627 6.23733,-4.28513 5.02527,-3.82469 7.78583,-3.80883 7.78583,0.0447 0,3.07013 -2.15001,5.92464 -5.52435,7.33453 -2.74516,1.147 -7.27534,1.44441 -9.33602,0.61291 z m 28.9274,-2.7848 c -1.70259,-0.3129 -3.66343,-1.04013 -4.35739,-1.61608 -1.23658,-1.02626 -5.52362,-7.85488 -5.52362,-8.7983 0,-1.27929 2.06405,-0.15414 5.46053,2.97662 2.33848,2.15554 3.74871,2.98539 3.74871,2.20592 0,-1.26608 -2.98388,-5.60412 -4.57451,-6.65054 -0.47702,-0.31383 -1.6208,-1.14951 -2.54172,-1.85708 -1.63688,-1.25767 -1.62588,-1.2871 0.49051,-1.31313 1.24716,-0.0153 3.82681,1.26815 6.0852,3.02764 5.11514,3.98517 6.25367,3.09336 2.55008,-1.99747 -1.26338,-1.7366 -1.25966,-1.91305 0.051,-2.41601 2.21471,-0.84986 8.02654,1.27107 10.63741,3.88196 3.71796,3.71795 2.96845,8.85129 -1.62985,11.16288 -3.1507,1.58386 -6.74169,2.06522 -10.39636,1.39359 z m 99.2601,-8.19715 c 0.28274,-0.45751 1.86039,-1.08439 3.50587,-1.39308 1.95641,-0.36703 4.39533,-1.92097 7.04746,-4.49024 4.91673,-4.7631 6.28744,-8.93942 5.61366,-17.1038 -0.5705,-6.91287 -2.65505,-11.26931 -11.32234,-23.66213 -11.35699,-16.23865 -14.01914,-21.53706 -12.61942,-25.11611 0.54878,-1.40324 0.66568,-1.26765 0.72185,0.8372 0.10387,3.89237 3.34072,9.91944 11.69016,21.7673 4.21847,5.98601 8.62771,12.82841 9.7983,15.20534 5.79029,11.75735 3.10414,26.4753 -5.76247,31.57374 -3.84986,2.21374 -9.53394,3.77468 -8.67307,2.38178 z m -59.74609,-28.34932 c -8.03128,-2.5769 -29.22251,-7.89413 -35.99976,-9.03291 -11.79314,-1.98161 -16.91991,-2.27819 -21.7673,-1.25922 -8.01448,1.68472 -7.8593,1.74268 -8.70773,-3.25242 -0.68223,-4.01658 -0.57749,-4.63307 1.06674,-6.27903 1.59697,-1.59865 2.91509,-1.86069 10.62116,-2.11149 5.57398,-0.18141 11.71623,0.21111 16.76178,1.07116 14.90082,2.53994 47.95044,11.73924 48.64113,13.53918 0.51789,1.34957 -4.48506,8.72796 -5.84232,8.61632 -0.55345,-0.0455 -2.70162,-0.62674 -4.7737,-1.29159 z m -4.62598,-19.1368 c -29.37399,-9.73467 -45.9383,-12.77278 -57.37343,-10.52306 -2.82682,0.55615 -5.35059,0.80025 -5.60839,0.54246 -0.25779,-0.2578 -0.73442,-2.21953 -1.05917,-4.35941 -0.75743,-4.99087 0.62999,-6.49496 7.26689,-7.87789 12.4799,-2.60045 31.8657,1.18245 71.86513,14.02359 8.05472,2.58583 10.08744,3.55179 10.25326,4.87241 0.20575,1.63868 -5.10238,9.67669 -6.28468,9.51676 -0.34087,-0.0461 -8.91769,-2.8338 -19.05961,-6.19486 z m 28.05721,-10.42116 c -2.99196,-1.75338 -39.44821,-13.60354 -49.99285,-16.25025 -12.82013,-3.21786 -26.58136,-5.14198 -31.33675,-4.38157 -1.71404,0.27408 -3.33637,0.14248 -3.60518,-0.29245 -0.2688,-0.43494 0.97395,-3.16713 2.76168,-6.07154 l 3.25041,-5.28075 5.76913,0.23337 c 10.26817,0.41535 27.90334,4.33155 43.8619,9.7403 2.07208,0.70228 10.31076,3.45478 18.30816,6.11665 12.11391,4.03202 14.66395,5.16326 15.27897,6.77798 1.11515,2.9278 0.88909,6.26448 -0.56505,8.34055 -1.43177,2.04415 -1.85668,2.16577 -3.73042,1.06771 z M 430.76469,447.2315 c -11.89182,-3.90881 -12.06369,-4.07052 -10.90272,-10.25902 0.5231,-2.78832 0.65921,-2.88219 3.42628,-2.36309 1.58486,0.29732 6.35434,1.74751 10.59885,3.22264 l 7.71731,2.68207 1.39204,4.60462 c 1.43617,4.75061 1.36499,5.92179 -0.35102,5.77532 -0.5484,-0.0468 -5.89473,-1.69496 -11.88074,-3.66254 z m -32.65094,-10.10947 c -7.87288,-2.37735 -25.494,-6.23577 -28.47826,-6.23577 -2.33347,0 -2.57671,-1.15442 -1.23481,-5.86043 1.47709,-5.1801 1.69806,-5.30808 7.20867,-4.17493 7.56725,1.55606 24.87305,6.71228 26.19574,7.80496 1.54418,1.27567 5.13246,9.03426 4.58667,9.91735 -0.55129,0.89202 -0.47235,0.90586 -8.27801,-1.45118 z m 79.14586,-0.80891 c -0.0166,-0.46868 0.91566,-2.24398 2.07161,-3.94511 1.15594,-1.70112 2.53383,-4.14321 3.06198,-5.42687 0.72379,-1.75916 1.04336,-1.98695 1.29766,-0.92501 0.18557,0.77489 -0.23063,2.47023 -0.92489,3.76742 -1.65891,3.0996 -5.46796,7.61645 -5.50636,6.52957 z m -48.4671,-7.32097 -6.99541,-2.58411 0.55871,-4.24922 c 0.30729,-2.33707 0.91008,-4.605 1.33955,-5.03984 0.48903,-0.49514 2.73812,-0.17047 6.0181,0.86875 l 5.23725,1.65938 1.81519,5.39178 c 2.62293,7.79108 2.53455,7.8349 -7.97339,3.95326 z m 47.50286,-14.22207 c -4.68994,-8.23798 -28.49922,-47.75509 -32.77846,-54.40356 -2.3986,-3.72661 -5.10157,-5.6421 -6.28776,-4.45591 -0.28907,0.28907 -0.56308,2.86648 -0.6089,5.72758 -0.1299,8.11012 -3.67895,13.15109 -8.42098,11.96091 -2.0297,-0.50942 -4.27512,-3.54627 -3.32476,-4.49663 0.28848,-0.28849 1.25575,-0.0678 2.14948,0.4903 3.70728,2.31523 6.31935,-0.0971 7.11869,-6.5744 0.70606,-5.7213 -0.64002,-7.36624 -8.5556,-10.45513 -3.7686,-1.47063 -9.18011,-4.22851 -12.02555,-6.12862 -2.84545,-1.90012 -5.48169,-3.45476 -5.85834,-3.45476 -0.37663,0 -1.49363,1.13591 -2.4822,2.52424 -5.59046,7.85106 -18.67252,6.08814 -23.03452,-3.10409 -1.57208,-3.3129 -1.57199,-3.3108 -0.53464,-14.08337 0.39972,-4.15085 1.37945,-8.80919 2.17721,-10.35186 1.41709,-2.74037 1.40068,-2.91576 -0.71377,-7.62736 -1.19031,-2.65238 -2.1642,-5.34582 -2.1642,-5.98544 0,-3.25019 -3.48147,-9.91402 -7.19819,-13.77796 -8.01871,-8.33634 -16.56483,-22.08879 -19.45964,-31.31454 -3.86023,-12.3025 -4.37076,-14.84795 -4.66266,-23.24719 l -0.31226,-8.98515 -5.32302,0.24018 c -4.0898,0.18454 -6.68075,0.91847 -11.18345,3.16791 -9.70424,4.84798 -10.3337,5.29807 -14.63034,10.46101 -7.73596,9.2957 -11.05719,16.83672 -12.87974,29.2441 -0.8222,5.59727 -1.35681,7.1735 -2.50824,7.39525 -2.99294,0.57638 -13.40122,-6.6815 -21.88831,-15.26314 -20.12437,-20.34853 -28.66225,-46.2856 -23.00469,-69.88556 4.38273,-18.28211 17.71412,-33.83822 33.86314,-39.51414 5.77438,-2.02953 5.82194,-1.99909 9.13106,5.84509 8.6108,20.41164 30.3049,40.95973 49.06636,46.47438 4.53818,1.33392 4.60804,1.32761 6.05111,-0.54724 0.80296,-1.04321 1.4683,-2.18839 1.47854,-2.54483 0.0102,-0.35645 1.36301,-2.6169 3.00616,-5.02323 4.59629,-6.73111 13.89266,-14.98924 20.97545,-18.63285 3.45304,-1.77637 6.46487,-3.53168 6.69294,-3.9007 0.22807,-0.36903 -1.11542,-4.48472 -2.98552,-9.14598 -4.11248,-10.25041 -6.74031,-22.53418 -6.74031,-31.50756 0,-7.43301 1.33287,-19.19949 2.67928,-23.65261 1.03845,-3.43453 6.19334,-14.727102 7.3807,-16.168559 0.45038,-0.546764 2.31794,-3.066195 4.15013,-5.598737 9.19135,-12.70475 27.86975,-22.575428 42.71974,-22.575428 6.44106,0 15.18998,2.305488 22.6045,5.956663 10.12773,4.987252 20.68135,15.600837 26.09831,26.246609 2.10871,4.144152 4.30284,9.041792 4.87586,10.883642 1.52809,4.91171 2.05339,5.11012 5.75902,2.17521 4.50252,-3.56606 16.15024,-8.90042 22.05515,-10.1007 7.08461,-1.440065 19.43885,-1.267737 25.76925,0.35945 7.77551,1.99866 16.14988,7.22674 23.59556,14.73059 5.34665,5.38841 7.13889,7.94621 10.61388,15.14757 5.68384,11.77884 7.14049,18.90707 6.62504,32.42015 -0.34425,9.02497 -0.79531,11.73195 -3.08647,18.52306 -6.41392,19.01127 -20.07755,37.80738 -33.81988,46.5237 -2.12685,1.349 -3.88076,2.73022 -3.89757,3.06938 -0.0168,0.33917 1.28803,1.16762 2.89965,1.84099 1.61162,0.67338 2.93021,1.60704 2.93021,2.07479 0,1.66385 -3.58249,2.77935 -7.29279,2.2708 -3.19095,-0.43737 -3.6643,-0.30822 -3.48151,0.9499 0.38952,2.68115 -0.98009,5.03427 -3.54962,6.0986 l -2.54739,1.05516 3.07321,1.05652 c 4.47029,1.53681 7.10047,4.32303 7.10047,7.52171 0,1.47497 -0.56511,3.15076 -1.2558,3.72399 -1.79223,1.48742 -1.59977,1.94561 1.52389,3.62781 4.79444,2.58197 7.04354,8.84035 4.73032,13.16264 -1.12032,2.09333 -5.12718,4.14048 -8.09635,4.13651 -3.47949,-0.005 -7.71522,-2.97251 -9.15281,-6.41313 -1.46221,-3.49956 -0.95417,-6.57146 1.52638,-9.22945 l 1.70957,-1.83185 -3.23674,-1.47282 c -1.78019,-0.81004 -3.51928,-1.61826 -3.86463,-1.79603 -0.34535,-0.17777 -0.6279,1.16434 -0.6279,2.98247 0,8.14949 -9.77604,12.01002 -16.04544,6.3363 -2.22889,-2.01713 -2.76743,-6.31134 -1.17716,-9.38657 2.39905,-4.63927 8.44513,-6.4321 13.24588,-3.92779 2.20036,1.14782 2.30231,1.11355 2.30231,-0.77389 0,-3.16494 0.86558,-4.59477 3.65957,-6.04516 l 2.61946,-1.35981 -2.51161,-0.81149 c -3.96164,-1.27999 -5.62485,-3.15248 -5.22429,-5.88164 0.3494,-2.38062 0.32873,-2.39268 -3.19359,-1.86448 -4.27318,0.6408 -7.9076,-0.14279 -7.9076,-1.70489 0,-1.3076 7.11961,-3.59929 12.15219,-3.91161 2.73381,-0.16966 3.31509,0.0574 3.2198,1.25807 -0.0949,1.19532 0.5768,1.4651 3.64769,1.4651 2.91607,0 3.6607,-0.2691 3.30556,-1.19459 -0.25213,-0.65702 0.0843,-1.64501 0.74763,-2.19552 0.66332,-0.55051 1.20604,-1.87263 1.20604,-2.93805 0,-1.15853 1.87073,-4.06169 4.65437,-7.22302 25.42142,-28.87076 35.10846,-71.18068 22.53479,-98.42482 -1.54072,-3.33835 -2.97468,-6.06972 -3.18658,-6.06972 -0.21192,0 0.29906,2.19884 1.1355,4.88632 5.24432,16.85004 3.91632,39.91501 -3.52401,61.20533 -5.01075,14.33818 -16.80658,36.0472 -19.58661,36.0472 -0.86549,0 -1.21656,-1.1993 -1.28666,-4.39532 -0.14276,-6.50845 -0.10846,-6.64255 3.88533,-15.18901 10.71013,-22.91906 16.64933,-51.85391 14.62464,-71.24901 -0.73798,-7.06936 -2.52637,-14.66704 -3.97493,-16.8869 -0.35056,-0.53722 -0.65619,5.11391 -0.67917,12.55806 -0.0315,10.20609 -0.51175,16.21153 -1.95269,24.41847 -3.76236,21.42871 -11.58389,47.65573 -14.05514,47.12949 -0.63558,-0.13534 -2.46317,-3.25935 -4.06133,-6.94225 l -2.90574,-6.69616 5.43584,-21.76876 c 7.36203,-29.48256 11.99587,-55.67552 9.84964,-55.67552 -2.18378,0 -12.21432,28.61665 -18.68403,53.30464 -1.91019,7.28918 -3.64228,13.53423 -3.8491,13.87789 -0.5516,0.9166 -4.43387,-1.32616 -7.99555,-4.61895 l -3.10995,-2.87517 1.717,-6.1932 c 5.48355,-19.77911 13.24751,-38.06009 20.45213,-48.15647 2.09531,-2.93631 3.50806,-5.33508 3.13945,-5.33061 -1.33933,0.0162 -8.28863,6.08238 -11.65423,10.17313 -6.97051,8.47237 -14.62493,24.24642 -18.62541,38.3828 -0.95587,3.37772 -2.0893,6.49266 -2.51874,6.9221 -1.19699,1.19699 -7.55451,-0.1829 -8.43663,-1.83116 -0.54935,-1.02647 0.0666,-3.96021 2.10997,-10.0509 5.25475,-15.6623 11.441,-26.24863 20.95516,-35.85996 3.30461,-3.33835 5.74793,-6.06973 5.42961,-6.06973 -1.11935,0 -8.32699,4.92419 -11.79907,8.061 -7.99833,7.22602 -15.82711,19.89011 -20.14663,32.58989 -1.34698,3.96022 -2.44905,7.7092 -2.44905,8.33107 0,2.00036 -2.55301,3.76188 -5.45221,3.76188 -1.55156,0 -3.05427,-0.37744 -3.33938,-0.83875 -0.83067,-1.34405 2.75272,-13.1848 6.24628,-20.63984 4.23341,-9.03387 7.40111,-13.57235 15.04637,-21.55745 5.08705,-5.31316 5.76921,-6.30336 3.46056,-5.02322 -4.30592,2.38763 -15.16075,13.61679 -18.33134,18.9635 -4.25321,7.17239 -8.28372,17.14489 -9.56002,23.65393 -1.00036,5.10176 -1.46764,6.02525 -3.60963,7.1336 -16.87206,8.7303 -24.49051,15.68252 -31.21954,28.48939 -4.31848,8.21904 -5.92069,14.47613 -7.32639,28.61167 -0.30796,3.09671 -0.85624,5.44725 -1.2184,5.22343 -0.36217,-0.22384 -1.49263,-2.94589 -2.51213,-6.049 -2.77856,-8.45723 -3.76242,-9.9931 -7.10899,-11.09756 -1.65048,-0.54471 -3.15927,-0.83199 -3.35285,-0.6384 -0.1936,0.19359 1.08742,4.65785 2.84671,9.92058 l 3.19868,9.56861 3.69772,0.2292 c 2.03375,0.12606 4.4512,0.54999 5.37212,0.94206 0.92093,0.39208 3.93486,1.37039 6.69763,2.17403 14.54191,4.22998 29.08608,15.77742 35.01479,27.80022 2.51747,5.10515 2.69198,5.26408 5.25295,4.78364 3.33323,-0.62533 5.35987,1.8668 5.35987,6.59096 0,6.248 -3.67375,10.64233 -8.89722,10.64233 -3.42462,0 -3.62087,0.13805 -4.46301,3.13951 -0.48448,1.72673 -1.32088,5.49464 -1.85867,8.37313 -0.91418,4.89313 -0.86307,5.35608 0.78576,7.11623 2.30259,2.45805 3.54874,5.85393 3.55262,9.68126 l 0.003,3.08501 1.62648,-2.66748 c 4.21799,-6.91765 12.41781,-5.83762 15.14837,1.99527 2.00278,5.74578 -2.89587,13.64887 -8.46032,13.64887 -3.92543,0 -7.45481,-3.79731 -8.17037,-8.79064 l -0.59988,-4.18602 -1.12126,2.69315 c -0.61669,1.48124 -1.64584,3.12852 -2.28699,3.66063 -1.8174,1.50831 -1.41319,2.30722 1.97378,3.9012 3.21786,1.51439 5.51933,4.98237 6.52879,9.83791 l 0.52217,2.51161 1.27858,-2.51161 c 3.04455,-5.98058 9.14047,-7.308 13.50721,-2.94127 2.66705,2.66706 4.05637,7.71953 3.04363,11.0687 -0.72326,2.39184 -4.51746,6.52363 -5.99062,6.52363 -1.85374,0 -1.22744,1.23763 1.41672,2.79957 3.26063,1.92611 5.1798,5.71908 4.85717,9.59954 -0.27566,3.31564 -1.17356,3.6141 -6.69275,2.22462 -2.15326,-0.54209 -2.26384,-0.40983 -2.57464,3.07927 -0.30165,3.38623 -0.33517,3.31423 -0.47102,-1.01159 -0.12507,-3.98238 -0.51024,-5.00599 -2.65788,-7.06356 -3.04373,-2.91608 -3.13,-4.11148 -0.47431,-6.57269 l 2.03731,-1.8881 -2.84566,-2.2706 c -1.83859,-1.46705 -3.17468,-3.49255 -3.77541,-5.72349 l -0.92976,-3.4529 -1.5984,2.62836 c -1.80299,2.96477 -2.85024,3.27873 -4.012,1.20279 -0.69893,-1.24891 -0.97666,-1.27711 -2.24131,-0.22754 -1.84025,1.52728 -1.43444,6.98853 2.09457,28.18798 2.35837,14.16721 3.42023,24.6764 1.71765,16.99972 -0.35742,-1.61162 -1.90305,-10.97716 -3.43472,-20.81231 -2.0148,-12.93739 -3.12128,-18.01119 -4.00146,-18.34895 -1.40166,-0.53787 -5.97821,4.1727 -5.97821,6.15326 0,1.39619 12.05735,43.66012 13.5368,47.44976 1.26487,3.23999 2.71187,2.93913 2.01327,-0.4186 -0.31136,-1.4965 -0.72192,-4.60462 -0.91235,-6.90693 l -0.34624,-4.18602 0.87102,3.76742 c 0.47906,2.07208 1.03807,4.61508 1.24225,5.65112 0.20418,1.03604 0.79473,1.88371 1.31233,1.88371 0.89266,0 0.60696,-22.10102 -0.54654,-42.27879 -0.27356,-4.78539 -0.17443,-5.89231 0.3472,-3.87697 0.40154,1.55136 0.96679,11.53502 1.25611,22.1859 0.62761,23.10458 1.0864,28.37295 2.43175,27.92454 0.61758,-0.20585 1.35643,-4.63784 1.99683,-11.97785 0.55908,-6.40812 1.3591,-14.28831 1.7778,-17.51154 1.34282,-10.3372 1.12617,0.20459 -0.2753,13.39526 -1.48876,14.01228 -1.62594,20.37189 -0.4133,19.15925 0.46745,-0.46746 2.16114,-5.723 3.76374,-11.679 5.52751,-20.54268 8.19125,-29.69837 8.53915,-29.35047 0.31225,0.31225 -1.76989,8.58744 -9.71582,38.61429 -1.34036,5.06509 -2.89122,11.46969 -3.44634,14.23247 -1.91526,9.53186 -3.57669,9.41965 -9.29682,-0.62791 z m 0.0969,-10.33896 c 0,-0.27599 -3.2522,-11.67243 -7.22711,-25.32541 -3.9749,-13.65298 -7.4095,-25.67127 -7.63243,-26.70731 -0.22293,-1.03604 -0.94153,-1.88371 -1.59689,-1.88371 -1.48369,0 -7.53424,3.04232 -8.20319,4.12471 -0.27188,0.4399 2.95508,8.0743 7.17103,16.96534 4.21593,8.89103 9.48517,20.02712 11.70943,24.74686 2.22425,4.71974 4.43447,8.58134 4.91162,8.58134 0.47715,0 0.86754,-0.22582 0.86754,-0.50182 z m -13.26022,-20.58224 c -13.31146,-28.67 -13.1035,-28.31096 -16.39811,-28.31096 -1.59159,0 -3.07475,0.29278 -3.29591,0.65063 -0.22117,0.35785 4.49233,8.74035 10.47444,18.62778 12.06428,19.94026 15.0129,24.46732 15.57213,23.90808 0.20814,-0.20814 -2.65051,-6.90212 -6.35255,-14.87553 z m -64.62472,-49.86896 c -0.0137,-0.34535 -1.49553,-2.32324 -3.29285,-4.39532 -3.64999,-4.20795 -4.78291,-3.99488 -5.60217,1.0536 -0.45532,2.80582 -0.33017,3.02553 1.91411,3.36042 4.24373,0.63326 7.00656,0.62585 6.98091,-0.0187 z m -21.74231,-49.32173 c 0,-0.76549 -1.11075,-3.12277 -2.46835,-5.2384 -4.10624,-6.399 -9.85614,-19.29198 -12.16421,-27.2757 -4.71005,-16.29227 -4.73057,-31.45679 -0.0625,-46.15674 1.13809,-3.58386 1.9224,-6.66296 1.74291,-6.84245 -0.67704,-0.67704 -3.84135,6.67867 -5.83997,13.57547 -6.16771,21.28348 -1.63712,44.23149 13.19636,66.8413 4.25809,6.49037 5.59572,7.70866 5.59572,5.09652 z m 2.06443,-21.87717 c -0.01,-2.16707 -1.05928,-7.33081 -2.33192,-11.47497 -3.91393,-12.74512 -4.97664,-21.05017 -4.55292,-35.58116 0.33891,-11.6228 0.64432,-13.78391 2.92734,-20.71417 2.81923,-8.55795 2.29267,-9.3159 -1.39577,-2.00914 -5.26084,10.42167 -6.33904,15.8533 -6.33869,31.93255 3e-4,13.40832 0.19456,15.34592 2.2902,22.84289 3.23674,11.57916 7.28861,21.0753 8.48293,19.88098 0.51527,-0.51526 0.92874,-2.7099 0.91883,-4.87698 z m 10.40169,-18.60207 2.69992,-3.35968 -1.66885,-8.15187 c -3.63695,-17.76548 -4.89936,-33.6224 -3.50871,-44.07246 0.54064,-4.06266 0.80113,-7.5685 0.57887,-7.79076 -0.73018,-0.73019 -3.62545,5.92407 -5.17665,11.89761 -2.19286,8.44452 -2.04904,27.67921 0.30393,40.64667 1.61237,8.88603 3.02245,14.19017 3.77237,14.19017 0.16457,0 1.51417,-1.51186 2.99912,-3.35968 z m 18.54377,-15.07581 c 1.82351,-0.93029 3.31546,-2.10196 3.31546,-2.60371 0,-1.27235 -5.31775,-20.74635 -7.77246,-28.46335 -1.88719,-5.93284 -6.50795,-13.28773 -8.34811,-13.28773 -0.78679,0 -0.68349,0.98991 1.57261,15.06967 1.22443,7.64139 4.96157,26.47098 5.85719,29.51143 0.5523,1.87496 1.31981,1.84265 5.37531,-0.22631 z m 149.26138,-16.7961 c 8.37337,-10.4663 15.23496,-24.14134 18.6587,-37.18653 1.91127,-7.28236 2.15244,-25.32554 0.43081,-32.23235 -1.19026,-4.77506 -4.31483,-12.81459 -4.79412,-12.3353 -0.15055,0.15054 0.27949,2.32827 0.95563,4.8394 7.13555,26.50087 -1.45081,57.59838 -23.0442,83.45992 l -5.42772,6.50055 4.02576,-3.29212 c 2.21418,-1.81066 6.35199,-6.19977 9.19514,-9.75357 z M 390.57891,418.26137 c -2.76277,-0.87367 -7.94297,-2.22205 -11.51155,-2.99642 -6.12908,-1.32997 -6.48833,-1.53218 -6.48833,-3.65203 0,-1.23425 0.42755,-3.47057 0.95011,-4.96959 0.8988,-2.57829 1.12171,-2.69805 4.12751,-2.2174 1.74758,0.27945 5.91508,1.36549 9.26112,2.41342 5.95891,1.86626 6.13112,1.99934 8.39481,6.4878 3.70999,7.35619 3.52732,7.5466 -4.73367,4.93422 z m 35.76706,-8.05421 c -1.31448,-1.11463 -1.65347,-2.10602 -1.30244,-3.80911 0.26099,-1.26627 1.02471,-2.30231 1.69714,-2.30231 1.67592,0 6.33434,4.78621 5.91159,6.07375 -0.54537,1.66099 -4.36499,1.6838 -6.30629,0.0377 z m -45.28647,-10.90826 -5.33339,-1.25225 0.52592,-3.83696 c 0.57054,-4.16253 1.47741,-5.15798 4.69904,-5.15798 2.9431,0 3.61132,0.65368 5.69522,5.57138 2.90606,6.85789 3.08149,6.71106 -5.58679,4.67581 z m 1.86146,-29.18033 c -2.33287,-3.5604 -2.53078,-12.57277 -0.35236,-16.04576 0.93867,-1.4965 2.08895,-2.72091 2.55618,-2.72091 1.12571,0 1.11114,0.0778 -0.80651,4.3039 -2.02515,4.46302 -2.11924,7.99168 -0.33219,12.45796 1.63452,4.08506 1.03603,5.21156 -1.06512,2.00481 z m 6.40631,1.53552 c 0.003,-0.34535 0.93059,-1.75813 2.06289,-3.13951 1.85777,-2.26643 2.06168,-2.34039 2.08886,-0.75767 0.0166,0.96468 -0.65886,2.37746 -1.50092,3.13952 -1.63903,1.4833 -2.65757,1.77442 -2.65083,0.75766 z m 114.17822,-10.62244 c -0.99832,-2.6016 4.92964,-7.16814 9.30517,-7.16814 4.86668,0 9.56186,4.58545 7.1585,6.9912 -0.52979,0.53032 -4.32252,1.09348 -8.44959,1.25463 -6.33536,0.24737 -7.56928,0.0815 -8.01408,-1.07769 z m 16.11571,-7.2289 c -4.0612,-3.19455 -2.05238,-11.35234 3.62067,-14.70349 l 2.35482,-1.39103 -3.2535,-3.09498 c -2.86378,-2.72426 -3.2535,-3.55829 -3.2535,-6.9629 0,-3.12681 0.49443,-4.43104 2.58049,-6.80692 3.84256,-4.37645 7.97976,-5.23098 13.1885,-2.72407 5.82249,2.80229 5.60864,12.74615 -0.36774,17.09964 -2.19257,1.59718 -2.20417,1.65687 -0.75278,3.87199 3.03345,4.62962 -0.0453,11.92293 -6.44416,15.26587 -3.10953,1.62449 -5.08447,1.48186 -7.6728,-0.55411 z m 12.86375,0.81424 c 0,-0.50651 1.30575,-2.22667 2.90166,-3.82259 2.33402,-2.33401 3.43955,-2.84992 5.65113,-2.63719 1.51221,0.14546 2.72816,0.64122 2.70213,1.10168 -0.026,0.46046 -1.85813,2.06161 -4.07133,3.55811 -4.03856,2.73075 -7.18359,3.51881 -7.18359,1.79999 z m -30.88384,-6.24577 c -6.68796,-5.62755 -2.02713,-18.32997 6.72572,-18.32997 2.77687,0 3.84362,0.4972 5.82532,2.7151 2.00466,2.2436 2.42593,3.45683 2.42593,6.98639 0,3.84536 -0.32414,4.59546 -3.25032,7.52164 -4.03762,4.03761 -7.81941,4.39456 -11.72665,1.10684 z m 38.4095,-5.60066 c -0.91244,-1.4965 -1.65211,-3.28603 -1.64372,-3.97672 0.035,-2.87866 3.28664,-8.21034 6.04817,-9.91706 4.68377,-2.89473 8.25904,-2.31626 10.32031,1.6698 1.83182,3.54234 0.76039,7.74964 -2.97292,11.67417 -2.64683,2.7824 -3.63255,3.27072 -6.60212,3.27072 -3.03984,0 -3.70504,-0.35146 -5.14972,-2.72091 z m 18.34554,-11.30225 c -2.79856,-7.33943 4.52573,-17.74156 11.03696,-15.67498 0.89966,0.28555 1.60321,1.26979 1.60321,2.24286 0,2.31791 -8.98638,15.73443 -10.53893,15.73443 -0.67285,0 -1.61841,-1.03604 -2.10124,-2.30231 z m -60.13216,-5.29692 c -2.23411,-2.23411 -2.57601,-3.17009 -2.57601,-7.052 0,-3.5432 0.43265,-4.99016 2.07606,-6.94325 6.38586,-7.58916 17.16686,-3.86181 17.1765,5.93848 0.007,6.5037 -4.17773,10.63278 -10.77454,10.63278 -2.59776,0 -3.89002,-0.56404 -5.90201,-2.57601 z m 45.05911,-2.66757 c -3.68096,-2.45174 -6.11598,-7.33544 -5.43923,-10.90901 1.14661,-6.05474 6.70998,-9.6079 12.22459,-7.80751 7.92357,2.58686 9.06131,15.5344 1.69958,19.3413 -3.34865,1.73166 -5.14574,1.59933 -8.48494,-0.62478 z m -23.00589,-8.12561 c -3.47948,-1.40759 -6.21074,-5.72988 -6.21074,-9.82863 0,-11.5237 14.57069,-15.97358 19.71708,-6.02157 4.64563,8.98366 -4.35884,19.55075 -13.50634,15.8502 z m 38.65408,-5.11354 c -3.78699,-4.50058 -2.6018,-13.68424 2.20009,-17.04762 2.68436,-1.8802 5.1834,-1.61547 8.1263,0.86081 l 2.57585,2.16744 0.002,-4.05115 c 0.002,-5.46228 2.25571,-9.91156 5.02155,-9.91156 2.08008,0 2.09279,0.0465 2.05826,7.53483 -0.043,9.31858 -0.70984,12.13946 -2.86981,12.13946 -0.88927,0 -1.97965,-0.64828 -2.42306,-1.44061 -0.65529,-1.17093 -0.91,-0.81834 -1.36074,1.88371 -1.25555,7.52667 -3.62593,10.44054 -8.49317,10.44054 -1.95313,0 -3.25114,-0.69123 -4.83694,-2.57585 z m -62.12117,-4.94229 c -7.54977,-3.05046 -6.82862,-15.6656 1.08454,-18.97194 4.26339,-1.78135 7.94654,-0.88924 11.08463,2.68485 7.02662,8.00287 -2.179,20.32357 -12.16917,16.28709 z m 42.72278,-3.33943 c -0.95848,-0.38775 -2.748,-1.89974 -3.97672,-3.35998 -1.77171,-2.10557 -2.23403,-3.52528 -2.23403,-6.8605 0,-3.66646 0.36486,-4.57035 2.8465,-7.05199 2.29384,-2.29385 3.50045,-2.84649 6.21479,-2.84649 6.58311,0 11.4106,6.87175 9.44243,13.44091 -1.72571,5.75991 -7.20486,8.73641 -12.29297,6.67805 z m -61.44969,-2.77583 c -4.11749,-2.08334 -5.40257,-8.28214 -2.83758,-13.68747 3.71919,-7.8376 12.88559,-6.84052 14.24714,1.54973 0.72904,4.49255 -2.20637,10.43274 -5.92278,11.98555 -3.49024,1.45832 -2.93577,1.44294 -5.48678,0.15219 z m 36.0811,-8.66191 c -3.06466,-2.14657 -4.50286,-6.4332 -3.45901,-10.30977 1.21412,-4.50888 5.8043,-8.41887 9.87863,-8.41477 9.72113,0.01 13.52902,11.56719 5.92047,17.96935 -3.02932,2.54901 -9.23669,2.92889 -12.34009,0.75519 z m 41.84305,-1.32673 c -5.28155,-2.82269 -7.157,-10.06574 -3.77816,-14.59133 3.34537,-4.48075 8.72076,-4.61273 13.01397,-0.31952 3.18246,3.18245 3.44064,9.61912 0.52063,12.97976 -2.22718,2.56326 -6.85841,3.47992 -9.75644,1.93109 z m -62.87099,-5.75224 c -9.15884,-3.67262 -4.59126,-18.33162 5.71553,-18.3432 3.83014,-0.004 7.68091,3.84646 7.6766,7.67661 -0.008,6.89618 -7.63834,12.97381 -13.39213,10.66659 z m 76.26743,-6.24153 c -2.30736,-2.62793 -2.64394,-3.58013 -2.42689,-6.8658 0.19842,-3.00378 0.73123,-4.17121 2.50639,-5.49174 2.12818,-1.58316 2.37301,-1.59931 4.37336,-0.28864 2.36176,1.54749 4.97042,8.97831 4.52175,12.88032 -0.22884,1.9902 -0.68563,2.34727 -3.28079,2.56453 -2.57275,0.2154 -3.40782,-0.19506 -5.69382,-2.79867 z m -15.80609,-8.47391 c -5.76932,-2.84359 -8.75628,-10.96415 -5.30309,-14.41734 0.97439,-0.97439 1.77161,-1.93076 1.77161,-2.12528 0,-0.19452 -1.30626,-0.78478 -2.90281,-1.31169 -3.21115,-1.05978 -7.14364,-5.17653 -7.14364,-7.47836 0,-3.46673 4.30404,-5.12014 8.83955,-3.39574 1.8027,0.68539 2.45142,0.5816 3.25781,-0.5212 1.30105,-1.7793 3.30494,-1.10818 7.57693,2.53759 2.65843,2.26872 3.13732,3.07421 2.32295,3.90708 -0.7813,0.79904 -1.72839,0.83356 -3.97269,0.14476 -2.81434,-0.86374 -2.92577,-0.82051 -2.47843,0.96183 0.28863,1.15 -0.0342,2.28336 -0.84123,2.95313 -1.633,1.35526 -1.68846,2.55627 -0.11806,2.55627 1.70534,0 6.18856,3.97 7.62915,6.75579 1.78704,3.45575 1.50526,6.43605 -0.82923,8.77053 -2.39132,2.39133 -4.0209,2.52961 -7.80882,0.66263 z m -62.93254,-6.81049 c -2.82356,-2.82357 -3.15857,-4.93985 -1.339,-8.4585 1.67588,-3.2408 4.84022,-5.1109 8.59467,-5.07935 10.60368,0.0891 9.42914,14.19427 -1.30182,15.6336 -2.98349,0.40016 -3.71565,0.14245 -5.95385,-2.09575 z m 77.33266,-0.189 c -4.11528,-1.5565 -8.18126,-8.88004 -6.45209,-11.62135 1.72515,-2.73493 4.62062,-1.56909 7.95439,3.20278 1.74383,2.49607 3.1706,5.2142 3.1706,6.04028 0,1.95858 -2.46525,3.21329 -4.6729,2.37829 z m -58.53598,-8.9544 c -3.40671,-0.82994 -4.802,-2.92747 -4.3884,-6.597 l 0.38729,-3.43602 -3.6262,2.02673 c -3.64929,2.03962 -7.87909,2.32012 -8.45572,0.56074 -0.36524,-1.11439 10.51066,-7.85917 12.67284,-7.85917 1.17091,0 1.41994,0.48353 1.10299,2.14159 -0.32979,1.72516 -0.14527,2.03379 0.9489,1.58721 3.40945,-1.39154 6.04147,-1.8798 7.81027,-1.44886 6.71836,1.63685 6.43094,8.98262 -0.4798,12.26198 -2.97954,1.41388 -3.18952,1.44071 -5.97217,0.7628 z"
       id="path3099"
       inkscape:connector-curvature="0" />
    <path
       style="fill:#0f0d1b"
       d="m 405.64858,977.07926 c -1.84185,-0.17221 -8.05809,-0.71313 -13.81386,-1.20197 -23.16826,-1.96777 -43.92539,-6.20301 -52.23968,-10.65878 -3.57544,-1.91619 -4.31312,-2.71639 -4.52647,-4.91028 -0.2285,-2.34962 0.18334,-2.8907 3.97672,-5.22482 4.96769,-3.05664 4.72485,-1.15962 2.94978,-23.0432 -0.705,-8.69152 -1.07785,-16.00675 -0.82855,-16.25607 0.71422,-0.71422 2.8174,2.30758 5.71772,8.21515 2.45261,4.99559 2.6474,5.99103 2.37553,12.13945 -0.68894,15.58028 -0.89309,14.25984 2.16797,14.02157 2.35197,-0.18309 2.85967,0.14969 3.85201,2.52467 1.90428,4.55766 6.38827,7.72714 14.9172,10.54442 4.30315,1.42132 9.41879,2.83017 11.36809,3.13055 5.51331,0.84977 5.5408,-0.90828 0.17293,-11.06063 -2.49389,-4.71681 -4.25796,-8.85234 -3.92015,-9.19015 0.92407,-0.92411 20.18651,-2.75064 21.01373,-1.99263 0.39478,0.36175 0.85378,2.3836 1.01999,4.49302 0.37239,4.72618 2.00556,7.9809 6.39328,12.74107 4.13591,4.48691 5.96167,4.60822 10.52828,0.69932 5.60188,-4.79501 7.12481,-7.51952 7.65647,-13.69758 l 0.4747,-5.516 26.79052,0.0394 c 41.75623,0.0611 74.35152,4.20552 88.90576,11.30409 7.73185,3.7711 8.11645,7.3581 1.19296,11.12636 -4.83201,2.6299 -16.63648,5.86578 -28.02885,7.68335 -20.8396,3.32487 -29.97695,3.88588 -67.5117,4.1455 -20.49056,0.14165 -38.76253,0.1167 -40.60438,-0.0553 z M 305.60273,705.77753 c -19.48054,-1.86682 -28.42526,-3.64555 -35.79128,-7.11737 -8.94035,-4.21384 -9.57631,-8.49538 -2.25196,-15.16113 2.1233,-1.93237 4.59407,-5.271 5.55648,-7.50818 3.16656,-7.36087 9.21477,-10.41347 12.05226,-6.08292 2.47104,3.77131 8.62622,1.74111 10.8482,-3.57813 3.69089,-8.83571 13.07792,-11.90506 18.40546,-6.01819 2.90088,3.20544 10.62878,1.43878 12.43923,-2.84371 1.32624,-3.13712 5.19404,-7.14267 7.88894,-8.16988 4.03332,-1.53738 7.39332,-0.85399 11.12335,2.26237 2.73854,2.28797 4.16059,2.91771 5.98428,2.65006 1.60196,-0.23512 2.62225,0.0871 3.08879,0.97556 1.03935,1.97925 7.29375,27.0358 8.84424,35.43202 0.74293,4.02317 1.23471,8.92081 1.09283,10.88365 l -0.25796,3.56881 -5.02322,0.53704 c -5.10669,0.54596 -48.64607,0.68303 -53.99964,0.17 z m 94.20267,-18.84169 c -0.33005,-8.44443 -0.88417,-20.77985 -1.23137,-27.41207 -0.70735,-13.51194 -0.46752,-14.37562 5.84909,-21.06405 5.00193,-5.29636 14.76206,-6.44485 22.25803,-2.61914 3.27598,1.67196 7.08018,5.162 5.67841,5.20948 -5.02061,0.17005 -28.37651,3.398 -28.98436,4.00585 -0.52185,0.52185 0.10439,10.43829 1.76044,27.87657 1.41375,14.88662 2.29587,27.33066 1.96029,27.65344 -0.33558,0.32277 -1.97821,0.83809 -3.65029,1.14514 l -3.04013,0.55828 -0.60011,-15.3535 z m 41.95212,8.68347 c -0.22662,-0.36669 0.93209,-12.4464 2.5749,-26.84381 2.4539,-21.50561 2.80273,-26.52132 1.95468,-28.1059 -2.22521,-4.15786 3.34951,-9.92929 10.64806,-11.02378 5.32027,-0.79782 10.32901,1.39921 14.66288,6.4317 3.47643,4.03683 3.62314,4.10887 8.37032,4.10927 4.49668,3.8e-4 4.89382,-0.1593 5.72486,-2.3019 1.94634,-5.0181 2.99584,-6.53471 5.28274,-7.63395 4.66063,-2.24023 9.89135,0.88248 15.80406,9.43492 1.18211,1.70988 2.19897,2.17575 4.74899,2.17575 2.95156,0 3.33021,-0.25877 4.18976,-2.86325 1.20136,-3.64013 2.78839,-4.94296 5.91301,-4.85412 3.52511,0.10023 7.02097,2.89527 9.068,7.25015 1.51257,3.21785 2.26268,3.87342 5.33083,4.65894 1.96381,0.5028 4.01396,1.06155 4.55587,1.24167 1.30686,0.43439 2.55387,-1.17577 2.9112,-3.75899 0.47186,-3.41117 1.77896,-2.44122 5.07698,3.76742 4.24245,7.98657 4.12983,9.63494 -0.9996,14.63116 -10.34981,10.08103 -46.1162,22.56302 -88.76404,30.97745 -7.13716,1.40817 -13.80124,2.74337 -14.80906,2.96713 -1.00782,0.22375 -2.01782,0.10681 -2.24444,-0.25986 z M 266.26474,675.14046 c 0.0162,-1.60896 4.69973,-17.33814 5.35875,-17.99717 1.26921,-1.26921 2.2229,2.14694 1.95865,7.01592 -0.21039,3.87666 -0.83756,5.97945 -2.55941,8.58134 -2.18243,3.29788 -4.78033,4.60825 -4.75799,2.39991 z m 15.5521,-13.2502 c -5.02858,-5.97613 -1.2376,-20.45849 6.43723,-24.59167 6.22652,-3.35321 10.95359,1.20806 10.45548,10.08878 -0.70954,12.65066 -11.01009,21.49398 -16.89271,14.50289 z m 30.80845,-10.80273 c -4.84698,-1.9584 -7.72039,-9.52485 -6.13182,-16.14674 2.69869,-11.24941 14.48307,-15.63813 20.56829,-7.66001 8.10698,10.6288 -2.748,28.52943 -14.43647,23.80675 z m 49.47184,-0.88115 c -0.29593,-0.47883 0.91905,-2.32772 2.69996,-4.10864 3.99938,-3.99937 8.85788,-5.52446 13.56312,-4.25747 3.60912,0.97183 7.52734,3.73007 6.60877,4.65224 -0.3227,0.32395 -4.65523,1.30021 -9.62785,2.16944 -4.97262,0.86925 -9.86571,1.76823 -10.87352,1.99774 -1.00783,0.22952 -2.07454,0.0255 -2.37048,-0.45331 z m -15.12382,-7.02317 c -10.52038,-4.58058 -10.06895,-23.21749 0.70077,-28.93081 4.7848,-2.53833 8.75358,-1.88161 12.74396,2.10877 7.30019,7.3002 5.26769,21.59915 -3.71398,26.12834 -4.26433,2.15038 -6.08674,2.2803 -9.73075,0.6937 z m 187.4231,-5.85523 c -3.10132,-2.60959 -6.67344,-9.70629 -7.95067,-15.79554 -0.88688,-4.22821 -0.8397,-4.96447 0.39736,-6.20153 1.31348,-1.31348 1.51453,-1.30342 3.12769,0.15648 2.98593,2.70222 10.08633,15.96441 10.20256,19.05644 0.19613,5.21695 -1.76339,6.16132 -5.77694,2.78415 z M 277.975,637.05176 c 0,-1.5604 7.01044,-18.63186 7.65122,-18.63186 1.09956,0 0.78933,6.71832 -0.47366,10.25745 -1.77206,4.96562 -7.17756,11.27249 -7.17756,8.37441 z m 106.67768,-0.96379 c -6.15658,-2.79618 -9.19271,-8.66604 -8.54186,-16.51432 0.61349,-7.39791 6.64601,-13.64844 13.83949,-14.33964 4.38449,-0.4213 9.27747,1.4158 12.10822,4.54611 3.77532,4.17481 5.13143,12.70401 2.87756,18.09829 -2.1542,5.15569 -9.40748,9.82153 -15.19438,9.77412 -0.92093,-0.008 -3.21099,-0.7116 -5.08903,-1.56456 z m 43.54118,-4.96747 c -9.38112,-4.40615 -12.88397,-16.40491 -6.98025,-23.91028 4.10132,-5.21399 12.78193,-6.50769 19.33996,-2.88233 10.21546,5.64725 12.22041,20.4891 3.49619,25.88097 -4.1101,2.54018 -11.48572,2.96424 -15.8559,0.91164 z m 77.08197,-1.45912 c -7.63295,-3.96983 -13.45115,-15.1953 -11.28215,-21.76745 2.93004,-8.87809 14.79566,-4.02379 20.61312,8.43296 2.61038,5.58953 2.58154,9.9309 -0.0836,12.59611 -2.37998,2.37999 -5.597,2.63686 -9.24729,0.73838 z m -36.17556,-1.95295 c -1.47808,-0.92858 -3.60495,-3.11582 -4.72639,-4.86053 -4.90494,-7.63094 -4.95415,-15.2506 -0.12964,-20.0751 2.37794,-2.37795 3.34994,-2.77138 6.84677,-2.77138 5.26261,0 9.20698,2.6163 12.16214,8.06715 2.82389,5.20872 3.55158,9.23182 2.42596,13.41206 -1.32013,4.90259 -4.19126,7.19922 -9.48968,7.59081 -3.36896,0.24899 -5.03231,-0.0708 -7.08916,-1.36301 z M 295.00565,622.1314 c -1.95276,-1.95277 -2.11779,-2.63772 -1.80795,-7.5037 0.28257,-4.43764 0.77989,-5.89781 2.90364,-8.52542 5.49317,-6.79637 12.25251,-7.95529 15.03345,-2.57756 2.02646,3.91875 1.23244,10.62162 -1.71619,14.48746 -4.79034,6.28047 -10.59323,7.93894 -14.41295,4.11922 z m 31.7959,-7.57376 c -5.15263,-2.54107 -6.76027,-10.15722 -3.54568,-16.79767 2.18252,-4.50849 5.70263,-7.06942 10.45325,-7.60489 10.4694,-1.18005 15.16922,12.53215 7.21221,21.0424 -4.20715,4.49967 -9.33477,5.71992 -14.11978,3.36016 z m 31.79496,-8.66191 c -10.44112,-6.36631 -4.5626,-23.96535 8.32316,-24.91774 14.61878,-1.08048 18.17579,18.31331 4.65443,25.3772 -3.29183,1.71974 -9.78035,1.49001 -12.97759,-0.45946 z m 161.80905,-1.75206 c -3.04104,-3.36606 -4.66469,-6.44677 -4.66469,-8.85079 0,-0.68789 0.37857,-1.01674 0.84127,-0.73078 0.98615,0.60947 7.34609,9.84432 8.05883,11.70169 0.89358,2.32864 -1.1325,1.31444 -4.23541,-2.12012 z m -119.84601,-4.05546 c -10.41405,-4.72983 -11.04621,-17.8884 -1.12722,-23.46319 2.82776,-1.58929 4.34769,-1.86718 8.69762,-1.59019 8.53467,0.54344 13.8441,5.7205 13.8441,13.49896 0,9.71513 -11.63813,15.99462 -21.4145,11.55442 z m 100.76753,-2.53344 c -4.25242,-2.69681 -7.9911,-8.23269 -8.76003,-12.97102 -1.47156,-9.06818 9.78421,-6.25979 15.60736,3.89415 2.80872,4.8976 3.20906,8.22648 1.22764,10.20791 -1.89305,1.89304 -3.70716,1.63894 -8.07497,-1.13104 z m -64.26856,-1.01127 c -8.06842,-4.91857 -9.81217,-14.31662 -3.77627,-20.35252 3.2309,-3.2309 6.51317,-4.20679 11.3822,-3.38418 3.74244,0.63229 8.49061,4.2869 10.42192,8.02163 1.58516,3.06536 1.546,8.56582 -0.0834,11.71675 -2.92026,5.64717 -11.9421,7.65738 -17.94443,3.99832 z m 36.30637,-0.65536 c -4.10819,-1.8656 -7.35533,-5.88605 -8.63283,-10.68875 -0.76235,-2.86599 -0.68229,-4.12123 0.4421,-6.93136 1.6234,-4.05726 3.19024,-5.05713 7.92476,-5.05713 6.27609,0 12.16829,5.62404 13.72381,13.09923 0.83399,4.00772 -1.376,8.46838 -4.93159,9.954 -3.71869,1.55377 -4.3368,1.52651 -8.52625,-0.37599 z M 300.43616,590.3933 c -0.82905,-1.81957 -0.48238,-2.8697 2.83292,-8.58134 4.37345,-7.53462 6.70109,-8.67017 9.77135,-4.76698 4.485,5.70176 -0.81293,15.4216 -8.40576,15.4216 -2.65008,0 -3.42914,-0.38471 -4.19851,-2.07328 z m 24.69748,-6.65393 c -3.11437,-1.38765 -4.46124,-3.55117 -4.46124,-7.1662 0,-5.80713 4.41892,-10.0599 10.45292,-10.0599 7.1762,0 10.33943,6.03026 6.91393,13.18042 -1.94731,4.06468 -8.35487,6.07333 -12.90561,4.04568 z m 27.61598,-5.05622 c -8.98886,-3.90952 -5.19217,-18.86751 4.78902,-18.86751 6.57436,0 10.01717,3.4276 10.01717,9.97293 0,3.85411 -2.47851,7.33015 -6.39271,8.9656 -3.4114,1.42538 -5.00383,1.41194 -8.41348,-0.071 z m 146.33474,-5.08183 c -3.38128,-3.85106 -5.44606,-7.03184 -4.9116,-7.5663 0.36243,-0.36244 3.82345,3.51419 8.0883,9.05959 2.10673,2.73928 -0.56186,1.48485 -3.1767,-1.49329 z m -112.8798,1.31649 c -4.03833,-0.9717 -6.50957,-2.9018 -8.155,-6.36928 -1.21848,-2.56777 -1.31624,-3.65119 -0.55782,-6.18256 1.40959,-4.70478 4.33265,-6.95076 9.61641,-7.38894 8.0423,-0.66692 13.92563,3.91219 13.93268,10.8441 0.003,3.26832 -3.00463,7.78617 -5.68477,8.53833 -3.44399,0.96651 -6.64387,1.16174 -9.1515,0.55835 z m 33.04064,-3.74074 c -4.12873,-1.47329 -5.65382,-2.81292 -7.07615,-6.21564 -4.49773,-10.76013 12.14646,-16.98099 21.2028,-7.92466 3.62189,3.62191 4.01266,8.91516 0.87572,11.86217 -3.58914,3.37182 -9.44533,4.26109 -15.00237,2.27813 z m 59.02264,-1.40718 c -4.29421,-2.12559 -6.91992,-5.57525 -7.49242,-9.84353 -0.51583,-3.84585 1.22626,-5.97115 4.89451,-5.97115 3.10898,0 5.38565,1.13853 8.86933,4.43542 4.86634,4.60542 5.34963,10.01413 1.09813,12.28947 -2.27282,1.21638 -3.3395,1.08463 -7.36955,-0.91021 z m -23.50318,0.009 c -5.3206,-1.08818 -10.26962,-8.1382 -8.89467,-12.67073 1.13048,-3.7266 3.75999,-5.66427 7.68671,-5.66427 6.81832,0 12.09207,4.69326 12.25497,10.90606 0.14945,5.69932 -4.43379,8.78148 -11.04701,7.42894 z m -139.95269,-5.60918 c 0,-1.03635 7.82126,-10.46494 8.99994,-10.84951 2.72727,-0.88981 -0.84414,7.89105 -4.15179,10.20782 -1.98099,1.38754 -4.84815,1.76704 -4.84815,0.64169 z m 20.39177,-2.62949 c -4.39393,-1.87809 -5.74427,-7.43229 -2.73657,-11.25596 6.56111,-8.3411 19.07266,-4.48867 16.52213,5.08734 -1.27821,4.79905 -8.95405,8.23375 -13.78556,6.16862 z m 27.28007,-7.14227 c -4.12887,-2.24569 -4.96755,-7.8975 -1.72446,-11.62111 2.25572,-2.58997 5.65565,-3.89101 10.16809,-3.89101 3.62752,0 4.67087,0.37888 6.73921,2.44722 5.89181,5.89181 0.31566,14.35278 -9.40017,14.26334 -2.00249,-0.0184 -4.60469,-0.55773 -5.78267,-1.19844 z m 34.79273,-3.37512 c -8.36253,-2.95857 -9.42227,-10.9095 -1.96138,-14.71576 7.77138,-3.96466 19.12406,0.40488 19.12406,7.36069 0,2.74926 -3.98584,6.57264 -8.01941,7.69253 -4.14219,1.15005 -5.03149,1.11724 -9.14327,-0.33746 z m 30.73573,-1.24491 c -8.63076,-3.91718 -6.83446,-13.79065 2.70458,-14.86583 4.59959,-0.51844 8.15669,0.82876 10.94844,4.14657 2.53771,3.01589 2.66015,6.41933 0.32126,8.92984 -3.51836,3.77651 -8.25868,4.38351 -13.97428,1.78942 z m 33.73317,0.21216 c -5.31006,-1.34284 -11.42035,-8.25536 -10.17227,-11.50781 1.21197,-3.15836 10.1406,-0.26517 14.24877,4.61711 4.1918,4.98167 2.1334,8.4611 -4.0765,6.8907 z m 12.07188,-4.19732 -2.02964,-2.30231 2.30231,2.02964 c 2.15185,1.89702 2.68624,2.57498 2.02964,2.57498 -0.14996,0 -1.186,-1.03604 -2.30231,-2.30231 z m -137.88359,-6.22613 c 0.41717,-1.25149 2.31995,-1.94055 2.31995,-0.84013 0,0.44957 -0.5966,1.04632 -1.32577,1.32613 -0.81536,0.31289 -1.1981,0.12579 -0.99418,-0.486 z m 15.74697,-2.1459 c 0.0175,-0.34535 2.16506,-2.13487 4.77241,-3.97672 6.87571,-4.85703 6.87287,-4.85573 7.43406,-3.3933 0.89455,2.33117 -0.4859,5.42703 -2.99955,6.72688 -2.51673,1.30146 -9.26407,1.77278 -9.20692,0.64314 z m 30.66571,-2.44185 c -0.30698,-0.30697 -0.55814,-1.08045 -0.55814,-1.71882 0,-0.63838 -0.93187,-2.53207 -2.07083,-4.2082 -2.48889,-3.66273 -2.16785,-4.38279 0.88384,-1.98232 2.40342,1.89053 5.37301,2.36329 5.37301,0.85539 0,-0.50295 -0.75348,-1.87235 -1.67441,-3.04311 -0.92092,-1.17077 -1.6744,-2.50169 -1.6744,-2.95762 0,-1.26585 4.83353,-0.0316 7.60529,1.94214 4.68759,3.33785 2.57216,9.92821 -3.58191,11.15902 -3.21982,0.64397 -3.61629,0.63968 -4.30245,-0.0465 z m 57.22634,-1.8979 c -5.41002,-1.89006 -8.13886,-4.61902 -6.54237,-6.54267 1.55218,-1.87026 10.60429,-0.92246 15.56331,1.62954 3.06357,1.57657 3.9383,2.48056 3.9383,4.07004 0,1.86702 -0.36116,2.06068 -4.18602,2.2445 -2.46634,0.11853 -6.0705,-0.4572 -8.77322,-1.40141 z m -64.49002,-1.09512 c -2.67908,-4.02915 -2.62388,-4.29805 0.31141,-1.51713 3.38616,3.20805 3.49516,3.39388 1.9909,3.39388 -0.57993,0 -1.61597,-0.84454 -2.30231,-1.87675 z m 31.40305,-0.50232 c -3.71236,-2.26974 -4.86649,-3.99843 -4.26621,-6.3901 0.78,-3.1078 4.07995,-4.86529 9.13531,-4.86529 9.94476,0 16.03213,7.87643 8.92701,11.55063 -3.39487,1.75555 -10.69746,1.59928 -13.79611,-0.29524 z m 20.54688,-11.7925 c -2.69407,-0.94087 -5.44272,-2.62961 -6.69763,-4.11494 -1.965,-2.3258 -2.61043,-2.54004 -8.40742,-2.79069 -6.11457,-0.26439 -6.2771,-0.22034 -6.2051,1.68161 0.15244,4.02726 -8.39176,6.29321 -15.5622,4.12714 -3.68437,-1.11299 -3.76889,-1.21721 -3.83439,-4.7276 -0.0378,-2.02391 -0.55414,-3.8906 -1.18391,-4.27982 -0.61431,-0.37966 -4.02395,-0.94762 -7.57697,-1.26214 -5.26262,-0.46585 -7.66721,-0.24066 -12.97266,1.21487 -3.93061,1.07834 -6.81583,1.4835 -7.27741,1.02193 -0.42063,-0.42063 -0.64315,-2.03711 -0.49449,-3.59215 0.83263,-8.70998 24.51336,-9.90542 54.44497,-2.74847 9.461,2.26222 9.18211,2.08389 13.46022,8.60687 1.26123,1.92305 3.28252,3.39356 6.32925,4.60462 7.83284,3.1135 4.22557,5.13922 -4.02226,2.25877 z m -56.941,-4.19306 c -2.10509,-1.36746 -0.15733,-2.10761 6.4205,-2.43977 6.85173,-0.346 7.99442,0.90253 1.73655,1.89738 -1.96717,0.31273 -4.33015,0.7427 -5.25108,0.9555 -0.92092,0.2128 -2.22861,0.0269 -2.90597,-0.41311 z m 41.24883,-19.35238 c -24.58979,-7.12779 -44.10625,-9.95634 -52.53823,-7.61445 -3.91176,1.08645 -4.60956,0.44676 -4.6289,-4.24341 -0.0187,-4.53476 1.83185,-5.27618 12.96385,-5.19398 6.42323,0.0475 12.24851,0.7087 19.25568,2.18586 14.88468,3.1378 41.51904,10.78768 42.00954,12.06592 0.60004,1.56368 -2.90697,6.21085 -4.60167,6.09772 -0.77446,-0.0517 -6.38157,-1.53565 -12.46027,-3.29766 z m 6.86615,-16.00281 c -30.1804,-9.99545 -48.03927,-13.51074 -59.24092,-11.66082 -3.22755,0.53301 -6.02428,0.81312 -6.21494,0.62245 -0.19067,-0.19066 -0.4224,-1.96652 -0.51496,-3.94635 -0.1673,-3.57869 -0.14631,-3.60645 3.59913,-4.76054 2.70269,-0.83279 6.725,-1.05202 14.23247,-0.77572 8.70411,0.32034 12.71904,0.96336 23.86031,3.82142 15.16653,3.89067 43.5878,12.78924 44.83675,14.0382 0.84286,0.84286 -3.60185,7.91143 -4.86552,7.73782 -0.34246,-0.0471 -7.40401,-2.33146 -15.69232,-5.07646 z m 12.36498,-15.86656 c -14.81498,-5.35457 -35.29098,-11.48837 -45.85314,-13.73578 -3.68369,-0.78382 -10.46504,-1.59817 -15.06966,-1.80968 -4.60462,-0.2115 -8.83965,-0.53247 -9.41119,-0.71325 -0.72224,-0.22846 -0.32329,-1.55029 1.30827,-4.33452 2.8009,-4.77968 3.90488,-5.04648 14.77766,-3.57117 10.85491,1.47287 27.45838,5.88129 47.66208,12.65482 22.44643,7.52544 22.26732,7.43272 22.26732,11.52704 0,1.77364 -0.47093,3.60031 -1.0465,4.05927 -0.7321,0.58378 -5.12885,-0.64099 -14.63484,-4.07673 z m -0.0162,-18.57611 c -8.95614,-3.02253 -10.25574,-3.69433 -10.25574,-5.30146 0,-2.56571 0.84089,-4.48579 1.97328,-4.50578 0.52631,-0.009 4.85635,1.19589 9.62232,2.67817 9.04105,2.81189 9.24339,2.97637 10.67438,8.67789 0.67198,2.6774 0.40761,2.64332 -12.01424,-1.54882 z m -34.95325,-10.7446 c -4.60463,-1.32793 -12.61039,-3.21853 -17.79058,-4.20134 -5.1802,-0.9828 -9.41855,-2.12065 -9.41855,-2.52857 0,-0.40791 0.56008,-2.08212 1.24462,-3.72046 1.2192,-2.91795 1.31754,-2.96677 4.81393,-2.38977 6.64009,1.09581 25.90624,6.97394 27.4567,8.37709 1.7263,1.56228 3.53402,6.03916 2.64381,6.54749 -0.31784,0.1815 -4.34531,-0.7565 -8.94993,-2.08444 z m 33.90675,-7.38368 c -5.8553,-2.21908 -6.26697,-2.53687 -6.1004,-4.7092 0.39107,-5.09997 1.63643,-5.57357 7.57173,-2.87951 3.45448,1.56802 4.46765,2.9846 5.72898,8.01012 0.63304,2.52224 0.5548,2.51766 -7.20031,-0.42141 z m 50.937,-8.78108 c -0.53722,-1.17907 -0.74344,-2.37707 -0.45827,-2.66224 0.97949,-0.9795 3.10232,0.4741 3.10232,2.12429 0,2.58552 -1.56595,2.90412 -2.64405,0.53795 z m -87.77396,-1.40979 c -1.15115,-0.46278 -5.81768,-1.74613 -10.37004,-2.85192 -4.55237,-1.10578 -8.47033,-2.2038 -8.70656,-2.44004 -0.23623,-0.23623 -0.0688,-1.66037 0.37194,-3.16475 0.71588,-2.44313 1.11555,-2.72645 3.74262,-2.65304 1.61763,0.0452 5.64333,0.90296 8.94601,1.90612 5.43884,1.65199 6.16321,2.13431 7.68485,5.11698 2.58264,5.06239 2.3254,5.69232 -1.66882,4.08665 z m 34.53466,-7.97898 c -0.57558,-0.23225 -1.04651,-1.18467 -1.04651,-2.11649 0,-1.20094 0.38557,-1.54625 1.32428,-1.18604 0.72835,0.2795 1.46858,0.50818 1.64495,0.50818 0.17637,0 0.72393,0.75348 1.21679,1.6744 0.74309,1.38846 0.64089,1.66313 -0.59845,1.60831 -0.82201,-0.0363 -1.96549,-0.25611 -2.54106,-0.48836 z m -45.77795,-11.50758 c -4.58985,-1.08932 -5.10167,-1.74636 -3.87459,-4.97382 0.65462,-1.72179 1.40831,-2.21982 3.3593,-2.21982 2.08744,0 2.80303,0.56398 4.20673,3.31546 1.76859,3.46672 2.1244,5.12516 1.06352,4.95712 -0.34535,-0.0547 -2.48508,-0.54023 -4.75496,-1.07894 z m 124.4751,-37.01132 c -1.72914,-0.76204 -1.19861,-1.92794 1.67441,-3.67965 3.58902,-2.18828 8.27905,-2.17506 10.27364,0.029 0.93024,1.02789 1.22822,1.98687 0.75766,2.4384 -0.92663,0.88919 -11.21205,1.87055 -12.70571,1.21229 z m -14.44176,-4.45389 c -4.44488,-2.37892 -7.24872,-5.69062 -6.21091,-7.33588 2.36848,-3.75481 8.45101,-2.18712 10.81111,2.7864 2.57195,5.42001 0.62465,7.34584 -4.6002,4.54948 z m -62.79029,-3.73255 c -6.49913,-2.29623 -12.75004,-5.43884 -16.69742,-8.39455 -1.58596,-1.18754 -3.38182,-2.15915 -3.9908,-2.15915 -0.60899,0 -2.73167,1.69533 -4.71707,3.76741 -3.34023,3.48607 -3.92391,3.76742 -7.81554,3.76742 -5.3586,0 -9.12405,-2.42796 -11.68557,-7.53483 -1.75975,-3.50839 -1.83493,-4.28104 -1.09333,-11.23759 0.43799,-4.10859 1.43528,-9.49707 2.21619,-11.97441 1.22423,-3.8837 1.26511,-4.87299 0.29673,-7.18089 -0.6177,-1.47217 -2.242,-5.87425 -3.60956,-9.78242 -2.01715,-5.76458 -3.36667,-8.05586 -7.14994,-12.13946 -9.29683,-10.03483 -18.02995,-25.87253 -21.47232,-38.94044 -0.78842,-2.99301 -1.64409,-9.85945 -1.90149,-15.25876 -0.55066,-11.55057 -0.38158,-11.38323 -9.57233,-9.47405 -19.86034,4.12555 -34.31229,20.65689 -37.57689,42.98354 -0.59426,4.06421 -1.39931,6.86538 -1.97309,6.86538 -2.53022,0 -12.44528,-6.99099 -18.99801,-13.39526 -11.83501,-11.56689 -20.5096,-26.72684 -23.8709,-41.71746 -2.1837,-9.73878 -1.36223,-24.43646 1.88519,-33.72946 4.78271,-13.68643 14.22593,-24.83499 25.82011,-30.4829 10.133,-4.93612 9.78689,-5.01916 13.67662,3.28132 10.25809,21.89017 32.07141,41.88713 51.56237,47.26884 3.40235,0.93944 3.74357,0.71951 6.62673,-4.27111 1.26356,-2.18719 2.42876,-3.97671 2.58932,-3.97671 0.16056,0 -0.74885,2.55746 -2.0209,5.68325 -6.51927,16.01969 -6.84104,35.19842 -0.88087,52.5024 4.04122,11.73274 16.19317,32.00041 18.69316,31.17746 2.25249,-0.74147 1.41747,-4.31753 -2.69853,-11.55675 -5.26311,-9.25673 -9.3764,-19.09344 -11.88042,-28.41135 -2.54756,-9.4799 -2.78871,-29.25853 -0.45936,-37.67417 2.02754,-7.32524 7.29658,-18.08265 10.86677,-22.18589 l 2.91376,-3.34882 -3.73213,7.67653 c -8.41806,17.31491 -9.22203,38.66503 -2.28568,60.69869 3.07867,9.77954 6.76439,17.66514 8.05694,17.23781 0.58555,-0.1936 1.58691,-2.28799 2.22525,-4.65422 1.09576,-4.06183 1.03592,-4.68962 -1.07102,-11.23538 -4.36612,-13.56447 -5.81636,-22.62984 -5.79678,-36.23528 0.0203,-14.05552 1.45572,-21.30657 6.00043,-30.30958 2.46725,-4.88762 6.31582,-9.46695 4.78214,-5.69018 -3.40838,8.3933 -4.06834,12.12292 -4.44433,25.11611 -0.32188,11.12306 -0.0825,15.19648 1.4114,24.01393 2.21586,13.07902 3.55528,17.84626 5.01413,17.84626 0.61738,0 2.54745,-2.07208 4.28904,-4.60462 l 3.16652,-4.60462 -1.96978,-9.47856 c -4.05219,-19.49912 -4.75521,-40.17681 -1.70386,-50.11523 1.47538,-4.80543 1.63378,-4.06386 -3.70424,-17.34328 -5.95298,-14.80924 -7.96662,-35.2666 -4.76671,-48.42662 7.66136,-31.508225 35.93511,-52.255246 63.52104,-46.611167 2.44009,0.499242 7.90285,2.570703 12.13946,4.603245 13.8888,6.66324 25.51071,20.372955 30.3493,35.801382 1.23902,3.95073 2.45623,6.40827 3.17401,6.40827 0.64035,0 2.36354,-0.892 3.82932,-1.98222 6.76294,-5.03015 7.1111,-4.49183 0.88948,1.37534 -11.24339,10.60284 -18.63953,23.37031 -21.86449,37.74323 l -1.47605,6.57842 -7.11624,3.44537 c -5.7721,2.79461 -8.55624,4.87285 -14.74011,11.00287 -11.10825,11.01152 -15.76255,21.00095 -18.53896,39.78983 l -0.68041,4.60462 -1.9201,-5.01306 c -1.05605,-2.75718 -2.31836,-5.49295 -2.80515,-6.07947 -0.89502,-1.07844 -7.79438,-4.39574 -9.14231,-4.39574 -1.2997,0 -0.70458,2.73264 2.91725,13.39526 l 3.55472,10.46504 6.40394,0.58467 c 7.4808,0.68296 16.41453,3.59633 23.05619,7.51881 7.35004,4.34085 16.94796,14.28663 21.06312,21.82656 3.29202,6.03172 5.08439,7.65053 6.2975,5.68769 0.77459,-1.25332 2.63017,-0.1548 3.69825,2.18938 1.26441,2.77508 0.44659,6.92941 -1.95772,9.9447 -1.62074,2.03259 -2.53552,2.40798 -5.949,2.44118 l -4.03375,0.0393 -1.45659,5.77057 c -2.569,10.17766 -2.78295,13.55112 -0.94221,14.85673 4.16926,2.95719 4.84273,10.29979 1.40883,15.35992 -2.92472,4.30981 -2.51433,7.2227 1.15048,8.16597 4.24733,1.09321 7.02121,8.08563 5.48361,13.82317 -0.49339,1.84107 -2.82113,2.70454 -2.82113,1.04648 0,-1.82072 -3.36185,-0.73092 -4.51961,1.4651 -2.11318,4.00827 -10.77027,11.66865 -16.29734,14.42101 -7.37475,3.67245 -17.19491,4.20384 -25.22926,1.36522 z m -31.98547,-22.88104 c -2.09693,-2.65944 -4.37953,-4.94877 -5.07245,-5.08739 -1.424,-0.28488 -3.12786,3.75712 -3.12786,7.42012 0,2.19949 0.25805,2.35074 5.23253,3.06711 2.87788,0.41444 5.58079,0.45697 6.00645,0.0945 0.4426,-0.3769 -0.85825,-2.72904 -3.03867,-5.49436 z m 11.92041,-99.45347 c 2.28701,-1.15891 4.15819,-2.52082 4.15819,-3.02646 0,-1.39163 -3.94057,-15.85059 -7.26279,-26.64902 -2.3647,-7.68614 -3.71031,-10.56129 -6.75899,-14.44177 -5.1039,-6.49645 -6.3193,-6.41241 -5.60326,0.38746 0.89068,8.45845 6.71474,39.68886 8.35281,44.7904 0.50506,1.57292 2.5056,1.27467 7.11404,-1.06061 z M 519.4353,351.7766 c -1.87261,-2.85797 -0.96375,-5.86398 2.95901,-9.78673 2.51773,-2.51774 3.8347,-3.19603 6.20543,-3.19603 6.47451,0 6.97492,7.16019 0.87475,12.51621 -3.77927,3.31824 -8.04092,3.51629 -10.03919,0.46655 z m 15.56126,1.31867 c 0,-1.03667 3.37216,-3.41778 4.84031,-3.41778 0.61541,0 0.88444,0.37942 0.59783,0.84316 -0.80144,1.29678 -5.43814,3.49197 -5.43814,2.57462 z m -33.1076,-6.30994 c -2.70844,-2.70844 -2.76971,-7.52044 -0.14535,-11.41475 3.74877,-5.56279 9.82601,-5.38497 12.64017,0.36985 1.3406,2.74144 1.43043,3.69324 0.60776,6.43909 -1.90159,6.34693 -8.90102,8.80737 -13.10258,4.60581 z m 39.80523,-3.80547 c -2.99165,-2.99166 -1.56626,-8.87156 3.02639,-12.48413 4.1219,-3.24229 9.53167,-1.418 9.53167,3.21428 0,3.11953 -2.62073,7.68612 -5.37482,9.36556 -3.30216,2.01366 -5.0978,1.98973 -7.18324,-0.0957 z m -56.67951,-1.2584 c -0.98813,-0.69213 -2.23951,-2.60039 -2.78082,-4.24059 -2.9285,-8.87344 5.47855,-16.21239 11.58116,-10.10979 1.90439,1.90439 2.25157,2.96983 2.25157,6.90966 0,4.06576 -0.2987,4.91501 -2.349,6.6786 -2.67712,2.30277 -6.07811,2.60059 -8.70291,0.76212 z m 37.78609,-8.20554 c -4.49816,-3.86915 -2.51075,-11.97851 3.557,-14.51377 9.45205,-3.94932 15.62526,8.37283 7.4943,14.95915 -2.66125,2.1557 -8.29114,1.92881 -11.0513,-0.44538 z m 37.01008,-2.0006 c -0.93812,-0.93813 -0.57612,-6.07302 0.63199,-8.96443 0.64205,-1.53664 2.04448,-3.40826 3.11649,-4.15913 2.07533,-1.45361 5.38293,-1.81963 6.09095,-0.67401 0.44587,0.72142 -7.05236,12.94131 -8.48369,13.82592 -0.4512,0.27886 -1.06129,0.2661 -1.35574,-0.0284 z m -57.46524,-4.18745 c -9.07567,-3.38222 -6.14784,-17.83616 3.61294,-17.83616 2.81285,0 6.13653,2.84242 7.24263,6.19391 1.07497,3.25723 -0.58223,8.64565 -3.15267,10.25091 -1.95768,1.2226 -6.13233,1.97664 -7.7029,1.39134 z m 41.66142,-4.91425 c -4.89888,-2.65809 -6.24463,-9.43124 -2.70881,-13.63333 4.13275,-4.91149 10.51756,-3.93113 13.35617,2.05079 1.22461,2.58068 1.30856,3.61014 0.51135,6.271 -1.06258,3.54655 -4.39403,6.63973 -7.09612,6.58857 -0.97395,-0.0184 -2.80211,-0.5931 -4.06259,-1.27703 z m -65.87956,-4.24418 c -1.167,-1.4836 -1.73517,-3.42996 -1.73517,-5.94414 0,-3.13505 0.4593,-4.19753 2.84649,-6.58473 3.27498,-3.27498 5.24923,-3.54476 8.31173,-1.13581 3.96721,3.12062 3.65969,11.68118 -0.52492,14.6122 -2.89449,2.02737 -6.893,1.60159 -8.89813,-0.94752 z m 40.71713,-5.34201 c -4.66853,-3.67227 -4.70701,-10.79758 -0.0818,-15.14276 1.60099,-1.50405 3.08033,-2.00682 5.9048,-2.00682 3.19871,0 4.1381,0.41348 6.21159,2.73412 1.94623,2.17821 2.44293,3.51446 2.44293,6.57205 0,3.24843 -0.43721,4.27514 -2.84649,6.68442 -3.43603,3.43603 -8.14034,3.90479 -11.63106,1.15899 z m 43.11459,-1.70116 c -4.39508,-1.76388 -5.33919,-10.12481 -1.71761,-15.21086 3.2353,-4.54354 9.22411,-2.27362 10.3894,3.93787 0.76093,4.05614 -1.48787,9.90688 -4.30037,11.18834 -1.16088,0.52893 -2.18716,0.93782 -2.28061,0.90863 -0.0934,-0.0292 -1.03431,-0.39997 -2.09081,-0.82398 z m -66.58577,-8.36847 c -4.41797,-3.47517 -3.25287,-11.92481 2.02029,-14.65167 7.93281,-4.10221 15.28683,3.44041 11.48654,11.78113 -2.03769,4.47224 -9.46411,6.05054 -13.50683,2.87054 z m 42.77958,-3.28416 c -3.23171,-2.54206 -4.42514,-6.17043 -3.2832,-9.98188 1.29726,-4.32987 3.72761,-6.33392 7.68127,-6.33392 7.73441,0 11.19641,10.17067 5.42616,15.94092 -2.51292,2.51292 -6.89364,2.68008 -9.82423,0.37488 z m 36.102,-1.03402 c -2.25667,-4.21662 -0.3773,-14.90123 2.62105,-14.90123 0.90772,0 1.11665,10.0178 0.29465,14.12782 -0.61551,3.07757 -1.54991,3.32544 -2.9157,0.77341 z m -97.0255,-1.50597 c -2.66786,-2.66786 -2.33335,-9.31614 0.6279,-12.47936 3.39307,-3.62449 5.59539,-3.97796 8.24932,-1.32403 1.95812,1.95813 2.16098,2.69125 1.79591,6.4906 -0.33303,3.46588 -0.91384,4.73192 -3.04394,6.63517 -3.10826,2.77723 -5.33207,2.97474 -7.62919,0.67762 z m 38.90968,-7.02911 c -4.21724,-1.83745 -5.682,-6.83825 -3.3333,-11.38013 1.78383,-3.44954 4.45387,-5.03246 8.48868,-5.03246 8.86142,0 10.72741,12.89991 2.37103,16.39143 -3.44302,1.43858 -4.26787,1.4409 -7.52641,0.0212 z m 38.52766,-3.36383 c -3.59257,-3.59257 -3.76205,-8.8641 -0.39329,-12.23286 3.36949,-3.36949 10.05687,-1.18863 11.70942,3.81862 1.85715,5.62723 -1.05794,10.43515 -6.32695,10.43515 -2.02164,0 -3.61277,-0.6445 -4.98918,-2.02091 z m -62.67337,-5.57469 c -3.38953,-2.66621 -3.11202,-7.57261 0.64058,-11.32521 5.23921,-5.2392 12.22318,-3.14522 12.22318,3.66485 0,3.70931 -1.66427,6.40274 -5.03247,8.1445 -3.2757,1.69393 -5.21471,1.57406 -7.83129,-0.48414 z m 78.72447,-3.97032 c -3.96729,-4.38381 -3.27856,-11.45719 1.11559,-11.45719 2.53125,0 4.05152,2.80288 4.75863,8.77335 l 0.49782,4.20331 -2.49847,0 c -1.37416,0 -3.11727,-0.68376 -3.87357,-1.51947 z m -36.46643,-0.48606 c -4.45029,-2.4666 -5.58053,-8.48907 -2.22321,-11.84638 4.91301,-4.91302 13.85191,-0.97222 13.85191,6.10674 0,5.85563 -6.04037,8.83701 -11.6287,5.73964 z m -22.27805,-8.17046 c -4.49735,-2.45985 -5.06089,-7.07783 -1.32021,-10.8185 4.10497,-4.10497 10.56404,-3.23066 12.60921,1.70681 2.58221,6.23402 -5.14597,12.47167 -11.289,9.11169 z m 39.66868,-3.12077 c -4.02246,-4.02247 -4.53675,-8.42624 -1.23657,-10.5886 1.80256,-1.18109 2.32743,-1.18839 5.00489,-0.0696 3.4786,1.45345 6.36901,5.69184 6.37349,9.34583 0.007,5.62639 -5.1593,6.29494 -10.14181,1.31244 z m -60.18017,-4.28452 c -3.07002,-3.07002 -1.54208,-8.28669 3.06785,-10.47425 7.26315,-3.44659 12.70083,4.0436 7.04299,9.70144 -2.99981,2.99982 -7.53704,3.34662 -10.11084,0.77281 z m 73.98209,-2.98982 c -3.27129,-3.46857 -3.9623,-7.89383 -1.23264,-7.89383 1.93322,0 7.18329,7.8007 6.48129,9.63009 -0.75645,1.97127 -2.20344,1.49261 -5.24865,-1.73626 z m -36.0327,0.93217 c -6.76318,-2.94193 -5.52797,-10.50041 1.71598,-10.50041 8.4759,0 12.89751,8.24686 5.85683,10.92373 -2.77466,1.05492 -4.38093,0.96513 -7.57281,-0.42332 z m -22.04252,-8.826 c -2.20232,-2.20231 -2.1129,-3.82363 0.3465,-6.28304 5.44111,-5.44111 14.207,-2.51579 11.00659,3.6731 -2.09685,4.05488 -8.44808,5.51496 -11.35309,2.60994 z m 37.90594,-1.62961 c -2.6657,-1.64703 -4.25308,-4.97701 -3.1914,-6.69484 0.30076,-0.48663 1.88087,-0.88479 3.51136,-0.88479 2.26812,0 3.64846,0.68394 5.87601,2.91149 1.66045,1.66045 2.79063,3.54907 2.63023,4.39532 -0.41516,2.19023 -5.47004,2.34648 -8.8262,0.27282 z m -49.01333,-4.3673 c 0.56764,-0.69086 2.92227,-2.28488 5.23253,-3.54227 3.26483,-1.77694 4.20045,-2.00752 4.20045,-1.03513 0,1.68536 -4.23444,4.59922 -7.67368,5.28052 -2.41494,0.4784 -2.65219,0.38357 -1.7593,-0.70312 z m 59.76397,-0.59701 c -1.09684,-0.84341 -1.83008,-2.02601 -1.62941,-2.628 0.25001,-0.75004 1.27294,-0.26925 3.25005,1.52754 3.13317,2.84742 1.81513,3.74239 -1.62064,1.10046 z m -31.2846,-0.17077 c -2.22422,-1.29548 -1.84464,-4.51447 0.66729,-5.65898 4.43308,-2.01985 11.26286,-0.32446 11.26286,2.79583 0,3.04611 -8.22642,5.02038 -11.93015,2.86315 z m -11.51156,-7.42842 c 0,-0.95367 5.34522,-2.53973 8.58134,-2.54629 3.32276,-0.007 2.82939,1.44465 -0.8372,2.46292 -3.93112,1.09172 -7.74414,1.13278 -7.74414,0.0834 z m 24.06961,-0.17521 c -2.88043,-1.05203 -2.94973,-2.6492 -0.16991,-3.91577 2.71562,-1.23732 2.62117,-1.25597 3.11017,0.61398 0.24546,0.93864 1.48085,1.81974 3.02786,2.15952 1.43727,0.31569 2.61322,0.92078 2.61322,1.34465 0,1.00652 -5.63524,0.87362 -8.58134,-0.20238 z m 10.81866,-11.88924 c 8.4054,-7.88422 15.11079,-16.67482 20.41847,-26.76808 12.42232,-23.62272 13.83212,-46.46133 4.19932,-68.02849 -3.23081,-7.23356 -0.51477,-4.28993 3.3197,3.59787 4.37499,8.99971 6.07138,16.96154 6.02847,28.29406 -0.0485,12.81168 -1.88322,20.02357 -8.51945,33.48816 -5.65998,11.48379 -13.20904,21.4512 -21.36741,28.2125 -9.0306,7.48414 -11.5751,8.23517 -4.0791,1.20398 z m -11.44656,3.52952 c 0,-0.59111 1.66088,-2.78303 3.69085,-4.87092 5.71789,-5.88108 12.21371,-15.51481 16.95981,-25.15252 13.32898,-27.06665 15.42226,-52.23039 6.26732,-75.34069 -2.2279,-5.62399 -0.37136,-3.63997 3.26789,3.49229 11.56598,22.66721 7.57394,53.70564 -10.48556,81.52595 -6.41641,9.88434 -19.70031,23.60357 -19.70031,20.34589 z m 0.56437,-12.50348 c -0.96125,-3.59294 -0.63182,-4.91382 3.61065,-14.47717 5.27718,-11.8958 10.16229,-26.77263 12.68044,-38.6163 1.65521,-7.785 1.95562,-11.60457 1.94248,-24.69751 -0.0146,-14.52261 -0.15469,-15.90586 -2.24748,-22.1859 -2.0805,-6.24318 -2.11297,-6.55562 -0.47858,-4.60462 2.40791,2.87436 5.33082,9.3998 7.12509,15.90687 1.16253,4.21598 1.50016,8.55357 1.49885,19.25568 -0.002,15.12434 -1.0267,21.70878 -5.51669,35.4438 -2.75464,8.42653 -12.95003,29.68982 -16.08982,33.55655 l -1.98341,2.44266 -0.54153,-2.02406 z m -6.76973,-27.20218 -2.43794,-5.45465 5.5611,-22.35777 c 5.53403,-22.24892 9.72649,-43.53975 9.83868,-49.96435 0.0323,-1.85348 0.3676,-4.12345 0.74499,-5.04438 0.63026,-1.538 0.76702,-1.4698 1.67876,0.83721 4.73156,11.97241 2.43739,41.12915 -5.34123,67.88185 -3.86864,13.30522 -5.89683,19.04122 -6.83257,19.32338 -0.42561,0.12835 -1.87092,-2.22124 -3.21179,-5.22129 z m -16.57812,-20.27316 c -1.71005,-1.24812 -3.30042,-2.74296 -3.53416,-3.32185 -0.6562,-1.62527 4.89698,-19.82648 9.53308,-31.24577 2.29075,-5.64238 5.94187,-13.19818 8.11362,-16.79067 3.79347,-6.27509 10.66805,-14.07628 11.59101,-13.15332 0.24395,0.24396 -0.64861,2.85765 -1.98347,5.80821 -4.18745,9.25587 -10.68133,29.76776 -17.84538,56.36737 -0.6102,2.26562 -1.48206,4.22867 -1.93748,4.36233 -0.45542,0.13366 -2.22716,-0.77817 -3.93722,-2.0263 z m -19.33227,-9.5814 c -1.44272,-1.05496 -1.41101,-1.41943 0.71341,-8.19823 6.38176,-20.36354 18.87808,-37.98405 31.5072,-44.42695 1.75863,-0.89718 3.19751,-1.51306 3.19751,-1.36861 0,0.14444 -2.25825,2.5848 -5.01833,5.42302 -9.042,9.29796 -16.15465,22.21646 -21.7415,39.48837 -2.76872,8.5596 -3.37184,9.72556 -5.14251,9.94164 -1.10326,0.13463 -2.68536,-0.25203 -3.51578,-0.85924 z m -15.20295,-3.28847 c 3.89233,-17.72164 14.44772,-34.45651 27.70324,-43.92161 4.95093,-3.53522 11.02918,-6.62197 11.70629,-5.94486 0.18058,0.18058 -1.70424,1.72822 -4.1885,3.43919 -12.37621,8.52383 -22.3927,23.31084 -28.13826,41.53956 -2.1673,6.87612 -2.33488,7.12529 -4.96653,7.38451 -2.67965,0.26394 -2.71376,0.22371 -2.11624,-2.49679 z"
       id="path3097"
       inkscape:connector-curvature="0" />
  </g>
</svg>
